<?xml version="1.0" encoding="utf-8"?>
<!-- Generator: Adobe Illustrator 21.1.0, SVG Export Plug-In . SVG Version: 6.00 Build 0)  -->
<svg version="1.1" id="Layer_1" xmlns="http://www.w3.org/2000/svg" xmlns:xlink="http://www.w3.org/1999/xlink" x="0px" y="0px"
	 viewBox="0 0 300 300" enable-background="new 0 0 300 300" xml:space="preserve">
<path id="Blue_1_" fill="#231F20" d="M268.716,283.447c8.134,0,14.73-6.596,14.73-14.73V31.283c0-8.137-6.596-14.73-14.73-14.73
	H31.284c-8.138,0-14.731,6.594-14.731,14.73v237.434c0,8.135,6.593,14.73,14.731,14.73H268.716z"/>
<path id="f" fill="#FFFFFF" d="M200.705,283.447V180.092h34.693l5.194-40.28h-39.887v-25.717c0-11.662,3.238-19.609,19.962-19.609
	l21.33-0.01V58.45c-3.69-0.49-16.351-1.587-31.081-1.587c-30.752,0-51.806,18.771-51.806,53.244v29.705h-34.781v40.28h34.781
	v103.355H200.705z"/>
</svg>
