<?xml version="1.0" encoding="utf-8"?>
<!-- Generator: Adobe Illustrator 25.2.3, SVG Export Plug-In . SVG Version: 6.00 Build 0)  -->
<svg version="1.1" id="Layer_1" xmlns="http://www.w3.org/2000/svg" xmlns:xlink="http://www.w3.org/1999/xlink" x="0px" y="0px"
	 viewBox="0 0 490 200" enable-background="new 0 0 490 200" xml:space="preserve">
<rect x="-0.143" y="0" display="none" fill="#A0DBE9" width="490.184" height="200"/>
<g>
	<path fill="#FFFFFF" d="M472.528,46.636c-2.514,1.412-5.353,1.268-8.089,1.431c-4.892,0.291-9.798,0.154-14.693-0.059
		c-4.126-0.179-8.273,0.328-12.388-0.51c-1.511-0.308-3.14-0.156-4.643,0.338c-1.416,0.466-2.567-0.666-3.95-0.447
		c-4.188,0.664-8.441,0.16-12.657,0.342c-7.711,0.335-15.477,0.947-23.231,0.307c-4.114-0.339-8.255,0.175-12.387-0.524
		c-2.807-0.475-5.682,0.218-8.595,0.014c-5.394-0.378-10.839-0.078-16.257,0.453c-4.811,0.471-9.662,0.305-14.484,0.061
		c-4.602-0.233-9.23,0.375-13.816-0.54c-1.513-0.302-3.138-0.172-4.648,0.307c-1.535,0.487-2.839-0.672-4.355-0.423
		c-4.116,0.678-8.311,0.198-12.448,0.359c-7.653,0.297-15.359,0.964-23.054,0.296c-4.113-0.357-8.271,0.299-12.386-0.541
		c-1.511-0.308-3.152-0.19-4.641,0.333c-1.372,0.482-2.445-0.626-3.747-0.436c-4.262,0.622-8.554,0.026-12.871,0.347
		c-7.236,0.538-14.568,0.809-21.865,0.292c-4.188-0.297-8.382-0.018-12.595-0.46c-3.276-0.344-6.694-0.187-10.014-0.055
		c-3.736,0.148-7.511,0.1-11.23,0.229c-7.721,0.267-15.482,0.927-23.239,0.29c-4.114-0.338-8.26-0.253-12.383-0.42
		c-3.987-0.162-8.045-0.448-12.06-0.113c-3.053,0.255-6.194-0.979-9.166,0.508c-4.393-1.686-8.705,0.609-13.111,0.237
		c-4.463-0.377-8.975-0.317-13.464-0.273c-3.602,0.035-7.207-0.537-10.74-0.402c-4.312,0.166-8.588-0.403-12.89-0.072
		c-2.573,0.198-5.228,0.3-7.739,0.285c-7.279-0.042-14.542,0.939-21.82,0.283c-4.522-0.408-9.091,0.326-13.609-0.573
		c-1.512-0.301-3.155-0.211-4.642,0.321c-1.306,0.467-2.331-0.561-3.535-0.406c-4.338,0.561-8.738-0.805-13.075,0.463
		c-1.522,0.445-3.188-1.652-2.544-3.047c0.272-0.589,0.72-1.22,1.55-0.891c2.41,0.956,4.568-1.005,7.04-0.411
		c2.346,0.564,4.836,0.761,7.29,0.347c0.318-0.054,0.608-0.257,0.91-0.391c2.895-0.266,5.787,0.123,8.685,0.035
		c2.692-0.082,5.388-0.032,8.062-0.412c0.681,0,1.361,0,2.042,0c2.734,0.443,5.489,0.128,8.233,0.189
		c2.624,0.059,5.251,0.012,7.875,0.013c0.971,0,1.942-0.001,2.913,0c6.537,0.297,13.076,0.203,19.616,0.001
		c4.844,0.304,9.686,0.261,14.527-0.004c0.526-0.029,1.083,0.141,1.567-0.199c0.681,0,1.361,0,2.042,0
		c2.732,0.443,5.484,0.128,8.226,0.189c2.622,0.059,5.246,0.012,7.868,0.013c0.963,0,1.927,0,2.889,0
		c6.973,0.358,13.947,0.185,20.924,0.001c4.891,0.32,9.781,0.242,14.67-0.003c0.465-0.023,0.958,0.114,1.378-0.2
		c0.681,0,1.361,0,2.042,0c3.492,0.464,7.002,0.138,10.502,0.176c1.941,0.021,3.905,0.28,5.835-0.176c0.681,0,1.361,0,2.042,0
		c2.584,0.421,5.158,0.711,7.794,0.303c2.688-0.415,5.39,0.136,8.091,0.128c1.488-0.004,2.96-0.05,4.434-0.23
		c5.319,0.402,10.637,0.121,15.954,0c0.886,0,1.771-0.001,2.656,0c4.606,0,9.211,0.008,13.816-0.009
		c0.662-0.002,1.356,0.178,1.984-0.192c0.681,0,1.361,0,2.042,0c2.246,0.42,4.467,0.64,6.785,0.282
		c2.61-0.403,5.261,0.14,7.899,0.15c1.492,0.006,2.963-0.059,4.44-0.23c5.444,0.373,10.886,0.147,16.328,0
		c0.885,0,1.769-0.001,2.654,0c4.335,0,8.671,0.008,13.005-0.009c0.662-0.003,1.357,0.179,1.985-0.192c0.817,0,1.634,0,2.451,0
		c2.58,0.423,5.151,0.705,7.784,0.306c2.753-0.418,5.518,0.143,8.283,0.13c1.42-0.006,2.821-0.07,4.225-0.234
		c4.902,0.258,9.801,0.305,14.701-0.004c0.591-0.037,1.214,0.163,1.766-0.198c0.681,0,1.361,0,2.042,0
		c3.695,0.454,7.405,0.122,11.107,0.18c1.467,0.023,2.96,0.244,4.413-0.18c0.817,0,1.634,0,2.451,0
		c1.58,0.391,3.157,0.421,4.792,0.251c2.698-0.281,5.401,0.181,8.109,0.185c1.357,0.002,2.694-0.059,4.034-0.232
		c4.859,0.295,9.717,0.265,14.575-0.005c0.528-0.029,1.086,0.141,1.573-0.199c0.681,0,1.361,0,2.042,0
		c2.734,0.443,5.488,0.128,8.232,0.189c2.624,0.059,5.25,0.012,7.874,0.013c0.97,0,1.941-0.001,2.911,0
		c6.539,0.284,13.08,0.209,19.622,0.001c4.91,0.319,9.818,0.241,14.726-0.003c0.46-0.023,0.949,0.112,1.364-0.2
		c0.681,0,1.361,0,2.042,0c3.289,0.452,6.596,0.148,9.893,0.177c2.145,0.019,4.308,0.26,6.444-0.177c0.681,0,1.361,0,2.042,0
		c0.753,0.337,1.581,0.276,2.372,0.371C472.335,43.768,472.735,44.219,472.528,46.636z"/>
</g>
<g>
	<path fill="#FFFFFF" d="M21.523,137.382c-0.859-0.649-2.156-0.979-2.208-2.199c-0.049-1.133,0.75-1.795,1.972-1.351
		c0.808,0.293,1.342,0.23,2.073-0.061c1.68-0.669,3.492-0.423,5.255-0.296c2.717,0.196,5.368,0.448,8.142-0.057
		c1.785-0.325,3.803,0.327,5.697,0.243c9.988-0.447,19.986-0.115,29.974-0.348c2.194-0.051,4.317,0.318,6.436,0.688
		c0.418,0.073,0.784,0.183,1.161-0.018c1.419-0.76,3.039-0.764,4.575-0.568c5.564,0.71,11.175,0.27,16.712,0.16
		c9.446-0.187,18.893,0.041,28.333-0.264c1.103-0.036,2.172,0.05,3.257,0.231c2.355,0.393,4.691,0.736,7.092-0.046
		c0.892-0.291,2.048-0.198,3.05-0.086c5.972,0.667,11.986,0.271,17.943,0.162c7.186-0.131,14.37-0.078,21.554-0.158
		c3.27-0.036,6.525-0.064,9.821,0.198c4.847,0.386,9.78,0.143,14.648,0.073c13.173-0.189,26.348-0.219,39.521-0.359
		c2.605-0.028,5.1,0.789,7.878,0.151c1.92-0.441,4.22,0.374,6.302,0.215c5.852-0.448,11.696,0.095,17.555-0.147
		c8.128-0.336,16.287-0.261,24.431-0.201c1.632,0.012,3.394,0.138,4.986,0.687c0.336,0.116,0.636,0.154,0.959-0.006
		c2.106-1.038,4.367-0.615,6.605-0.473c2.373,0.151,4.75,0.561,7.112-0.153c0.476-0.144,1.091-0.07,1.62,0.007
		c2.378,0.345,4.788,0.423,7.168,0.259c9.232-0.637,18.481-0.205,27.716-0.256c3.628-0.02,7.319-0.315,10.981,0.202
		c2.059,0.291,4.156,0.193,6.3-0.17c1.8-0.305,3.803,0.305,5.696,0.221c9.988-0.444,19.986-0.118,29.974-0.347
		c2.262-0.052,4.453,0.289,6.635,0.7c0.337,0.064,0.654,0.181,0.979,0.025c2.25-1.085,4.639-0.604,7.013-0.45
		c2.305,0.15,4.565,0.262,6.92-0.155c1.792-0.317,3.802,0.312,5.695,0.227c10.125-0.455,20.259-0.129,30.386-0.336
		c2.101-0.043,4.271-0.039,5.897,1.378c0.293,1.908,0.055,2.125-2.161,2.351c-1.207,0.123-2.447,0.01-3.625,0.327
		c-0.274,0-0.548,0-0.822,0c-0.411-0.251-0.822-0.251-1.233,0c-0.685,0-1.37,0-2.055,0c-2.192-0.283-4.384-0.283-6.577,0
		c-0.685,0-1.37,0-2.055,0c-0.411-0.251-0.822-0.251-1.233,0c-0.822,0-1.644,0-2.466,0c-0.823-0.364-1.712-0.084-2.564-0.173
		c-1.199,0.083-2.423-0.184-3.601,0.173c-0.411,0-0.822,0-1.233,0c-0.721-0.354-1.513-0.09-2.266-0.173
		c-2.949-0.104-5.906-0.467-8.832,0.173c-0.137,0-0.274,0-0.411,0c-0.545-0.271-1.158-0.334-1.771-0.326
		c-3.958,0.049-7.915-0.116-11.873-0.012c-0.682,0.018-1.364,0.042-1.976,0.338c-0.137,0-0.274,0-0.411,0
		c-2.055-0.694-4.11-0.109-6.166,0c-0.274,0-0.548,0-0.822,0c-0.274-0.21-0.548-0.21-0.822,0c-0.685,0-1.37,0-2.055,0
		c-2.102-0.374-4.231-0.075-6.343-0.172c-0.897,0.081-1.828-0.177-2.7,0.172c-0.685,0-1.37,0-2.055,0
		c-0.411-0.251-0.822-0.251-1.233,0c-0.822,0-1.644,0-2.466,0c-1.507-0.274-3.014-0.274-4.521,0c-0.274,0-0.548,0-0.822,0
		c-0.717-0.354-1.506-0.09-2.255-0.173c-2.816-0.087-5.64-0.484-8.432,0.173c-0.137,0-0.274,0-0.411,0
		c-0.545-0.271-1.158-0.334-1.771-0.326c-3.958,0.049-7.915-0.116-11.873-0.012c-0.682,0.018-1.364,0.042-1.976,0.338
		c-0.959,0-1.918,0-2.877,0c-0.274-0.243-0.638-0.152-0.971-0.173c-0.498,0.06-1.042-0.146-1.495,0.173c-0.685,0-1.37,0-2.055,0
		c-1.847-0.377-3.726-0.075-5.586-0.172c-1.012,0.094-2.057-0.199-3.046,0.172c-1.096,0-2.192,0-3.288,0
		c-0.823-0.364-1.712-0.084-2.564-0.173c-1.199,0.083-2.423-0.184-3.601,0.173c-1.096,0-2.192,0-3.288,0
		c-3.147-0.662-6.324-0.212-9.491-0.173c-4.995-0.221-9.99-0.324-14.984-0.001c-2.26-0.112-4.524-0.267-6.763,0.175
		c-1.507,0-3.014,0-4.521,0c-2.055-0.281-4.11-0.281-6.166,0c-0.685,0-1.37,0-2.055,0c-0.411-0.251-0.822-0.251-1.233,0
		c-0.822,0-1.644,0-2.466,0c-0.823-0.364-1.712-0.084-2.564-0.173c-1.199,0.083-2.423-0.184-3.601,0.173c-1.096,0-2.192,0-3.288,0
		c-3.146-0.617-6.319-0.276-9.486-0.173c-4.973-0.218-9.946-0.325-14.918-0.003c-1.869,0.002-3.753-0.272-5.602,0.176
		c-0.274,0-0.548,0-0.822,0c-0.548-0.267-1.096-0.267-1.644,0c-0.685,0-1.37,0-2.055,0c-2.055-0.281-4.11-0.281-6.166,0
		c-0.685,0-1.37,0-2.055,0c-0.385-0.298-0.864-0.124-1.299-0.173c-0.365,0-0.731,0-1.096,0c-0.436,0.048-0.917-0.126-1.304,0.172
		c-0.822,0-1.644,0-2.466,0c-1.233-0.269-2.466-0.269-3.699,0c-1.096,0-2.192,0-3.288,0c-3.266-0.663-6.563-0.222-9.848-0.179
		c-5.078-0.112-10.162-0.561-15.225,0.179c-0.137,0-0.274,0-0.411,0c-1.918-0.667-3.836-0.166-5.755,0c-0.274,0-0.548,0-0.822,0
		c-0.548-0.267-1.096-0.267-1.644,0c-0.548,0-1.096,0-1.644,0c-2.192-0.283-4.384-0.283-6.577,0c-0.685,0-1.37,0-2.055,0
		c-0.411-0.251-0.822-0.251-1.233,0c-0.822,0-1.644,0-2.466,0c-0.823-0.364-1.712-0.084-2.564-0.173
		c-1.199,0.083-2.423-0.184-3.601,0.173c-0.411,0-0.822,0-1.233,0c-0.721-0.354-1.513-0.09-2.266-0.173
		c-2.949-0.104-5.906-0.467-8.832,0.173c-0.137,0-0.274,0-0.411,0c-0.545-0.271-1.158-0.334-1.771-0.326
		c-3.958,0.049-7.915-0.116-11.873-0.012c-0.682,0.018-1.364,0.042-1.976,0.338c-0.137,0-0.274,0-0.411,0
		c-2.466-0.904-4.932-0.075-7.399,0c-0.274,0-0.548,0-0.822,0c-0.274-0.21-0.548-0.21-0.822,0c-0.685,0-1.37,0-2.055,0
		c-2.102-0.374-4.231-0.075-6.343-0.172c-0.897,0.081-1.828-0.177-2.7,0.172c-0.685,0-1.37,0-2.055,0
		c-0.411-0.251-0.822-0.251-1.233,0c-0.822,0-1.644,0-2.466,0c-1.233-0.269-2.466-0.269-3.699,0c-0.411,0-0.822,0-1.233,0
		c-0.842-0.35-1.745-0.09-2.615-0.173c-2.834-0.142-5.673-0.439-8.483,0.173c-0.137,0-0.274,0-0.411,0
		c-0.545-0.271-1.158-0.334-1.771-0.326c-3.958,0.049-7.915-0.116-11.873-0.012c-0.682,0.018-1.364,0.042-1.976,0.338
		c-0.137,0-0.274,0-0.411,0c-2.055-0.694-4.11-0.109-6.166,0c-0.274,0-0.548,0-0.822,0c-0.274-0.21-0.548-0.21-0.822,0
		c-0.685,0-1.37,0-2.055,0c-2.102-0.374-4.231-0.075-6.343-0.172c-0.897,0.081-1.828-0.177-2.7,0.172c-0.685,0-1.37,0-2.055,0
		c-0.411-0.251-0.822-0.251-1.233,0c-0.822,0-1.644,0-2.466,0c-1.507-0.274-3.014-0.274-4.521,0c-0.274,0-0.548,0-0.822,0
		c-0.717-0.354-1.506-0.09-2.255-0.173c-2.816-0.087-5.64-0.484-8.432,0.173c-0.137,0-0.274,0-0.411,0
		c-0.545-0.271-1.158-0.334-1.771-0.326c-3.958,0.049-7.915-0.116-11.873-0.012c-0.682,0.018-1.364,0.042-1.976,0.338
		C21.797,137.382,21.66,137.382,21.523,137.382z"/>
	<path fill="#FFFFFF" d="M418.584,137.382c1.441-0.766,2.993-1.057,4.701-0.778c2.511,0.411,5.039,0.003,7.556,0.081
		c1.171,0.037,2.454-0.209,3.362,0.697C428.997,137.382,423.79,137.382,418.584,137.382z"/>
	<path fill="#FFFFFF" d="M361.45,137.382c1.434-0.772,2.972-1.057,4.685-0.775c2.508,0.414,5.038,0.008,7.557,0.075
		c1.183,0.031,2.446-0.154,3.377,0.7C371.863,137.382,366.656,137.382,361.45,137.382z"/>
	<path fill="#FFFFFF" d="M21.934,137.382c1.073-0.927,2.771-1.071,3.876-0.884c2.888,0.49,5.718,0.061,8.562,0.176
		c1.123,0.045,2.309-0.088,3.181,0.708C32.346,137.382,27.14,137.382,21.934,137.382z"/>
	<path fill="#FFFFFF" d="M79.068,137.382c1.435-0.773,2.981-1.058,4.691-0.776c2.509,0.413,5.038,0.004,7.556,0.079
		c1.178,0.035,2.454-0.188,3.373,0.698C89.481,137.382,84.274,137.382,79.068,137.382z"/>
	<path fill="#FFFFFF" d="M137.435,137.382c1.441-0.765,2.994-1.057,4.702-0.778c2.511,0.41,5.038,0.003,7.556,0.081
		c1.171,0.037,2.454-0.211,3.362,0.696C147.848,137.382,142.641,137.382,137.435,137.382z"/>
	<path fill="#FFFFFF" d="M194.569,137.382c1.525-0.731,3.112-1.061,4.908-0.751c2.085,0.36,4.205,0.042,6.31,0.066
		c1.341,0.015,2.732-0.243,3.989,0.381c0.136,0.067,0.181,0.134,0.136,0.202c-0.044,0.068-0.089,0.102-0.135,0.102
		C204.708,137.382,199.638,137.382,194.569,137.382z"/>
	<path fill="#FFFFFF" d="M250.886,137.115c1.66-0.464,3.283-0.664,5.107-0.461c2.2,0.245,4.477,0.043,6.72,0.024
		c1.162-0.01,2.319-0.023,3.369,0.478c0.003,0.075,0.005,0.15,0.008,0.225c-5.069,0-10.139,0-15.208,0
		c-0.134-0.061-0.178-0.121-0.132-0.179C250.794,137.145,250.84,137.115,250.886,137.115z"/>
	<path fill="#FFFFFF" d="M308.018,137.134c1.66-0.439,3.262-0.717,5.105-0.489c2.192,0.27,4.476,0.051,6.721,0.034
		c1.161-0.009,2.321-0.037,3.373,0.466c0.136,0.05,0.183,0.102,0.14,0.156c-0.044,0.054-0.088,0.082-0.133,0.082
		c-5.069,0-10.139,0-15.208,0c-0.133-0.056-0.176-0.111-0.131-0.166C307.928,137.161,307.972,137.134,308.018,137.134z"/>
	<path fill="#FFFFFF" d="M209.777,137.382c0-0.101,0-0.203-0.002-0.304c3.01-0.267,6.017-0.675,9.037-0.057
		c0.321,0.066,0.681,0.045,0.83,0.361C216.354,137.382,213.066,137.382,209.777,137.382z"/>
	<path fill="#FFFFFF" d="M266.089,137.382c-0.017-0.075-0.02-0.15-0.008-0.225c2.87-0.489,5.746-0.693,8.643-0.142
		c0.322,0.061,0.682,0.042,0.819,0.367C272.392,137.382,269.241,137.382,266.089,137.382z"/>
	<path fill="#FFFFFF" d="M153.465,137.382c2.94-1.237,5.959-0.613,8.966-0.252c0.178,0.024,0.248,0.069,0.212,0.136
		c-0.042,0.077-0.086,0.116-0.135,0.116C159.494,137.382,156.48,137.382,153.465,137.382z"/>
	<path fill="#FFFFFF" d="M323.223,137.382c-0.014-0.079-0.016-0.158-0.007-0.238c2.874-0.441,5.751-0.7,8.649-0.133
		c0.321,0.063,0.684,0.038,0.811,0.371C329.526,137.382,326.375,137.382,323.223,137.382z"/>
	<path fill="#FFFFFF" d="M434.614,137.382c2.94-1.238,5.959-0.612,8.966-0.252c0.178,0.024,0.248,0.069,0.212,0.136
		c-0.042,0.077-0.086,0.116-0.135,0.116C440.643,137.382,437.628,137.382,434.614,137.382z"/>
	<path fill="#FFFFFF" d="M95.098,137.382c2.807-1.241,5.718-0.596,8.609-0.312c0.148,0.062,0.201,0.129,0.158,0.201
		c-0.044,0.074-0.088,0.111-0.135,0.111C100.853,137.382,97.975,137.382,95.098,137.382z"/>
	<path fill="#FFFFFF" d="M377.48,137.382c2.807-1.25,5.718-0.589,8.608-0.312c0.149,0.062,0.202,0.129,0.159,0.2
		c-0.044,0.074-0.088,0.111-0.135,0.111C383.235,137.382,380.357,137.382,377.48,137.382z"/>
	<path fill="#FFFFFF" d="M37.964,137.382c2.158-1.105,4.514-0.628,6.815-0.549c0.6,0.021,1.194,0.157,1.79,0.24
		c0.15,0.06,0.204,0.126,0.162,0.198c-0.043,0.074-0.088,0.111-0.135,0.111C43.718,137.382,40.841,137.382,37.964,137.382z"/>
	<path fill="#FFFFFF" d="M469.552,137.382c1.144-0.628,2.514-0.459,3.771-0.659c1.474-0.236,2.352-0.674,2.016-2.019
		c0.126-0.003,0.253-0.002,0.379,0.001c0,2.677,0,2.677-3.288,2.677C471.47,137.382,470.511,137.382,469.552,137.382z"/>
	<path fill="#FFFFFF" d="M129.625,137.382c2.466-0.152,4.932-1.921,7.399,0C134.558,137.382,132.091,137.382,129.625,137.382z"/>
	<path fill="#FFFFFF" d="M308.018,137.134c0.003,0.083,0.002,0.165-0.003,0.248c-2.192,0-4.384,0-6.577,0
		C303.594,136.646,305.786,136.531,308.018,137.134z"/>
	<path fill="#FFFFFF" d="M412.007,137.382c2.055-0.288,4.11-1.434,6.166,0C416.118,137.382,414.062,137.382,412.007,137.382z"/>
	<path fill="#FFFFFF" d="M72.491,137.382c2.055-0.302,4.11-1.426,6.166,0C76.601,137.382,74.546,137.382,72.491,137.382z"/>
	<path fill="#FFFFFF" d="M188.403,137.382c1.918-0.338,3.836-1.429,5.755,0C192.24,137.382,190.322,137.382,188.403,137.382z"/>
	<path fill="#FFFFFF" d="M177.716,137.382c2.192-0.543,4.384-0.547,6.577,0C182.101,137.382,179.909,137.382,177.716,137.382z"/>
	<path fill="#FFFFFF" d="M401.711,137.085c2.199,0.098,4.438-0.398,6.597,0.297c-2.192,0-4.384,0-6.577,0
		c-0.129-0.06-0.175-0.124-0.138-0.192C401.631,137.12,401.67,137.085,401.711,137.085z"/>
	<path fill="#FFFFFF" d="M119.329,137.084c2.199,0.1,4.438-0.398,6.596,0.298c-2.192,0-4.384,0-6.577,0
		c-0.129-0.061-0.175-0.125-0.138-0.193C119.249,137.119,119.288,137.084,119.329,137.084z"/>
	<path fill="#FFFFFF" d="M458.865,137.382c2.192-0.543,4.384-0.547,6.577,0C463.25,137.382,461.058,137.382,458.865,137.382z"/>
	<path fill="#FFFFFF" d="M62.195,137.086c2.199,0.097,4.438-0.399,6.597,0.296c-2.192,0-4.384,0-6.577,0
		c-0.129-0.06-0.175-0.124-0.138-0.192C62.115,137.12,62.154,137.086,62.195,137.086z"/>
	<path fill="#FFFFFF" d="M250.886,137.115c0.006,0.089,0.004,0.178-0.005,0.266c-1.781,0-3.562,0-5.343,0
		C247.267,136.585,249.077,136.856,250.886,137.115z"/>
	<path fill="#FFFFFF" d="M290.751,137.382c2.055-0.544,4.11-0.548,6.166,0C294.862,137.382,292.807,137.382,290.751,137.382z"/>
	<path fill="#FFFFFF" d="M234.85,137.382c2.055-0.543,4.11-0.549,6.166,0C238.961,137.382,236.906,137.382,234.85,137.382z"/>
	<path fill="#FFFFFF" d="M348.273,137.09c1.926,0.093,3.898-0.402,5.779,0.292c-1.918,0-3.836,0-5.755,0
		c-0.128-0.058-0.173-0.121-0.138-0.188C348.195,137.124,348.233,137.09,348.273,137.09z"/>
	<path fill="#FFFFFF" d="M388.989,137.382c1.507-0.533,3.014-0.572,4.521,0C392.003,137.382,390.496,137.382,388.989,137.382z"/>
	<path fill="#FFFFFF" d="M49.473,137.382c1.507-0.534,3.014-0.571,4.521,0C52.487,137.382,50.98,137.382,49.473,137.382z"/>
	<path fill="#FFFFFF" d="M446.945,137.382c1.162-0.678,2.455-0.228,3.689-0.283c0.141,0.059,0.19,0.121,0.146,0.185
		c-0.044,0.065-0.089,0.098-0.135,0.098C449.412,137.382,448.178,137.382,446.945,137.382z"/>
	<path fill="#FFFFFF" d="M222.93,137.382c1.233-0.551,2.466-0.55,3.699,0C225.397,137.382,224.164,137.382,222.93,137.382z"/>
	<path fill="#FFFFFF" d="M335.965,137.382c1.162-0.68,2.456-0.226,3.69-0.285c0.14,0.06,0.188,0.123,0.144,0.187
		c-0.044,0.065-0.089,0.098-0.135,0.098C338.432,137.382,337.199,137.382,335.965,137.382z"/>
	<path fill="#FFFFFF" d="M165.796,137.382c1.162-0.678,2.455-0.228,3.689-0.283c0.141,0.059,0.189,0.121,0.146,0.185
		c-0.044,0.065-0.089,0.098-0.135,0.098C168.263,137.382,167.029,137.382,165.796,137.382z"/>
	<path fill="#FFFFFF" d="M107.429,137.382c1.233-0.553,2.466-0.549,3.699,0C109.895,137.382,108.662,137.382,107.429,137.382z"/>
	<path fill="#FFFFFF" d="M278.831,137.382c1.162-0.679,2.455-0.226,3.69-0.285c0.141,0.06,0.189,0.122,0.145,0.187
		c-0.044,0.065-0.089,0.098-0.135,0.098C281.298,137.382,280.064,137.382,278.831,137.382z"/>
	<path fill="#FFFFFF" d="M348.273,137.09c0.012,0.097,0.02,0.194,0.024,0.292c-0.959,0-1.918,0-2.877,0
		C346.281,136.704,347.321,137.182,348.273,137.09z"/>
	<path fill="#FFFFFF" d="M401.711,137.085c0.012,0.099,0.018,0.198,0.02,0.297c-0.822,0-1.644,0-2.466,0
		C399.979,136.73,400.892,137.163,401.711,137.085z"/>
	<path fill="#FFFFFF" d="M282.531,137.382c0.001-0.095-0.002-0.19-0.01-0.285c0.839,0.014,1.74-0.327,2.476,0.285
		C284.175,137.382,283.353,137.382,282.531,137.382z"/>
	<path fill="#FFFFFF" d="M339.665,137.382c0.002-0.095-0.002-0.19-0.009-0.285c0.839,0.015,1.74-0.326,2.476,0.285
		C341.309,137.382,340.487,137.382,339.665,137.382z"/>
	<path fill="#FFFFFF" d="M169.496,137.382c0-0.094-0.003-0.188-0.011-0.283c0.84,0.009,1.74-0.327,2.477,0.283
		C171.14,137.382,170.318,137.382,169.496,137.382z"/>
	<path fill="#FFFFFF" d="M450.645,137.382c0-0.094-0.003-0.188-0.011-0.283c0.84,0.009,1.74-0.327,2.477,0.283
		C452.289,137.382,451.467,137.382,450.645,137.382z"/>
	<path fill="#FFFFFF" d="M119.329,137.084c0.012,0.099,0.018,0.198,0.02,0.298c-0.822,0-1.644,0-2.466,0
		C117.597,136.73,118.51,137.164,119.329,137.084z"/>
	<path fill="#FFFFFF" d="M103.73,137.382c0.077-0.108,0.07-0.212-0.023-0.312c0.828,0.112,1.758-0.313,2.489,0.312
		C105.374,137.382,104.552,137.382,103.73,137.382z"/>
	<path fill="#FFFFFF" d="M62.195,137.086c0.011,0.099,0.018,0.197,0.02,0.296c-0.822,0-1.644,0-2.466,0
		C60.463,136.73,61.376,137.163,62.195,137.086z"/>
	<path fill="#FFFFFF" d="M386.112,137.382c0.075-0.108,0.067-0.212-0.024-0.312c0.701,0.071,1.492-0.258,2.079,0.312
		C387.482,137.382,386.797,137.382,386.112,137.382z"/>
	<path fill="#FFFFFF" d="M443.657,137.382c-0.088-0.072-0.114-0.156-0.076-0.252c0.715,0.06,1.516-0.365,2.132,0.252
		C445.027,137.382,444.342,137.382,443.657,137.382z"/>
	<path fill="#FFFFFF" d="M162.508,137.382c-0.088-0.072-0.114-0.156-0.076-0.252c0.715,0.06,1.516-0.365,2.132,0.252
		C163.878,137.382,163.193,137.382,162.508,137.382z"/>
	<path fill="#FFFFFF" d="M46.596,137.382c0.066-0.107,0.057-0.21-0.027-0.309c0.701,0.074,1.495-0.269,2.082,0.309
		C47.966,137.382,47.281,137.382,46.596,137.382z"/>
	<path fill="#FFFFFF" d="M356.106,137.382c0.441-0.536,1.082-0.297,1.664-0.285c0.119,0.069,0.156,0.134,0.11,0.195
		c-0.044,0.059-0.087,0.089-0.13,0.089C357.202,137.382,356.654,137.382,356.106,137.382z"/>
	<path fill="#FFFFFF" d="M243.071,137.382c0.548-0.468,1.096-0.565,1.644,0C244.167,137.382,243.619,137.382,243.071,137.382z"/>
	<path fill="#FFFFFF" d="M185.937,137.382c0.548-0.467,1.096-0.567,1.644,0C187.033,137.382,186.485,137.382,185.937,137.382z"/>
	<path fill="#FFFFFF" d="M467.497,137.382c0.411-0.447,0.822-0.512,1.233,0C468.319,137.382,467.908,137.382,467.497,137.382z"/>
	<path fill="#FFFFFF" d="M395.977,137.382c0.411-0.48,0.822-0.466,1.233,0C396.799,137.382,396.388,137.382,395.977,137.382z"/>
	<path fill="#FFFFFF" d="M455.577,137.382c0.411-0.477,0.822-0.457,1.233,0C456.399,137.382,455.988,137.382,455.577,137.382z"/>
	<path fill="#FFFFFF" d="M287.463,137.382c0.411-0.468,0.822-0.467,1.233,0C288.285,137.382,287.874,137.382,287.463,137.382z"/>
	<path fill="#FFFFFF" d="M231.551,137.1c0.457-0.03,0.954-0.177,1.245,0.282c-0.411,0-0.822,0-1.233,0
		c-0.13-0.059-0.175-0.121-0.135-0.184C231.467,137.132,231.508,137.1,231.551,137.1z"/>
	<path fill="#FFFFFF" d="M231.551,137.1c0.006,0.094,0.01,0.188,0.012,0.282c-0.411,0-0.822,0-1.233,0
		c-0.131-0.06-0.176-0.121-0.135-0.185c0.041-0.065,0.083-0.097,0.125-0.097C230.73,137.1,231.14,137.1,231.551,137.1z"/>
	<path fill="#FFFFFF" d="M230.319,137.1c0.006,0.094,0.01,0.188,0.01,0.282c-0.411,0-0.822,0-1.233,0
		C229.362,136.88,229.873,137.083,230.319,137.1z"/>
	<path fill="#FFFFFF" d="M174.428,137.382c0.411-0.477,0.822-0.457,1.233,0C175.25,137.382,174.839,137.382,174.428,137.382z"/>
	<path fill="#FFFFFF" d="M113.595,137.382c0.411-0.479,0.822-0.468,1.233,0C114.417,137.382,114.006,137.382,113.595,137.382z"/>
	<path fill="#FFFFFF" d="M56.461,137.382c0.411-0.482,0.822-0.464,1.233,0C57.283,137.382,56.872,137.382,56.461,137.382z"/>
	<path fill="#FFFFFF" d="M357.75,137.382c-0.003-0.095,0.004-0.19,0.02-0.285c0.338-0.037,0.71-0.138,0.802,0.285
		C358.298,137.382,358.024,137.382,357.75,137.382z"/>
	<path fill="#FFFFFF" d="M410.363,137.382c0.274-0.414,0.548-0.437,0.822,0C410.911,137.382,410.637,137.382,410.363,137.382z"/>
	<path fill="#FFFFFF" d="M127.981,137.382c0.274-0.414,0.548-0.437,0.822,0C128.529,137.382,128.255,137.382,127.981,137.382z"/>
	<path fill="#FFFFFF" d="M70.847,137.382c0.274-0.416,0.548-0.436,0.822,0C71.395,137.382,71.121,137.382,70.847,137.382z"/>
</g>
<path display="none" d="M291.311,103.25c0,1.901,0.013,3.531-0.004,5.16c-0.015,1.463-0.652,2.423-2.237,2.76
	c-1.743,0.37-2.756-0.186-2.784-1.939c-0.054-3.322-0.215-6.659,0.037-9.964c0.308-4.037-0.588-5.085-4.916-5.009
	c-3.245,0.057-6.492,0.075-9.736,0.026c-2.067-0.031-3.243-1.168-3.007-2.71c0.253-1.647,2.257-3.161,3.86-2.624
	c1.127,0.377,2.071,0.294,3.112-0.01c0.318-0.093,0.736-0.232,0.987-0.112c2.397,1.149,4.796-0.416,7.177,0.043
	c1.476,0.285,1.848-0.56,1.96-1.71c0.277-2.853,0.473-5.716,0.858-8.556c0.225-1.657,0.088-3.367,1.202-4.923
	c0.707-0.988,1.461-0.848,2.354-0.906c1.168-0.076,0.94,0.947,1.188,1.486c0.256,0.557,0.174,1.271,0.192,1.918
	c0.097,3.505-0.2,7.015,0.403,10.514c0.278,1.61,0.982,2.53,2.696,2.477c2.462-0.077,4.904,0.262,7.384,0.138
	c2.093-0.105,4.132,0.891,6.303,0.95c0.924,0.025,1.206,3.011,0.364,3.703c-0.595,0.489-1.761,1.054-2.019,0.963
	c-1.72-0.612-3.465-0.034-5.097-0.286c-2.934-0.454-5.76,0.236-8.634,0.179c-0.842-0.017-0.895,0.569-1.086,1.141
	C291.039,98.438,291.394,100.994,291.311,103.25z"/>
<path fill="#FFFFFF" d="M77.44,76.617c0.993-0.148,1.394-0.907,1.204-2.276c-0.268,0-0.459,0.056-0.573,0.166
	c-0.115,0.111-0.22,0.242-0.315,0.389c-0.096,0.148-0.201,0.278-0.315,0.389c-0.115,0.11-0.306,0.166-0.573,0.166
	c-0.497-0.407-0.927-0.878-1.29-1.416c-0.364-0.536-0.736-1.063-1.118-1.582c-0.382-0.517-0.793-1.008-1.232-1.471
	c-0.44-0.462-0.965-0.842-1.576-1.139c0.191-0.407,0.391-0.786,0.602-1.139c0.21-0.351,0.391-0.73,0.545-1.138
	c0.803,0.075,1.681,0.093,2.636,0.056c0.955-0.037,1.9-0.074,2.837-0.111c0.936-0.037,1.814-0.019,2.636,0.055
	c0.821,0.075,1.519,0.278,2.092,0.611c0-0.258,0.115-0.416,0.344-0.471c0.229-0.056,0.468-0.084,0.716-0.084
	c0.248,0,0.477-0.028,0.688-0.084c0.21-0.056,0.295-0.23,0.258-0.527c0.611,0.408,1.356,0.565,2.235,0.471
	c0.878-0.092,1.729-0.175,2.551-0.25c0.821-0.073,1.547,0,2.178,0.223c0.63,0.221,1.022,0.833,1.175,1.831
	c-0.497,0.63-1.07,1.176-1.72,1.639c-0.65,0.463-1.309,0.925-1.977,1.388c-0.669,0.463-1.29,0.963-1.863,1.499
	c-0.573,0.536-1.051,1.175-1.433,1.915c0.42,1.443,0.697,3.147,0.831,5.108c0.133,1.962,0.201,3.979,0.201,6.051
	c0,2.074-0.049,4.108-0.143,6.107c-0.096,1.998-0.182,3.757-0.258,5.274c0.152,0.889,0.334,1.749,0.545,2.582
	c0.21,0.833,0.516,1.582,0.917,2.248c0.401,0.666,0.946,1.203,1.633,1.61c0.688,0.407,1.585,0.593,2.694,0.555
	c0.076,0.334,0.172,0.676,0.286,1.027c0.115,0.352,0.201,0.694,0.258,1.027c0.058,0.333,0.047,0.666-0.028,1
	c-0.077,0.333-0.249,0.628-0.516,0.888c-2.904-0.407-5.713-0.564-8.426-0.472c-2.713,0.092-5.139,0.25-7.279,0.472
	c0.114-0.26,0.114-0.416,0-0.472c-0.115-0.056-0.258-0.083-0.43-0.083c-0.172,0-0.335,0-0.487,0c-0.153,0-0.229-0.092-0.229-0.278
	c0.115-0.517,0.287-0.971,0.516-1.36c0.229-0.389,0.248-0.972,0.057-1.749c0.84-0.074,1.528-0.258,2.063-0.555
	c0.535-0.296,1.204-0.48,2.006-0.555c-0.115-0.777-0.115-1.471,0-2.082s0.21-1.184,0.287-1.721c0.076-0.536,0.076-1.018,0-1.444
	c-0.077-0.425-0.364-0.841-0.86-1.248c0.611-1.036,0.955-2.156,1.032-3.359c0.076-1.203,0.086-2.433,0.029-3.692
	c-0.058-1.258-0.077-2.535-0.058-3.83c0.019-1.295,0.258-2.535,0.717-3.72c-0.421-0.48-0.688-0.953-0.803-1.416
	c-0.115-0.462-0.153-0.944-0.115-1.443c0.038-0.5,0.105-1.045,0.201-1.638c0.095-0.591,0.143-1.239,0.143-1.943
	c-1.223,0.963-2.159,2.203-2.808,3.719c-0.65,1.518-1.07,3.276-1.261,5.274c-0.765,0.408-1.357,0.953-1.777,1.639
	c-0.421,0.685-0.593,1.637-0.516,2.858c-0.229-0.111-0.382-0.119-0.458-0.027c-0.077,0.093-0.125,0.194-0.143,0.306
	c-0.02,0.111-0.057,0.203-0.115,0.277c-0.057,0.075-0.201,0.075-0.43,0c0,0.815-0.143,1.48-0.43,1.998
	c-0.286,0.519-0.583,1.027-0.888,1.527c-0.306,0.499-0.573,1.036-0.803,1.61c-0.229,0.574-0.306,1.304-0.229,2.193
	c-0.229,0.222-0.487,0.527-0.774,0.916c-0.286,0.389-0.516,0.806-0.688,1.25c-0.172,0.444-0.258,0.898-0.258,1.36
	c0,0.463,0.191,0.879,0.573,1.248c-0.306,1.075-0.64,2.11-1.003,3.11c-0.364,0.998-0.812,1.925-1.347,2.776h-3.496
	c-0.421-2.812-1.051-5.422-1.891-7.828c-0.841-2.405-1.758-4.747-2.751-7.022c-0.994-2.277-2.006-4.544-3.038-6.801
	c-1.032-2.257-1.949-4.608-2.751-7.051h-1.433c-0.421,1.185-0.659,2.443-0.716,3.776c-0.057,1.333-0.057,2.665,0,3.997
	c0.058,1.333,0.105,2.629,0.143,3.887c0.038,1.258-0.058,2.443-0.286,3.553c0.115,0.63,0.496,0.999,1.146,1.11
	c-0.077,0.444-0.096,0.926-0.058,1.444c0.038,0.518,0.066,1.036,0.086,1.554c0.019,0.518-0.01,0.98-0.086,1.388
	c-0.077,0.407-0.249,0.722-0.516,0.944c0.191,0.852,0.611,1.462,1.261,1.833c0.649,0.37,1.308,0.73,1.977,1.082
	c0.668,0.352,1.222,0.825,1.662,1.416c0.439,0.593,0.545,1.499,0.315,2.721c-0.65-0.148-1.109-0.12-1.376,0.083
	c-0.268,0.203-0.593,0.361-0.974,0.472c-0.153-0.222-0.516-0.397-1.089-0.528c-0.573-0.129-1.175-0.194-1.805-0.194
	c-0.63,0-1.232,0.066-1.805,0.194c-0.573,0.131-0.937,0.306-1.089,0.528c-0.459-0.334-0.994-0.49-1.605-0.472
	c-0.611,0.02-1.252,0.075-1.92,0.167c-0.669,0.092-1.347,0.148-2.034,0.166c-0.688,0.018-1.357-0.121-2.006-0.416
	c-0.153-1.221,0.028-2.119,0.545-2.693c0.516-0.574,1.126-1.055,1.834-1.443c0.707-0.389,1.404-0.796,2.092-1.221
	c0.688-0.425,1.146-1.082,1.376-1.971c-0.421-0.851-0.707-1.804-0.86-2.86c-0.153-1.054-0.21-2.127-0.172-3.22
	c0.038-1.09,0.152-2.173,0.344-3.247c0.191-1.074,0.42-2.091,0.688-3.054c-0.192-0.592-0.354-1.36-0.487-2.304
	c-0.134-0.943-0.211-1.915-0.229-2.914c-0.02-0.999,0.019-1.961,0.115-2.887c0.095-0.925,0.295-1.684,0.602-2.276
	c-0.229-0.111-0.401-0.352-0.516-0.721c-0.115-0.37-0.172-0.778-0.172-1.221c0-0.444,0.057-0.861,0.172-1.249
	c0.115-0.389,0.286-0.639,0.516-0.75c-0.994-0.851-1.94-1.767-2.837-2.748c-0.898-0.98-1.901-1.841-3.009-2.582
	c0.191-0.407,0.391-0.785,0.602-1.138c0.21-0.352,0.41-0.73,0.602-1.138c2.866,0.444,5.693,0.713,8.483,0.805
	c2.788,0.093,5.559-0.175,8.311-0.805c0.344,0.815,0.936,1.388,1.777,1.721c-0.459,1.48-1.433,2.406-2.923,2.776
	c-0.115,0.999-0.124,1.887-0.029,2.664c0.095,0.778,0.258,1.491,0.487,2.139c0.229,0.648,0.516,1.239,0.86,1.776
	c0.344,0.538,0.688,1.065,1.032,1.583c-0.229,1.333-0.201,2.387,0.086,3.164c0.286,0.777,0.649,1.491,1.089,2.138
	c0.439,0.648,0.85,1.332,1.233,2.054c0.381,0.721,0.534,1.657,0.458,2.803c0.382,0.297,0.678,0.648,0.889,1.055
	c0.21,0.407,0.41,0.843,0.602,1.305c0.191,0.462,0.391,0.907,0.602,1.332c0.21,0.425,0.487,0.787,0.831,1.082
	c0.917-0.591,1.613-1.378,2.092-2.359c0.477-0.98,0.907-2.017,1.289-3.109c0.382-1.091,0.783-2.155,1.204-3.192
	c0.42-1.035,1.012-1.906,1.777-2.609c-0.077-0.592-0.067-1.101,0.029-1.527c0.095-0.425,0.229-0.813,0.401-1.166
	c0.172-0.351,0.334-0.712,0.487-1.083c0.152-0.369,0.248-0.795,0.287-1.277c0.381,0.075,0.659,0.066,0.831-0.027
	c0.172-0.092,0.324-0.222,0.459-0.389c0.133-0.167,0.267-0.324,0.401-0.472c0.133-0.148,0.334-0.222,0.602-0.222
	c0-0.222-0.048-0.38-0.143-0.471c-0.096-0.093-0.192-0.185-0.286-0.279c-0.096-0.092-0.172-0.203-0.229-0.333
	c-0.057-0.13-0.028-0.342,0.086-0.639c0.267,0,0.459,0.066,0.573,0.194c0.115,0.131,0.219,0.26,0.315,0.389
	c0.095,0.131,0.201,0.26,0.315,0.389C77.039,76.553,77.211,76.617,77.44,76.617z M50.159,88.386v-1.665h-1.72
	C48.325,87.943,48.898,88.497,50.159,88.386z M53.082,73.231c-0.038-0.148-0.038-0.334,0-0.556c0.038-0.222,0.058-0.425,0.058-0.611
	c0-0.184-0.038-0.334-0.115-0.444c-0.077-0.111-0.249-0.147-0.516-0.111c0.038,0.148,0.038,0.333,0,0.555
	c-0.038,0.222-0.058,0.436-0.058,0.639c0,0.204,0.038,0.361,0.115,0.472C52.642,73.286,52.814,73.305,53.082,73.231z"/>
<path fill="#FFFFFF" d="M115.839,81.668c0.267,0.26,0.506,0.408,0.716,0.444c0.21,0.038,0.42,0.029,0.63-0.027
	c0.21-0.056,0.439-0.139,0.688-0.25c0.248-0.111,0.544-0.167,0.888-0.167c1.91,0.408,3.496,1.102,4.757,2.083
	c1.261,0.98,1.986,2.526,2.178,4.635c-0.306,0.592-0.497,1.304-0.573,2.137c-0.077,0.833-0.096,1.703-0.058,2.61
	c0.038,0.907,0.076,1.831,0.115,2.776c0.038,0.944,0.019,1.824-0.057,2.637c-0.306,0.297-0.497,0.713-0.573,1.249
	c-0.077,0.537-0.077,1.138,0,1.804c0.306,0.481,0.659,0.916,1.06,1.305c0.401,0.389,0.774,0.804,1.118,1.248
	c0.344,0.444,0.649,0.926,0.917,1.444c0.267,0.518,0.401,1.166,0.401,1.943c-0.536,0.259-1.232,0.509-2.092,0.75
	s-1.739,0.37-2.636,0.389c-0.898,0.018-1.72-0.092-2.465-0.334c-0.745-0.24-1.252-0.694-1.519-1.361
	c-1.453,0.223-2.837,0.482-4.155,0.778c-1.318,0.297-2.455,0.777-3.41,1.443c-1.07-0.036-1.959-0.259-2.665-0.666
	c-0.707-0.407-1.309-0.907-1.805-1.499c-0.497-0.591-0.937-1.239-1.318-1.943c-0.382-0.703-0.784-1.389-1.204-2.054
	c0.191-0.48,0.306-0.934,0.344-1.36c0.037-0.425,0.047-0.842,0.028-1.249c-0.019-0.407-0.067-0.852-0.143-1.332
	c-0.077-0.481-0.153-1.056-0.229-1.721c0.381-0.185,0.783-0.48,1.204-0.889c0.42-0.407,0.859-0.786,1.318-1.139
	c0.459-0.351,0.936-0.583,1.433-0.694c0.496-0.111,1.032,0.056,1.605,0.499c0.725-0.369,1.652-0.563,2.78-0.583
	c1.126-0.018,2.216-0.074,3.267-0.166c1.05-0.093,1.977-0.306,2.78-0.639c0.803-0.334,1.241-1,1.318-1.999
	c-0.115-0.591-0.258-1.174-0.43-1.748c-0.172-0.573-0.392-1.091-0.659-1.555c-0.268-0.462-0.611-0.851-1.032-1.166
	c-0.421-0.314-0.974-0.508-1.662-0.583c-1.032,0.666-2.141,1.268-3.324,1.804c-1.185,0.537-2.198,1.249-3.038,2.137
	c-0.802-0.036-1.481-0.184-2.034-0.444c-0.555-0.258-1.138-0.499-1.748-0.722c0.955-1.85,2.264-3.376,3.926-4.58
	C112.142,83.714,113.928,82.632,115.839,81.668z M112.343,103.043c0.115,0.185,0.353,0.352,0.716,0.5
	c0.363,0.148,0.783,0.277,1.261,0.389c0.477,0.111,0.983,0.185,1.519,0.221c0.534,0.038,1.012,0.038,1.433,0
	c1.108-0.407,1.872-1.128,2.293-2.165c0.42-1.035,0.534-2.387,0.344-4.053c-0.955-0.334-1.948-0.508-2.98-0.528
	c-1.032-0.018-1.949,0.167-2.751,0.556c-0.803,0.389-1.395,0.991-1.777,1.804C112.018,100.582,111.999,101.674,112.343,103.043z"/>
<path fill="#FFFFFF" d="M166.281,104.873c0.344,0.222,0.697,0.425,1.06,0.611c0.363,0.185,0.688,0.408,0.974,0.666
	c0.286,0.26,0.516,0.575,0.688,0.944c0.172,0.37,0.238,0.852,0.201,1.443c-0.382,0.111-0.86,0.269-1.433,0.472
	c-0.573,0.203-1.156,0.379-1.748,0.527c-0.593,0.148-1.175,0.203-1.748,0.166c-0.573-0.037-1.051-0.241-1.433-0.611
	c-0.382,0.333-0.784,0.518-1.204,0.556c-0.421,0.036-0.86,0.018-1.318-0.056c-0.459-0.075-0.917-0.176-1.376-0.306
	c-0.459-0.13-0.917-0.194-1.376-0.194v-2.776c0.381-0.074,0.697-0.203,0.946-0.389c0.248-0.185,0.487-0.37,0.716-0.556
	c0.229-0.184,0.487-0.361,0.774-0.527c0.286-0.166,0.639-0.25,1.06-0.25c0.152-1.184-0.039-2.128-0.573-2.831
	c0.344-0.48,0.545-1.101,0.602-1.86c0.058-0.758,0.076-1.563,0.058-2.415c-0.02-0.851-0.058-1.712-0.115-2.582
	c-0.058-0.869-0.049-1.673,0.029-2.414c-0.382-0.889-0.898-1.657-1.548-2.304c-0.65-0.648-1.299-1.286-1.948-1.916h-2.866
	c-0.421,0.222-0.88,0.408-1.376,0.556c-0.497,0.148-1.003,0.297-1.519,0.444c-0.516,0.148-1.003,0.315-1.461,0.499
	c-0.458,0.186-0.86,0.444-1.203,0.777c-0.306,0.519-0.583,1.082-0.831,1.693c-0.249,0.61-0.641,1.083-1.175,1.416
	c0.037,0.63,0.105,1.296,0.201,1.998c0.095,0.703,0.162,1.435,0.201,2.193c0.038,0.759,0.038,1.527,0,2.304
	c-0.038,0.777-0.172,1.518-0.401,2.221c0.152,0.704,0.449,1.269,0.888,1.693c0.439,0.426,0.889,0.833,1.347,1.221
	c0.459,0.389,0.879,0.824,1.261,1.304c0.381,0.482,0.573,1.129,0.573,1.943c-0.955,0.48-1.854,0.777-2.694,0.888
	c-0.841,0.111-1.691,0.139-2.551,0.084c-0.86-0.055-1.758-0.148-2.694-0.278c-0.937-0.13-1.977-0.176-3.124-0.139
	c-0.038-0.555,0.019-1.036,0.172-1.443c0.152-0.407,0.344-0.768,0.573-1.083c0.229-0.315,0.487-0.602,0.774-0.861
	c0.286-0.258,0.563-0.536,0.831-0.833c-0.153-0.778-0.172-1.684-0.058-2.721c0.115-1.036,0.238-2.137,0.373-3.303
	c0.133-1.166,0.248-2.378,0.344-3.637c0.095-1.258,0.066-2.535-0.086-3.83c-0.611-0.518-1.156-1.064-1.633-1.638
	c-0.478-0.574-1.099-1.063-1.863-1.471c0.152-0.333,0.324-0.629,0.516-0.889c0.19-0.258,0.21-0.702,0.057-1.332
	c0.878-0.037,1.605-0.231,2.178-0.583c0.573-0.352,1.127-0.712,1.662-1.083c0.534-0.37,1.126-0.684,1.777-0.944
	c0.649-0.259,1.49-0.333,2.522-0.222c-0.115,0.444-0.086,0.74,0.086,0.888c0.172,0.149,0.334,0.316,0.487,0.5
	c0.115,0.297,0.124,0.5,0.029,0.611c-0.096,0.111-0.201,0.204-0.315,0.278c-0.115,0.075-0.21,0.166-0.286,0.277
	c-0.077,0.111-0.077,0.297,0,0.556c0.076,0.185,0.238,0.269,0.487,0.25c0.248-0.018,0.487-0.009,0.716,0.027
	c0.764-0.48,1.509-0.971,2.235-1.471c0.725-0.499,1.509-0.952,2.35-1.36c0.84-0.407,1.777-0.721,2.808-0.943
	c1.032-0.222,2.235-0.278,3.611-0.166c0.649,0.185,1.204,0.453,1.662,0.804c0.459,0.352,0.869,0.741,1.232,1.166
	c0.363,0.425,0.726,0.87,1.089,1.332c0.363,0.464,0.774,0.861,1.232,1.194c0.382,1.443,0.545,2.906,0.487,4.385
	c-0.058,1.48-0.143,2.97-0.258,4.469c-0.115,1.499-0.192,2.989-0.229,4.469C165.669,101.968,165.86,103.429,166.281,104.873z"/>
<path fill="#FFFFFF" d="M206.462,68.61c0.038,0.259,0.038,0.546,0,0.86c-0.038,0.315,0.152,0.398,0.573,0.25
	c-0.459,0.962-0.774,2.063-0.946,3.303c-0.172,1.241-0.306,2.527-0.401,3.859c-0.096,1.332-0.201,2.647-0.315,3.942
	c-0.115,1.295-0.344,2.48-0.688,3.553c0.42,1.074,0.611,2.129,0.573,3.164c-0.038,1.037-0.106,2.027-0.201,2.971
	c-0.096,0.943-0.124,1.852-0.086,2.721c0.037,0.87,0.344,1.657,0.917,2.359c-0.192,0.593-0.306,1.184-0.344,1.776
	c-0.038,0.593-0.057,1.194-0.057,1.804c0,0.611,0,1.25,0,1.916c0,0.666-0.058,1.37-0.172,2.11c0.459,0.63,1.137,1.046,2.035,1.248
	c0.897,0.205,1.958,0.25,3.181,0.139c0.611,1.148,0.707,2.036,0.286,2.665c-0.421,0.63-1.117,1.092-2.092,1.388
	c-0.974,0.297-2.092,0.462-3.353,0.499s-2.446,0.019-3.553-0.055c0-0.258-0.086-0.453-0.258-0.583
	c-0.172-0.13-0.344-0.25-0.516-0.361c-0.172-0.111-0.306-0.259-0.401-0.444c-0.096-0.185-0.106-0.462-0.029-0.833
	c-1.529,0.075-2.866,0.324-4.012,0.749c-1.146,0.426-2.216,0.916-3.21,1.471c-0.611,0.111-1.146,0.148-1.605,0.111
	c-0.459-0.037-0.898-0.102-1.318-0.194c-0.421-0.092-0.841-0.184-1.261-0.277c-0.421-0.092-0.86-0.157-1.318-0.194
	c-0.573-0.666-1.233-1.249-1.978-1.748c-0.745-0.5-1.442-1.046-2.092-1.639c-0.229-0.813-0.497-1.582-0.802-2.304
	c-0.306-0.721-0.822-1.267-1.547-1.637c-0.077-0.592-0.086-1.23-0.029-1.916c0.057-0.684,0.086-1.36,0.086-2.026
	c0-0.666-0.038-1.295-0.115-1.888c-0.077-0.592-0.249-1.073-0.516-1.443c0.115-0.63,0.496-1,1.146-1.111
	c0.152-1.849,0.678-3.459,1.576-4.83c0.897-1.369,2.064-2.451,3.496-3.247s3.075-1.277,4.929-1.444
	c1.853-0.166,3.849-0.008,5.989,0.472c0.382-0.222,0.688-0.528,0.917-0.916s0.592-0.639,1.089-0.749
	c0.038-0.814,0.038-1.665,0-2.553c-0.038-0.889,0.152-1.536,0.573-1.943c-0.192-0.591-0.536-1.017-1.032-1.276
	c-0.497-0.259-1.032-0.48-1.605-0.667c-0.573-0.184-1.109-0.416-1.605-0.694c-0.497-0.278-0.822-0.712-0.974-1.305
	c0.42-0.702,0.955-1.267,1.605-1.693c0.649-0.425,1.566-0.601,2.751-0.527c0.382-0.37,0.793-0.74,1.232-1.111
	c0.439-0.37,0.917-0.694,1.433-0.972c0.516-0.277,1.098-0.489,1.748-0.639C204.819,68.573,205.583,68.536,206.462,68.61z
	 M189.612,88.262c-0.306,0.444-0.65,0.87-1.032,1.276c-0.382,0.408-0.745,0.833-1.089,1.277c-0.344,0.444-0.641,0.916-0.889,1.416
	c-0.249,0.5-0.411,1.065-0.487,1.694c-0.039,0.444-0.02,0.971,0.057,1.581c0.076,0.611,0.172,1.221,0.286,1.833
	c0.115,0.61,0.248,1.166,0.401,1.666c0.152,0.499,0.287,0.86,0.402,1.082c0.344,0.555,0.782,1.027,1.318,1.416
	c0.535,0.389,1.108,0.731,1.72,1.027c0.611,0.297,1.241,0.565,1.891,0.805c0.649,0.241,1.241,0.472,1.777,0.694
	c1.872-0.296,3.324-0.98,4.356-2.054c1.032-1.073,1.795-2.443,2.292-4.108c-0.192-0.148-0.315-0.342-0.373-0.583
	c-0.057-0.241-0.105-0.49-0.143-0.75c-0.038-0.258-0.096-0.499-0.172-0.721c-0.077-0.222-0.229-0.389-0.458-0.5
	c0.305-0.295,0.506-0.702,0.602-1.221c0.095-0.518,0.115-1.072,0.058-1.666c-0.058-0.591-0.153-1.156-0.287-1.693
	c-0.134-0.536-0.258-0.971-0.372-1.304c-0.726,0.037-1.232-0.139-1.519-0.528c-0.286-0.389-0.545-0.786-0.773-1.193
	c-0.803-0.185-1.529-0.306-2.178-0.361c-0.65-0.055-1.261-0.055-1.834,0c-0.573,0.056-1.146,0.167-1.72,0.334
	C190.873,87.846,190.261,88.04,189.612,88.262z"/>
<path fill="#FFFFFF" d="M232.769,81.58c0.305,0.333,0.487,0.805,0.544,1.416c0.058,0.611,0.066,1.268,0.029,1.971
	c-0.344,0-0.64,0.037-0.888,0.111c-0.249,0.075-0.478,0.175-0.688,0.305c-0.21,0.13-0.421,0.26-0.63,0.389
	c-0.21,0.131-0.449,0.232-0.716,0.306c0.115,1.518,0.344,2.925,0.688,4.22c0.344,1.295,0.764,2.507,1.261,3.635
	c0.496,1.129,1.051,2.203,1.662,3.22c0.611,1.019,1.241,2.009,1.891,2.971c0.305-0.222,0.563-0.508,0.773-0.861
	c0.21-0.351,0.42-0.694,0.63-1.027c0.21-0.333,0.449-0.639,0.717-0.916c0.267-0.277,0.63-0.453,1.089-0.527
	c0.115-1.074,0.439-2.156,0.974-3.248c0.534-1.091,0.974-2.137,1.318-3.136c0.344-0.999,0.402-1.924,0.172-2.776
	c-0.229-0.851-1.051-1.554-2.465-2.11c0.115-0.444,0.124-0.785,0.029-1.027c-0.096-0.239-0.201-0.462-0.315-0.666
	c-0.115-0.203-0.22-0.425-0.315-0.666c-0.096-0.241-0.086-0.584,0.029-1.027c1.337-0.111,2.522-0.195,3.553-0.25
	c1.032-0.056,2.044-0.102,3.038-0.139c0.993-0.036,2.015-0.064,3.066-0.084c1.051-0.018,2.283-0.045,3.697-0.083
	c0.305,0.777,0.459,1.425,0.459,1.943c0,0.52-0.153,1.185-0.459,1.998c-1.453,0.111-2.608,0.491-3.467,1.139
	c-0.86,0.648-1.576,1.453-2.149,2.416c-0.573,0.962-1.041,2.017-1.404,3.164c-0.364,1.148-0.736,2.276-1.118,3.386
	c-0.765,0.519-1.318,1.249-1.662,2.193c-0.344,0.944-0.659,1.907-0.946,2.887c-0.286,0.98-0.65,1.896-1.089,2.748
	c-0.44,0.852-1.137,1.443-2.092,1.776c0.076,1.074,0,2.018-0.229,2.831c-0.229,0.814-0.726,1.369-1.49,1.666
	c-0.726,2.628-1.729,4.95-3.009,6.967c-1.281,2.017-2.799,3.803-4.557,5.358h-2.35c-0.306,0.074-0.468,0.008-0.487-0.194
	c-0.02-0.204-0.143-0.325-0.372-0.361c-1.07,0.556-2.522,0.74-4.356,0.556c-0.459-0.925-0.602-1.731-0.43-2.415
	c0.172-0.686,0.563-1.249,1.175-1.693c0.611-0.444,1.385-0.749,2.321-0.916c0.936-0.166,1.958-0.176,3.066-0.028
	c0.764-0.333,1.394-0.814,1.891-1.443c0.496-0.63,0.955-1.287,1.376-1.971c0.42-0.685,0.84-1.37,1.261-2.054
	c0.42-0.685,0.936-1.286,1.547-1.804c-0.038-0.63-0.115-1.193-0.229-1.693c-0.115-0.5-0.258-0.99-0.43-1.471
	c-0.172-0.48-0.354-0.98-0.544-1.499c-0.192-0.518-0.364-1.129-0.516-1.832c-0.115-0.48-0.393-0.916-0.831-1.304
	c-0.44-0.389-0.755-0.806-0.946-1.25c-0.115-0.295-0.124-0.619-0.028-0.971c0.095-0.351,0.105-0.675,0.028-0.971
	c-0.115-0.444-0.382-0.869-0.802-1.277c-0.421-0.407-0.726-0.833-0.917-1.277c-0.077-0.184-0.077-0.471,0-0.86
	c0.076-0.389,0.076-0.75,0-1.083c-0.077-0.296-0.278-0.556-0.602-0.777c-0.325-0.222-0.525-0.425-0.602-0.611
	c-0.115-0.407-0.182-0.814-0.201-1.221c-0.02-0.407-0.048-0.823-0.086-1.249c-0.038-0.425-0.115-0.833-0.229-1.221
	c-0.115-0.389-0.325-0.768-0.63-1.139c-0.038-0.184-0.182-0.268-0.43-0.25c-0.249,0.02-0.487,0.011-0.716-0.027
	c-0.115-0.556-0.382-0.989-0.803-1.305c-0.421-0.314-0.859-0.601-1.318-0.861c-0.459-0.258-0.88-0.555-1.261-0.888
	c-0.382-0.334-0.612-0.814-0.688-1.443c0.114-0.518,0.429-0.851,0.946-1c0.516-0.147,1.098-0.212,1.748-0.194
	c0.649,0.02,1.337,0.066,2.063,0.139c0.726,0.075,1.376,0.055,1.949-0.055c0.115-0.37,0.391-0.556,0.831-0.556
	c0.439,0,0.735,0.185,0.889,0.556c0.114-0.259,0.305-0.425,0.573-0.5c0.267-0.074,0.592-0.111,0.974-0.111
	c0.381,0,0.764,0.02,1.146,0.056C232.061,81.617,232.425,81.617,232.769,81.58z"/>
<path fill="#FFFFFF" d="M350.621,68.715c0.803,1.332,1.5,2.767,2.092,4.302c0.592,1.536,1.165,3.1,1.72,4.692
	c0.553,1.591,1.118,3.164,1.691,4.719c0.573,1.554,1.261,2.998,2.064,4.33c-0.193,0.334-0.364,0.676-0.516,1.027
	c-0.154,0.352-0.173,0.843-0.058,1.471c0.229,0.111,0.381,0.288,0.459,0.527c0.076,0.242,0.305,0.343,0.687,0.306
	c-0.038,0.63,0.019,1.157,0.173,1.583c0.152,0.425,0.315,0.851,0.487,1.276c0.173,0.425,0.325,0.879,0.459,1.361
	c0.134,0.481,0.143,1.054,0.029,1.721c0.229,0.111,0.401,0.297,0.515,0.555c0.115,0.259,0.22,0.519,0.316,0.777
	c0.095,0.26,0.21,0.5,0.344,0.722c0.134,0.222,0.334,0.37,0.602,0.444c0,1.37,0.23,2.507,0.689,3.414
	c0.458,0.907,1.031,1.712,1.72,2.415c0.687,0.703,1.394,1.379,2.12,2.027c0.725,0.648,1.337,1.416,1.834,2.303
	c-0.421-0.148-0.611-0.064-0.573,0.25c0.038,0.315,0.038,0.602,0,0.861c-1.453-0.111-2.837-0.13-4.155-0.056
	c-1.318,0.075-2.589,0.158-3.811,0.25s-2.427,0.148-3.611,0.166c-1.185,0.018-2.369-0.102-3.553-0.361
	c-0.077-0.444-0.068-0.814,0.029-1.111c0.095-0.296,0.21-0.564,0.344-0.805c0.134-0.24,0.287-0.472,0.459-0.694
	c0.173-0.221,0.295-0.48,0.373-0.777h1.432c0.688-0.592,1.09-1.341,1.204-2.248c0.114-0.907,0.047-1.85-0.201-2.831
	c-0.249-0.98-0.611-1.924-1.088-2.831c-0.479-0.907-0.927-1.638-1.346-2.193c-0.459,0.037-0.946,0.037-1.462,0
	c-0.515-0.036-1.013-0.056-1.49-0.056c-0.478,0-0.917,0.047-1.318,0.139c-0.401,0.093-0.716,0.25-0.945,0.472
	c0-0.37-0.124-0.591-0.372-0.666c-0.25-0.074-0.43-0.221-0.545-0.444c-0.421,0.075-0.85,0.194-1.289,0.361
	c-0.44,0.166-0.88,0.305-1.318,0.416c-0.44,0.111-0.86,0.176-1.261,0.194c-0.402,0.02-0.755-0.119-1.06-0.416
	c-0.459,0.111-0.812,0.333-1.06,0.666c-0.249,0.333-0.478,0.676-0.688,1.027c-0.21,0.352-0.44,0.694-0.688,1.027
	c-0.249,0.333-0.602,0.556-1.06,0.666c-0.268,0.666-0.364,1.324-0.287,1.971c0.076,0.648,0.143,1.277,0.201,1.888
	c0.057,0.611,0.037,1.175-0.058,1.693c-0.096,0.518-0.43,0.999-1.003,1.443c0.458,0.111,0.859,0.148,1.203,0.111
	c0.344-0.036,0.678-0.064,1.003-0.083c0.324-0.018,0.678-0.018,1.06,0c0.381,0.019,0.84,0.102,1.376,0.25
	c-0.306,0.333-0.487,0.804-0.545,1.416c-0.058,0.61-0.067,1.268-0.029,1.971c-0.994-0.334-2.083-0.528-3.267-0.584
	c-1.185-0.055-2.388-0.045-3.611,0.029c-1.223,0.074-2.436,0.175-3.639,0.305c-1.204,0.129-2.341,0.213-3.41,0.25v-4.497
	c0.917-0.074,1.767-0.231,2.551-0.472c0.783-0.24,1.433-0.592,1.949-1.054c0.516-0.462,0.897-1.074,1.146-1.833
	c0.248-0.758,0.295-1.693,0.143-2.803c1.184-1.147,2.053-2.562,2.608-4.247c0.553-1.684,1.041-3.47,1.461-5.358
	c0.955-0.962,1.652-2.166,2.092-3.608c0.439-1.443,0.716-3.054,0.831-4.83c0.611-0.666,1.098-1.462,1.461-2.387
	c0.363-0.925,0.697-1.86,1.003-2.803c0.305-0.944,0.659-1.86,1.06-2.748c0.402-0.889,0.965-1.61,1.691-2.165v-1.666
	C346.896,68.881,348.444,68.493,350.621,68.715z M337.267,105.856c-0.077-0.222-0.067-0.37,0.029-0.444
	c0.095-0.074,0.201-0.139,0.315-0.194c0.115-0.055,0.21-0.129,0.286-0.222c0.076-0.092,0.058-0.268-0.057-0.527
	c-0.192-0.111-0.354-0.259-0.487-0.444c-0.134-0.185-0.278-0.361-0.43-0.527c-0.153-0.167-0.335-0.297-0.544-0.389
	c-0.211-0.093-0.487-0.12-0.831-0.084c-0.153,0.889-0.038,1.518,0.344,1.889C336.273,105.283,336.732,105.597,337.267,105.856z
	 M343.056,92.92c0.764-0.369,1.538-0.563,2.321-0.583c0.783-0.018,1.566,0.02,2.35,0.111c0.783,0.093,1.566,0.157,2.35,0.194
	c0.783,0.037,1.537-0.056,2.264-0.278c-0.077-1.111-0.048-2.118,0.086-3.026c0.134-0.907,0.505-1.582,1.118-2.026
	c-0.995-0.074-1.768-0.361-2.321-0.861c-0.555-0.499-0.975-1.119-1.261-1.86c-0.288-0.74-0.498-1.563-0.631-2.471
	c-0.134-0.906-0.278-1.804-0.429-2.692h-1.777c-0.267,1.185-0.612,2.295-1.032,3.331c-0.421,1.036-0.84,2.082-1.261,3.137
	c-0.421,1.054-0.802,2.147-1.146,3.276C343.342,90.303,343.132,91.551,343.056,92.92z M352.685,85.037
	c0.114-0.037,0.201-0.175,0.257-0.416c0.058-0.24,0.076-0.48,0.058-0.721c-0.019-0.241-0.106-0.425-0.258-0.556
	c-0.153-0.13-0.382-0.12-0.688,0.028c-0.114,0.037-0.21,0.176-0.286,0.416c-0.078,0.241-0.096,0.482-0.058,0.721
	c0.037,0.241,0.134,0.426,0.286,0.556C352.149,85.194,352.379,85.185,352.685,85.037z M354.691,87.868h0.573v-1.111h-0.573V87.868z
	 M354.691,91.81c0.649-0.111,1.032-0.48,1.146-1.111C355.187,90.81,354.806,91.181,354.691,91.81z M354.691,96.307
	c0.955-0.148,1.337-0.907,1.146-2.276c-0.229,0.111-0.372,0.12-0.429,0.028c-0.058-0.092-0.106-0.194-0.144-0.306
	s-0.086-0.203-0.143-0.277c-0.058-0.074-0.201-0.074-0.43,0V96.307z"/>
<path fill="#FFFFFF" d="M386.596,98.908c-0.382,0.37-0.593,0.833-0.63,1.389c-0.039,0.555,0.019,1.12,0.172,1.693
	c0.152,0.575,0.334,1.139,0.545,1.693c0.209,0.555,0.372,1.019,0.487,1.388c2.598-0.258,3.763,0.87,3.497,3.387
	c-0.65,0.111-1.032,0.481-1.147,1.11c-0.764,0-1.586-0.065-2.464-0.194c-0.879-0.13-1.748-0.24-2.608-0.333
	c-0.86-0.092-1.701-0.12-2.522-0.084c-0.822,0.037-1.577,0.242-2.264,0.611c-0.267-0.038-0.507-0.12-0.717-0.25
	c-0.21-0.129-0.421-0.258-0.63-0.389c-0.211-0.13-0.439-0.24-0.688-0.333c-0.249-0.092-0.544-0.139-0.888-0.139v-2.831
	c1.528-0.37,2.569-1.092,3.124-2.166c0.553-1.073,0.85-2.276,0.888-3.608s-0.048-2.702-0.257-4.108
	c-0.211-1.407-0.296-2.61-0.258-3.608c0.382-0.185,0.582-0.564,0.602-1.139c0.019-0.574,0-1.175-0.058-1.804
	c-0.058-0.629-0.078-1.23-0.058-1.804c0.019-0.574,0.238-0.953,0.659-1.139c-0.229-0.998-0.354-2.118-0.373-3.358
	c-0.019-1.239-0.124-2.424-0.315-3.553c-0.192-1.129-0.564-2.128-1.117-2.998c-0.555-0.869-1.5-1.416-2.837-1.638v-2.221
	c1.605-0.962,3.295-1.841,5.072-2.637c1.777-0.796,3.563-1.619,5.359-2.471c0.229-0.074,0.382-0.074,0.459,0
	c0.076,0.075,0.124,0.166,0.143,0.277c0.019,0.111,0.058,0.213,0.115,0.305c0.058,0.093,0.201,0.083,0.43-0.028
	c0,1.555-0.192,3.053-0.573,4.497c-0.382,1.443-0.745,2.878-1.09,4.303c-0.344,1.425-0.572,2.878-0.687,4.358
	c-0.115,1.481,0.095,3.017,0.63,4.608c-0.229,0.815-0.401,1.805-0.515,2.971c-0.115,1.166-0.173,2.369-0.173,3.608
	c0,1.241,0.058,2.452,0.173,3.636C386.195,97.094,386.367,98.094,386.596,98.908z"/>
<path fill="#FFFFFF" d="M410.949,98.122c-0.382,0.37-0.592,0.833-0.63,1.389c-0.038,0.555,0.019,1.12,0.172,1.693
	c0.152,0.575,0.334,1.139,0.544,1.693c0.21,0.555,0.373,1.019,0.487,1.388c2.598-0.258,3.763,0.87,3.496,3.387
	c-0.65,0.111-1.031,0.481-1.146,1.11c-0.765,0-1.586-0.065-2.464-0.194c-0.88-0.13-1.748-0.24-2.608-0.333
	c-0.86-0.092-1.7-0.12-2.522-0.084c-0.822,0.037-1.576,0.242-2.264,0.611c-0.268-0.038-0.507-0.12-0.717-0.25
	c-0.211-0.129-0.421-0.258-0.63-0.389c-0.21-0.13-0.44-0.24-0.687-0.333c-0.25-0.092-0.545-0.139-0.889-0.139v-2.831
	c1.528-0.37,2.57-1.092,3.124-2.166c0.553-1.073,0.85-2.276,0.889-3.608c0.037-1.333-0.048-2.702-0.258-4.108
	c-0.211-1.407-0.297-2.61-0.258-3.608c0.382-0.185,0.582-0.564,0.602-1.139c0.019-0.574,0-1.175-0.058-1.804
	c-0.057-0.629-0.076-1.23-0.057-1.804c0.019-0.574,0.238-0.953,0.658-1.139c-0.229-0.998-0.353-2.118-0.372-3.358
	c-0.02-1.239-0.124-2.424-0.316-3.553c-0.191-1.129-0.564-2.128-1.118-2.998c-0.554-0.869-1.5-1.416-2.837-1.638v-2.221
	c1.605-0.962,3.296-1.841,5.073-2.637c1.776-0.796,3.562-1.619,5.358-2.471c0.229-0.074,0.382-0.074,0.459,0
	c0.076,0.075,0.124,0.166,0.144,0.277c0.019,0.111,0.057,0.213,0.114,0.305c0.057,0.093,0.201,0.083,0.43-0.028
	c0,1.555-0.192,3.053-0.574,4.497c-0.382,1.443-0.745,2.878-1.088,4.303c-0.344,1.425-0.574,2.878-0.688,4.358
	c-0.114,1.481,0.095,3.017,0.63,4.608c-0.229,0.815-0.401,1.805-0.516,2.971c-0.114,1.166-0.172,2.369-0.172,3.608
	c0,1.241,0.058,2.452,0.172,3.636C410.548,96.309,410.72,97.309,410.949,98.122z"/>
<path fill="#FFFFFF" d="M435.122,81.579c0.305,0.333,0.487,0.805,0.544,1.416s0.066,1.268,0.028,1.971
	c-0.344,0-0.64,0.037-0.888,0.111c-0.249,0.075-0.479,0.175-0.688,0.305c-0.211,0.13-0.421,0.26-0.63,0.389
	c-0.21,0.131-0.449,0.232-0.717,0.306c0.115,1.518,0.344,2.925,0.688,4.22c0.344,1.295,0.764,2.507,1.261,3.635
	c0.497,1.129,1.05,2.203,1.663,3.22c0.61,1.019,1.241,2.009,1.891,2.971c0.305-0.222,0.564-0.508,0.774-0.861
	c0.21-0.351,0.42-0.694,0.63-1.027c0.21-0.333,0.449-0.639,0.717-0.916c0.267-0.277,0.631-0.453,1.089-0.527
	c0.114-1.074,0.439-2.156,0.974-3.248c0.535-1.091,0.975-2.137,1.318-3.136c0.344-0.999,0.401-1.924,0.173-2.776
	c-0.23-0.851-1.052-1.554-2.465-2.11c0.114-0.444,0.124-0.785,0.029-1.027c-0.096-0.239-0.201-0.462-0.316-0.666
	c-0.114-0.203-0.22-0.425-0.315-0.666c-0.096-0.241-0.086-0.584,0.029-1.027c1.337-0.111,2.522-0.195,3.553-0.25
	c1.032-0.056,2.044-0.102,3.037-0.139c0.993-0.036,2.015-0.064,3.067-0.084c1.05-0.018,2.283-0.045,3.696-0.083
	c0.306,0.777,0.459,1.425,0.459,1.943c0,0.52-0.152,1.185-0.459,1.998c-1.452,0.111-2.607,0.491-3.467,1.139
	s-1.577,1.453-2.149,2.416s-1.041,2.017-1.404,3.164c-0.364,1.148-0.736,2.276-1.118,3.386c-0.764,0.519-1.318,1.249-1.662,2.193
	c-0.344,0.943-0.659,1.907-0.946,2.887c-0.286,0.98-0.65,1.896-1.088,2.748c-0.44,0.852-1.138,1.443-2.093,1.776
	c0.076,1.074,0,2.018-0.229,2.831c-0.23,0.814-0.726,1.369-1.491,1.666c-0.726,2.628-1.729,4.95-3.008,6.967
	c-1.281,2.017-2.799,3.803-4.557,5.358h-2.349c-0.306,0.074-0.468,0.008-0.487-0.194c-0.019-0.204-0.143-0.325-0.372-0.361
	c-1.07,0.556-2.522,0.74-4.356,0.556c-0.459-0.925-0.602-1.731-0.429-2.415c0.172-0.686,0.563-1.249,1.175-1.693
	c0.61-0.444,1.385-0.749,2.321-0.916c0.936-0.166,1.958-0.176,3.067-0.028c0.763-0.333,1.394-0.814,1.891-1.443
	c0.496-0.63,0.955-1.287,1.376-1.971c0.42-0.685,0.84-1.37,1.261-2.054c0.42-0.685,0.936-1.286,1.547-1.804
	c-0.038-0.63-0.114-1.193-0.229-1.693c-0.115-0.5-0.258-0.99-0.431-1.471c-0.171-0.48-0.353-0.98-0.544-1.499
	c-0.191-0.518-0.364-1.129-0.515-1.832c-0.114-0.48-0.393-0.916-0.831-1.304c-0.44-0.389-0.756-0.806-0.946-1.25
	c-0.114-0.295-0.124-0.619-0.029-0.971c0.095-0.351,0.105-0.675,0.029-0.971c-0.114-0.444-0.382-0.869-0.802-1.277
	c-0.421-0.407-0.727-0.833-0.917-1.277c-0.078-0.184-0.078-0.471,0-0.86c0.076-0.389,0.076-0.75,0-1.083
	c-0.078-0.296-0.278-0.556-0.602-0.777c-0.325-0.222-0.526-0.425-0.602-0.611c-0.114-0.407-0.182-0.814-0.201-1.221
	c-0.019-0.407-0.048-0.823-0.086-1.249c-0.038-0.425-0.114-0.833-0.229-1.221c-0.115-0.389-0.325-0.768-0.631-1.139
	c-0.038-0.184-0.182-0.268-0.429-0.25c-0.249,0.02-0.487,0.011-0.717-0.027c-0.115-0.556-0.382-0.989-0.802-1.305
	c-0.421-0.314-0.86-0.601-1.318-0.861c-0.459-0.258-0.88-0.555-1.261-0.888c-0.382-0.334-0.612-0.814-0.687-1.443
	c0.113-0.518,0.429-0.851,0.945-1c0.516-0.147,1.098-0.212,1.748-0.194c0.65,0.02,1.337,0.066,2.063,0.139
	c0.726,0.075,1.376,0.055,1.95-0.055c0.114-0.37,0.391-0.556,0.83-0.556c0.439,0,0.735,0.185,0.889,0.556
	c0.113-0.259,0.305-0.425,0.572-0.5c0.267-0.074,0.592-0.111,0.975-0.111c0.381,0,0.763,0.02,1.146,0.056
	C434.413,81.617,434.777,81.617,435.122,81.579z"/>
<g>
	<path fill="#FFFFFF" d="M351.45,155.245c0.016,0.277,0.016,0.578,0,0.903c-0.016,0.326-0.025,0.647-0.025,0.965
		c0,0.318,0.012,0.615,0.037,0.891c0.024,0.277,0.102,0.513,0.232,0.708c-0.082,0.163-0.13,0.358-0.147,0.586
		c-0.016,0.228-0.053,0.439-0.11,0.635c-0.057,0.195-0.159,0.346-0.305,0.452c-0.147,0.106-0.375,0.126-0.684,0.061
		c-0.082-0.163-0.155-0.337-0.22-0.525c-0.065-0.187-0.139-0.362-0.22-0.525c-0.082-0.163-0.183-0.305-0.305-0.427
		c-0.122-0.122-0.281-0.207-0.476-0.256c-0.049-0.456-0.244-0.773-0.586-0.952c-0.342-0.179-0.745-0.277-1.209-0.293
		c-0.464-0.016-0.948,0.012-1.453,0.085c-0.505,0.073-0.952,0.126-1.343,0.159c-0.131,0.195-0.253,0.403-0.366,0.622
		c-0.114,0.22-0.232,0.431-0.354,0.635c-0.122,0.204-0.253,0.399-0.391,0.586c-0.139,0.188-0.305,0.354-0.501,0.501
		c0.26,0.163,0.455,0.391,0.586,0.684c0.13,0.293,0.272,0.574,0.427,0.843c0.154,0.268,0.358,0.492,0.61,0.671
		c0.252,0.18,0.623,0.236,1.111,0.171c0.83,0.798,1.986,1.286,3.467,1.465c0.016,0.131,0.061,0.232,0.134,0.305
		c0.073,0.073,0.15,0.143,0.232,0.208c0.081,0.065,0.159,0.134,0.232,0.207c0.073,0.073,0.118,0.167,0.134,0.281
		c0.342-0.049,0.594-0.008,0.757,0.122c0.163,0.13,0.297,0.285,0.403,0.464c0.106,0.18,0.211,0.358,0.317,0.537
		c0.106,0.18,0.272,0.302,0.501,0.366c-0.016,0.277,0.004,0.513,0.061,0.708c0.057,0.195,0.13,0.379,0.22,0.55
		c0.089,0.171,0.179,0.342,0.269,0.513c0.089,0.171,0.159,0.362,0.208,0.574c0.016,0.179,0.004,0.318-0.037,0.415
		c-0.041,0.098-0.077,0.179-0.11,0.244c-0.033,0.065-0.045,0.13-0.037,0.195c0.008,0.065,0.069,0.155,0.183,0.268
		c-0.13,0-0.212,0.045-0.244,0.134c-0.033,0.09-0.045,0.199-0.036,0.329c0.008,0.13,0.02,0.265,0.036,0.403
		c0.016,0.139,0.016,0.257,0,0.354c-0.375,0.293-0.688,0.643-0.94,1.05c-0.253,0.407-0.517,0.798-0.794,1.172
		c-0.375,0.049-0.729,0.11-1.062,0.183c-0.334,0.073-0.558,0.265-0.671,0.574c-0.065-0.065-0.175-0.102-0.33-0.11
		c-0.155-0.008-0.317,0-0.488,0.025c-0.171,0.024-0.342,0.065-0.513,0.122c-0.171,0.057-0.305,0.126-0.403,0.207
		c-0.44-0.049-0.949-0.09-1.526-0.122c-0.578-0.033-1.184-0.053-1.819-0.061c-0.635-0.008-1.282,0-1.941,0.025
		c-0.659,0.025-1.29,0.077-1.892,0.159c-0.082-0.423-0.122-0.862-0.122-1.318c0-0.456,0.008-0.919,0.025-1.392
		c0.016-0.472,0.02-0.956,0.012-1.453c-0.008-0.496-0.061-1.005-0.159-1.526c0.147-0.146,0.354-0.228,0.622-0.244
		c0.269-0.016,0.557-0.016,0.867,0c-0.033,0.31,0.037,0.525,0.208,0.647c0.171,0.122,0.346,0.232,0.525,0.33
		c0.065,0.668,0.277,1.196,0.635,1.587c0.358,0.391,0.806,0.671,1.343,0.842c0.537,0.171,1.139,0.253,1.807,0.244
		c0.667-0.008,1.343-0.069,2.027-0.183c0.374-0.325,0.736-0.651,1.087-0.977c0.35-0.326,0.606-0.749,0.769-1.27
		c0.032-0.098,0.032-0.159,0-0.183c-0.033-0.025-0.073-0.04-0.122-0.049c-0.049-0.008-0.09-0.029-0.122-0.061
		c-0.033-0.033-0.033-0.098,0-0.195c-0.033-0.098-0.033-0.159,0-0.183c0.032-0.025,0.073-0.045,0.122-0.061
		c0.049-0.016,0.089-0.036,0.122-0.061c0.032-0.025,0.032-0.085,0-0.183c-0.212-0.749-0.598-1.31-1.16-1.685
		c-0.562-0.374-1.25-0.635-2.063-0.781c0-0.113-0.024-0.195-0.073-0.244c-0.049-0.049-0.106-0.093-0.171-0.134
		c-0.065-0.04-0.122-0.086-0.171-0.134c-0.049-0.049-0.073-0.13-0.073-0.244c-1.009-0.179-1.937-0.443-2.784-0.793
		c-0.847-0.35-1.571-0.826-2.173-1.429c0.065-0.179,0.069-0.346,0.012-0.501c-0.057-0.154-0.134-0.301-0.232-0.439
		c-0.098-0.138-0.199-0.281-0.305-0.427c-0.106-0.146-0.175-0.309-0.208-0.488c-0.065-0.309-0.085-0.631-0.061-0.965
		c0.024-0.333,0.081-0.651,0.171-0.952c0.089-0.301,0.211-0.574,0.366-0.818c0.154-0.244,0.329-0.448,0.525-0.61
		c-0.049-0.228-0.061-0.395-0.037-0.501c0.024-0.105,0.073-0.191,0.147-0.257c0.073-0.065,0.175-0.126,0.305-0.183
		c0.13-0.057,0.277-0.15,0.44-0.281c0.162-0.13,0.325-0.272,0.488-0.427c0.163-0.155,0.342-0.297,0.537-0.427
		c0.195-0.13,0.419-0.232,0.671-0.305c0.252-0.073,0.549-0.102,0.891-0.085c0.553-0.098,1.091-0.159,1.612-0.183
		c0.521-0.025,1.05-0.028,1.587-0.012c0.537,0.016,1.091,0.024,1.66,0.024C350.188,155.318,350.798,155.294,351.45,155.245z"/>
	<path fill="#FFFFFF" d="M359.141,156.051c-0.179,1.026-0.334,2.067-0.464,3.125c-0.131,1.058-0.309,2.075-0.537,3.052
		c0.049,0.065,0.102,0.151,0.159,0.256c0.057,0.106,0.089,0.216,0.098,0.33c0.008,0.114-0.004,0.22-0.036,0.317
		c-0.033,0.098-0.106,0.171-0.22,0.22l0.366,0.366c0.244-0.146,0.513-0.317,0.806-0.513c0.293-0.195,0.602-0.374,0.928-0.537
		c0.325-0.163,0.655-0.272,0.989-0.329c0.333-0.057,0.663-0.012,0.989,0.134c0.049-0.081,0.122-0.138,0.22-0.171
		c0.098-0.033,0.203-0.061,0.317-0.086c0.114-0.025,0.223-0.049,0.33-0.073c0.106-0.024,0.191-0.077,0.256-0.159
		c0.293,0.146,0.626,0.326,1.001,0.537c0.374,0.212,0.708,0.456,1.001,0.732c0.293,0.277,0.496,0.598,0.61,0.965
		c0.114,0.366,0.065,0.777-0.146,1.233c-0.033,0.098-0.033,0.159,0,0.183c0.032,0.024,0.073,0.045,0.122,0.061
		c0.049,0.016,0.093,0.036,0.134,0.061c0.04,0.024,0.037,0.085-0.012,0.183c-0.131,0.57-0.224,1.217-0.281,1.941
		c-0.057,0.725-0.041,1.421,0.049,2.088c0.089,0.668,0.264,1.249,0.525,1.746c0.26,0.497,0.659,0.802,1.196,0.916v0.977
		c-0.131-0.049-0.224-0.061-0.281-0.036c-0.057,0.024-0.106,0.057-0.147,0.098c-0.041,0.041-0.082,0.082-0.122,0.122
		c-0.041,0.04-0.102,0.061-0.183,0.061c-0.358-0.098-0.72-0.142-1.087-0.134c-0.366,0.008-0.745,0.025-1.136,0.049
		c-0.391,0.025-0.79,0.037-1.196,0.037c-0.407,0-0.839-0.065-1.294-0.195c0.065-0.147,0.138-0.281,0.22-0.403
		c0.081-0.122,0.089-0.313,0.024-0.574c0.44-0.114,0.757-0.415,0.952-0.904c0.195-0.488,0.313-1.042,0.354-1.66
		c0.04-0.619,0.025-1.249-0.049-1.892c-0.073-0.643-0.159-1.184-0.256-1.624c-0.049-0.114-0.057-0.191-0.024-0.232
		c0.032-0.04,0.073-0.073,0.122-0.098c0.049-0.025,0.089-0.053,0.122-0.086c0.033-0.033,0.04-0.098,0.025-0.195
		c-0.082-0.309-0.257-0.574-0.525-0.794c-0.268-0.22-0.582-0.391-0.94-0.513c-0.358-0.122-0.741-0.187-1.147-0.195
		c-0.407-0.008-0.79,0.041-1.148,0.147c-0.358,0.106-0.668,0.273-0.928,0.5c-0.26,0.228-0.431,0.513-0.513,0.855
		c-0.016,0.537-0.07,1.156-0.159,1.856c-0.09,0.7-0.13,1.371-0.122,2.015c0.008,0.643,0.118,1.205,0.33,1.685
		c0.211,0.48,0.61,0.769,1.196,0.867c0.016,0.114,0.016,0.244,0,0.391c-0.016,0.147,0.065,0.188,0.244,0.122
		c-0.065,0.18-0.147,0.342-0.244,0.488c-0.098,0.147-0.179,0.309-0.244,0.488c-0.668-0.017-1.201-0.029-1.599-0.037
		c-0.399-0.008-0.757-0.016-1.074-0.024c-0.317-0.008-0.643-0.028-0.977-0.061c-0.334-0.033-0.769-0.073-1.306-0.122
		c0-0.26,0.061-0.492,0.183-0.696c0.122-0.203,0.264-0.395,0.427-0.574c0.162-0.179,0.333-0.35,0.513-0.513
		c0.179-0.163,0.321-0.333,0.427-0.513c0.106-0.179,0.162-0.382,0.171-0.611c0.008-0.228-0.069-0.496-0.232-0.806
		c0.114-0.586,0.195-1.241,0.244-1.965c0.049-0.724,0.065-1.465,0.049-2.222c-0.016-0.757-0.053-1.502-0.11-2.234
		c-0.057-0.733-0.118-1.392-0.183-1.978c0.179-0.309,0.26-0.622,0.244-0.94c-0.016-0.317-0.098-0.606-0.244-0.867
		c-0.146-0.26-0.354-0.476-0.623-0.647c-0.269-0.171-0.558-0.264-0.867-0.281c-0.033-0.195-0.029-0.358,0.012-0.488
		c0.04-0.13,0.089-0.248,0.147-0.354c0.057-0.105,0.118-0.207,0.183-0.305c0.065-0.098,0.114-0.211,0.146-0.342
		c0.44-0.016,0.806-0.102,1.099-0.256s0.586-0.313,0.879-0.476c0.293-0.163,0.61-0.301,0.952-0.415
		C358.188,156.01,358.62,155.986,359.141,156.051z"/>
	<path fill="#FFFFFF" d="M375.476,174.144c-0.114-0.13-0.273-0.212-0.476-0.244c-0.204-0.033-0.415-0.057-0.635-0.073
		c-0.22-0.016-0.424-0.049-0.61-0.098c-0.187-0.049-0.314-0.163-0.379-0.342c-0.13-0.033-0.236-0.04-0.317-0.025
		c-0.082,0.016-0.151,0.041-0.208,0.073c-0.057,0.033-0.11,0.069-0.159,0.11c-0.049,0.041-0.114,0.069-0.195,0.085
		c-0.57-0.309-1.095-0.716-1.575-1.221c-0.48-0.504-0.879-1.082-1.196-1.733c-0.317-0.651-0.525-1.371-0.623-2.161
		c-0.098-0.789-0.041-1.64,0.171-2.552c0.098,0.049,0.163,0.053,0.195,0.012c0.032-0.04,0.053-0.086,0.061-0.134
		c0.008-0.049,0.028-0.089,0.061-0.122c0.033-0.032,0.098-0.032,0.195,0c0.244-2.116,1.563-3.19,3.956-3.223
		c0.049-0.163,0.122-0.248,0.22-0.256c0.098-0.008,0.199,0.012,0.305,0.061c0.106,0.049,0.22,0.102,0.342,0.159
		c0.122,0.057,0.24,0.069,0.354,0.036c0.846-0.163,1.599-0.122,2.259,0.122c0.659,0.244,1.225,0.623,1.697,1.136
		c0.472,0.513,0.854,1.123,1.147,1.831c0.293,0.708,0.488,1.453,0.586,2.234c-0.131,1.791-0.619,3.219-1.465,4.285
		C378.34,173.171,377.103,173.851,375.476,174.144z M372.741,164.475c-0.082,0.147-0.155,0.302-0.22,0.464
		c-0.065,0.163-0.143,0.314-0.232,0.452c-0.09,0.138-0.191,0.26-0.305,0.366c-0.114,0.106-0.269,0.175-0.464,0.207
		c0.016,0.505,0.036,1.009,0.061,1.514c0.024,0.505,0.081,0.973,0.171,1.404c0.089,0.432,0.228,0.818,0.415,1.16
		c0.187,0.342,0.46,0.594,0.818,0.757c0.147,0.26,0.37,0.476,0.671,0.647c0.301,0.171,0.631,0.297,0.989,0.378
		c0.358,0.082,0.72,0.11,1.087,0.086c0.366-0.025,0.688-0.11,0.964-0.257c0.195-0.098,0.346-0.224,0.452-0.378
		c0.106-0.155,0.208-0.313,0.305-0.476c0.098-0.163,0.199-0.301,0.305-0.415c0.106-0.114,0.248-0.187,0.427-0.22
		c0.049-0.358,0.061-0.684,0.036-0.977s-0.061-0.578-0.11-0.854s-0.094-0.553-0.134-0.83c-0.041-0.277-0.053-0.578-0.037-0.904
		c-0.114-0.342-0.273-0.63-0.476-0.867c-0.204-0.236-0.432-0.452-0.684-0.647c-0.253-0.195-0.513-0.378-0.781-0.55
		c-0.269-0.171-0.525-0.354-0.769-0.549c-0.277-0.016-0.501,0.012-0.671,0.085c-0.171,0.073-0.342,0.151-0.513,0.232
		c-0.171,0.082-0.354,0.147-0.55,0.195C373.303,164.548,373.05,164.54,372.741,164.475z"/>
	<path fill="#FFFFFF" d="M386.073,162.228c0.081,0.277,0.15,0.578,0.208,0.903c0.057,0.326,0.15,0.603,0.281,0.83
		c0.586-0.228,1.136-0.484,1.648-0.769c0.513-0.284,1.078-0.525,1.697-0.72c1.237,0.163,2.193,0.602,2.869,1.318
		c0.675,0.716,1.16,1.636,1.453,2.759v3.345c-0.146,0.26-0.273,0.55-0.378,0.867c-0.106,0.318-0.22,0.619-0.342,0.904
		c-0.122,0.285-0.277,0.541-0.464,0.769c-0.187,0.228-0.452,0.375-0.794,0.439c0,0.082-0.021,0.143-0.061,0.183
		c-0.041,0.041-0.082,0.082-0.122,0.122c-0.041,0.041-0.073,0.094-0.098,0.159c-0.024,0.065-0.012,0.155,0.037,0.269
		c-0.44,0.244-0.908,0.387-1.404,0.427c-0.497,0.04-0.997,0.028-1.502-0.037c-0.505-0.065-1.005-0.163-1.502-0.293
		c-0.497-0.13-0.964-0.244-1.404-0.342c-0.146,0.082-0.256,0.253-0.33,0.513c-0.073,0.26-0.11,0.545-0.11,0.855
		c0,0.309,0.028,0.602,0.085,0.879c0.057,0.276,0.134,0.472,0.232,0.586c0.016,0.13,0.004,0.22-0.037,0.268
		c-0.041,0.049-0.085,0.098-0.134,0.147c-0.049,0.049-0.09,0.102-0.122,0.159c-0.033,0.057-0.024,0.159,0.024,0.305
		c0.407,0.472,0.814,0.932,1.221,1.379c0.407,0.448,0.912,0.81,1.514,1.087v0.757c-0.716-0.065-1.384-0.065-2.002,0
		c-0.619,0.065-1.205,0.11-1.758,0.134c-0.553,0.024-1.07-0.009-1.55-0.098c-0.48-0.09-0.94-0.314-1.38-0.671
		c0.228-0.277,0.468-0.607,0.72-0.989c0.252-0.383,0.464-0.798,0.635-1.245c0.171-0.448,0.281-0.912,0.329-1.392
		c0.049-0.481-0.016-0.957-0.195-1.429c0.114-0.781,0.224-1.648,0.33-2.601c0.106-0.952,0.15-1.884,0.134-2.796
		c-0.016-0.912-0.13-1.762-0.342-2.552c-0.212-0.789-0.578-1.404-1.099-1.843v-0.611c0.358-0.114,0.659-0.285,0.904-0.513
		c0.244-0.228,0.488-0.46,0.733-0.696c0.244-0.236,0.521-0.431,0.83-0.586C385.136,162.257,385.551,162.196,386.073,162.228z
		 M385.804,166.184c0.016,1.042,0.008,1.909-0.024,2.601c-0.033,0.692-0.106,1.225-0.22,1.599c0.228,0.195,0.399,0.439,0.513,0.732
		c0.114,0.293,0.277,0.546,0.488,0.757c0.391,0.098,0.745,0.151,1.062,0.159c0.317,0.008,0.626,0.004,0.928-0.012
		c0.301-0.016,0.611-0.02,0.928-0.012c0.317,0.008,0.663,0.045,1.038,0.11c0.407-0.244,0.733-0.565,0.977-0.964
		c0.244-0.399,0.419-0.85,0.525-1.355c0.106-0.504,0.155-1.042,0.146-1.612c-0.008-0.569-0.061-1.155-0.159-1.758
		c-0.179-0.113-0.354-0.228-0.525-0.342c-0.171-0.114-0.248-0.326-0.232-0.635c-0.456-0.211-0.94-0.346-1.453-0.403
		c-0.513-0.057-1.018-0.049-1.514,0.024c-0.497,0.073-0.961,0.204-1.392,0.391C386.459,165.651,386.097,165.891,385.804,166.184z"/>
	<path fill="#FFFFFF" d="M399.966,170.774c0.113,0.26,0.248,0.497,0.403,0.708c0.154,0.212,0.321,0.415,0.5,0.611
		c0.179,0.195,0.362,0.383,0.55,0.561c0.187,0.179,0.362,0.375,0.525,0.586c-0.114,0.195-0.249,0.375-0.403,0.537
		c-0.155,0.163-0.305,0.326-0.452,0.488c-0.146,0.163-0.277,0.342-0.391,0.537c-0.114,0.195-0.195,0.423-0.244,0.684
		c-0.277-0.065-0.472-0.057-0.586,0.024c-0.114,0.081-0.253,0.155-0.415,0.22c-0.244-0.082-0.46-0.195-0.647-0.342
		c-0.187-0.147-0.362-0.305-0.525-0.476c-0.163-0.171-0.326-0.338-0.488-0.501c-0.163-0.163-0.35-0.301-0.562-0.415
		c-0.049-0.374-0.008-0.663,0.122-0.867c0.13-0.203,0.281-0.387,0.452-0.55c0.171-0.162,0.33-0.337,0.476-0.525
		c0.147-0.187,0.211-0.452,0.195-0.793c0.13-0.033,0.244-0.081,0.342-0.147c0.098-0.065,0.199-0.13,0.305-0.195
		c0.105-0.065,0.224-0.114,0.354-0.147C399.608,170.742,399.771,170.742,399.966,170.774z"/>
	<path fill="#FFFFFF" d="M415.812,155.636c0.098,0.147,0.256,0.228,0.476,0.244c0.22,0.016,0.452,0.021,0.696,0.012
		c0.244-0.008,0.476-0.004,0.696,0.012s0.378,0.098,0.476,0.244c0.276-0.163,0.598-0.252,0.964-0.268
		c0.366-0.016,0.736,0,1.111,0.049c0.374,0.049,0.736,0.122,1.087,0.22c0.35,0.098,0.655,0.18,0.915,0.244
		c0.147-0.065,0.277-0.146,0.391-0.244c0.113-0.098,0.232-0.187,0.354-0.268c0.122-0.081,0.26-0.147,0.415-0.195
		c0.154-0.049,0.345-0.065,0.574-0.049c0.098,0.098,0.163,0.22,0.195,0.366c0.033,0.146,0.053,0.309,0.061,0.488
		c0.008,0.179,0.008,0.366,0,0.561c-0.008,0.195-0.004,0.383,0.012,0.561h-2.368c-0.358,0.375-0.615,0.81-0.769,1.306
		c-0.155,0.497-0.249,1.038-0.281,1.624c-0.033,0.586-0.029,1.201,0.012,1.844c0.04,0.643,0.081,1.282,0.122,1.917
		c0.04,0.635,0.053,1.262,0.037,1.88c-0.017,0.619-0.09,1.189-0.22,1.709c0.081,0.163,0.147,0.387,0.195,0.672
		c0.049,0.285,0.077,0.578,0.085,0.879c0.008,0.301-0.012,0.594-0.061,0.879c-0.049,0.285-0.122,0.509-0.22,0.671
		c0,0.114,0.033,0.2,0.098,0.257c0.065,0.057,0.134,0.11,0.207,0.159c0.073,0.049,0.13,0.114,0.171,0.195
		c0.04,0.082,0.045,0.204,0.012,0.366c0.277-0.033,0.55-0.02,0.818,0.036c0.268,0.057,0.525,0.11,0.769,0.159
		c0.244,0.049,0.48,0.073,0.708,0.073c0.228,0,0.456-0.089,0.684-0.268c0.163,0.049,0.293,0.126,0.391,0.232
		c0.098,0.106,0.13,0.281,0.098,0.525h0.854c0.13-0.016,0.175-0.118,0.134-0.305c-0.041-0.187-0.045-0.337-0.012-0.452
		c1.058-0.033,1.856-0.309,2.393-0.83c0.537-0.521,0.895-1.229,1.074-2.124c0.26-0.016,0.427-0.122,0.501-0.317
		c0.073-0.195,0.142-0.395,0.207-0.598c0.065-0.203,0.163-0.374,0.293-0.513c0.13-0.138,0.374-0.159,0.733-0.061
		c0.13,0.407,0.211,0.863,0.244,1.367c0.033,0.505,0.045,1.03,0.037,1.575c-0.008,0.546-0.025,1.095-0.049,1.648
		c-0.025,0.554-0.021,1.083,0.012,1.587c-0.309,0.163-0.7,0.252-1.172,0.269c-0.472,0.016-0.948,0.008-1.428-0.025
		c-0.481-0.033-0.932-0.061-1.355-0.085c-0.423-0.025-0.749,0.004-0.977,0.085c-0.326-0.098-0.663-0.151-1.013-0.159
		c-0.35-0.008-0.761-0.037-1.233-0.086c-0.13-0.016-0.216,0.025-0.257,0.122c-0.041,0.098-0.118,0.138-0.232,0.122
		c-0.309-0.033-0.622-0.045-0.94-0.036c-0.318,0.008-0.643,0.012-0.977,0.012c-0.334,0-0.672-0.012-1.013-0.037
		c-0.342-0.024-0.684-0.085-1.026-0.183c-0.228,0.147-0.517,0.228-0.867,0.244c-0.35,0.016-0.716,0.02-1.099,0.012
		c-0.383-0.008-0.753-0.004-1.111,0.012c-0.358,0.016-0.651,0.089-0.879,0.22c-0.147-0.147-0.228-0.354-0.244-0.622
		c-0.016-0.269-0.016-0.55,0-0.843c0.277-0.179,0.57-0.326,0.879-0.44c0.309-0.113,0.716-0.138,1.221-0.073
		c0.358-0.244,0.602-0.655,0.733-1.233c0.13-0.578,0.199-1.209,0.207-1.892c0.008-0.684-0.029-1.371-0.11-2.063
		c-0.082-0.692-0.155-1.266-0.22-1.722c0.065-0.065,0.126-0.191,0.183-0.378c0.057-0.187,0.089-0.379,0.098-0.574
		c0.008-0.195-0.008-0.379-0.049-0.55c-0.041-0.171-0.118-0.289-0.232-0.354c0.146-0.374,0.215-0.728,0.207-1.062
		c-0.008-0.333-0.033-0.655-0.073-0.965c-0.041-0.309-0.07-0.61-0.086-0.903c-0.016-0.293,0.049-0.594,0.195-0.904
		c-0.082-0.406-0.22-0.765-0.415-1.074c-0.195-0.309-0.423-0.578-0.684-0.806c-0.26-0.228-0.549-0.431-0.867-0.61
		c-0.317-0.179-0.647-0.342-0.989-0.488c0.065-0.179,0.147-0.346,0.244-0.5C415.666,155.982,415.747,155.815,415.812,155.636z
		 M429.412,171.482v-0.488h-0.488C428.973,171.271,429.135,171.434,429.412,171.482z"/>
	<path fill="#FFFFFF" d="M439.252,174.144c-0.114-0.13-0.273-0.212-0.476-0.244c-0.204-0.033-0.415-0.057-0.635-0.073
		c-0.22-0.016-0.424-0.049-0.611-0.098c-0.187-0.049-0.314-0.163-0.379-0.342c-0.13-0.033-0.236-0.04-0.317-0.025
		c-0.082,0.016-0.151,0.041-0.208,0.073c-0.057,0.033-0.11,0.069-0.159,0.11c-0.049,0.041-0.114,0.069-0.195,0.085
		c-0.57-0.309-1.095-0.716-1.575-1.221c-0.48-0.504-0.879-1.082-1.196-1.733c-0.318-0.651-0.525-1.371-0.623-2.161
		c-0.098-0.789-0.041-1.64,0.171-2.552c0.098,0.049,0.163,0.053,0.195,0.012c0.033-0.04,0.053-0.086,0.061-0.134
		c0.008-0.049,0.028-0.089,0.061-0.122c0.033-0.032,0.098-0.032,0.195,0c0.244-2.116,1.563-3.19,3.955-3.223
		c0.049-0.163,0.122-0.248,0.22-0.256c0.098-0.008,0.199,0.012,0.305,0.061c0.106,0.049,0.22,0.102,0.342,0.159
		c0.122,0.057,0.24,0.069,0.354,0.036c0.846-0.163,1.599-0.122,2.259,0.122c0.659,0.244,1.225,0.623,1.697,1.136
		c0.472,0.513,0.854,1.123,1.147,1.831c0.293,0.708,0.488,1.453,0.586,2.234c-0.131,1.791-0.619,3.219-1.465,4.285
		C442.117,173.171,440.88,173.851,439.252,174.144z M436.518,164.475c-0.082,0.147-0.155,0.302-0.22,0.464
		c-0.065,0.163-0.143,0.314-0.232,0.452c-0.09,0.138-0.191,0.26-0.305,0.366c-0.114,0.106-0.268,0.175-0.464,0.207
		c0.016,0.505,0.036,1.009,0.061,1.514c0.025,0.505,0.081,0.973,0.171,1.404c0.089,0.432,0.228,0.818,0.415,1.16
		c0.187,0.342,0.46,0.594,0.818,0.757c0.147,0.26,0.37,0.476,0.672,0.647c0.301,0.171,0.63,0.297,0.989,0.378
		c0.358,0.082,0.72,0.11,1.086,0.086c0.366-0.025,0.688-0.11,0.965-0.257c0.195-0.098,0.346-0.224,0.452-0.378
		s0.208-0.313,0.305-0.476c0.098-0.163,0.199-0.301,0.305-0.415c0.105-0.114,0.248-0.187,0.427-0.22
		c0.049-0.358,0.061-0.684,0.036-0.977c-0.025-0.293-0.061-0.578-0.11-0.854s-0.094-0.553-0.134-0.83
		c-0.041-0.277-0.053-0.578-0.036-0.904c-0.114-0.342-0.273-0.63-0.476-0.867c-0.204-0.236-0.432-0.452-0.684-0.647
		c-0.253-0.195-0.513-0.378-0.781-0.55c-0.269-0.171-0.525-0.354-0.769-0.549c-0.277-0.016-0.501,0.012-0.672,0.085
		c-0.171,0.073-0.342,0.151-0.513,0.232c-0.171,0.082-0.354,0.147-0.55,0.195C437.079,164.548,436.827,164.54,436.518,164.475z"/>
	<path fill="#FFFFFF" d="M449.459,162.082c0.342,0.147,0.586,0.391,0.732,0.733c-0.521,0.407-1.099,0.741-1.733,1.001
		c0.228,1.27,0.586,2.417,1.074,3.443c0.488,1.026,1.001,2.019,1.538,2.979c0.374-0.26,0.675-0.606,0.904-1.038
		c0.228-0.431,0.431-0.879,0.61-1.343c0.179-0.464,0.362-0.924,0.549-1.38c0.187-0.455,0.443-0.846,0.769-1.172
		c0.065-0.423,0.02-0.732-0.134-0.928c-0.155-0.195-0.338-0.362-0.549-0.5c-0.212-0.138-0.407-0.293-0.586-0.464
		s-0.253-0.452-0.22-0.843c0.147-0.081,0.301-0.15,0.464-0.208c0.163-0.057,0.301-0.15,0.415-0.281
		c0.244,0.114,0.529,0.188,0.855,0.22c0.325,0.033,0.671,0.049,1.038,0.049s0.736-0.008,1.111-0.025
		c0.374-0.016,0.733-0.016,1.074,0c0.049,0.163,0.118,0.301,0.207,0.415c0.089,0.114,0.102,0.309,0.037,0.586
		c-0.521,0.179-0.944,0.46-1.27,0.843c-0.326,0.383-0.602,0.806-0.83,1.27s-0.444,0.944-0.647,1.441
		c-0.203,0.496-0.444,0.956-0.72,1.379c0.049,0.407,0.016,0.729-0.098,0.965s-0.244,0.456-0.391,0.659
		c-0.146,0.204-0.277,0.419-0.391,0.647c-0.114,0.228-0.147,0.546-0.098,0.952c-0.195,0.179-0.334,0.411-0.415,0.696
		c-0.082,0.285-0.175,0.562-0.281,0.83c-0.106,0.269-0.248,0.501-0.427,0.696c-0.179,0.195-0.464,0.277-0.854,0.244
		c-0.146-0.098-0.322-0.171-0.525-0.22c-0.204-0.049-0.444-0.057-0.72-0.025c-0.049-0.276-0.212-0.439-0.488-0.488
		c0.032-0.44-0.012-0.806-0.134-1.099c-0.122-0.293-0.33-0.504-0.623-0.635c-0.146-0.716-0.334-1.392-0.561-2.026
		c-0.228-0.635-0.476-1.249-0.745-1.844c-0.269-0.594-0.55-1.18-0.843-1.758c-0.293-0.578-0.561-1.176-0.806-1.795
		c-0.114-0.016-0.244-0.016-0.391,0c-0.146,0.016-0.187-0.065-0.122-0.244c-0.098-0.033-0.159-0.033-0.183,0
		c-0.025,0.033-0.041,0.073-0.049,0.122c-0.008,0.049-0.029,0.09-0.061,0.122c-0.033,0.033-0.098,0.033-0.195,0
		c0.065-0.179,0.028-0.26-0.11-0.244c-0.139,0.016-0.265,0.016-0.379,0c-0.049-0.211-0.061-0.387-0.036-0.525
		c0.024-0.138,0.065-0.26,0.122-0.366c0.057-0.106,0.126-0.203,0.207-0.293c0.081-0.089,0.147-0.191,0.195-0.305
		c0.326,0.033,0.68,0.041,1.062,0.025c0.382-0.016,0.76-0.033,1.135-0.049c0.374-0.016,0.724-0.008,1.05,0.024
		c0.325,0.033,0.602,0.114,0.83,0.244c0-0.081,0.037-0.134,0.11-0.159c0.073-0.025,0.15-0.04,0.232-0.049
		c0.081-0.008,0.154-0.028,0.22-0.061C449.45,162.269,449.475,162.196,449.459,162.082z"/>
	<path fill="#FFFFFF" d="M468.211,167.039c-0.147,0.082-0.302,0.151-0.464,0.207c-0.163,0.057-0.301,0.151-0.415,0.281
		c-0.423-0.049-0.826-0.036-1.209,0.037c-0.383,0.073-0.773,0.155-1.172,0.244c-0.399,0.09-0.826,0.163-1.282,0.22
		c-0.456,0.057-0.969,0.053-1.538-0.012c-0.114,0.049-0.195,0.122-0.244,0.22c-0.049,0.098-0.094,0.204-0.134,0.318
		c-0.041,0.114-0.094,0.216-0.159,0.305c-0.065,0.09-0.171,0.143-0.317,0.159c0.098,0.635,0.305,1.164,0.622,1.587
		c0.318,0.423,0.688,0.798,1.111,1.123c0.488,0.016,0.973,0.029,1.453,0.036c0.48,0.009,0.916-0.028,1.306-0.11
		c0.391-0.081,0.716-0.228,0.977-0.439c0.26-0.211,0.415-0.537,0.464-0.977c0.13,0.049,0.223,0.061,0.281,0.037
		c0.057-0.025,0.105-0.057,0.146-0.098c0.04-0.04,0.081-0.081,0.122-0.122c0.04-0.04,0.11-0.061,0.208-0.061
		c0.228,0.375,0.321,0.705,0.281,0.989c-0.041,0.285-0.138,0.553-0.293,0.806c-0.155,0.253-0.334,0.492-0.537,0.72
		c-0.204,0.228-0.354,0.464-0.452,0.708c-0.195,0.098-0.427,0.212-0.696,0.342c-0.269,0.13-0.554,0.24-0.855,0.329
		c-0.301,0.089-0.607,0.13-0.915,0.122c-0.31-0.008-0.603-0.11-0.879-0.305c-0.13-0.033-0.22-0.028-0.269,0.012
		c-0.049,0.041-0.094,0.086-0.134,0.134c-0.041,0.049-0.09,0.089-0.147,0.122c-0.057,0.032-0.159,0.024-0.305-0.025
		c-0.244-0.114-0.488-0.216-0.732-0.305c-0.244-0.089-0.476-0.187-0.696-0.293c-0.22-0.105-0.419-0.228-0.598-0.366
		c-0.18-0.138-0.326-0.313-0.44-0.525c-0.049-0.081-0.053-0.183-0.012-0.305c0.04-0.122,0.044-0.224,0.012-0.305
		c-0.082-0.114-0.171-0.216-0.268-0.305c-0.098-0.089-0.195-0.187-0.293-0.293c-0.098-0.105-0.188-0.228-0.269-0.366
		c-0.082-0.138-0.138-0.313-0.171-0.525c-0.049-0.26-0.061-0.537-0.036-0.83c0.025-0.293,0.045-0.59,0.061-0.891
		c0.016-0.301,0.012-0.611-0.012-0.928c-0.024-0.317-0.11-0.63-0.256-0.94c0.032-0.211,0.089-0.452,0.171-0.72
		c0.081-0.269,0.159-0.529,0.232-0.781c0.073-0.252,0.122-0.484,0.146-0.696c0.025-0.211,0.004-0.382-0.061-0.513
		c0.147-0.033,0.297-0.069,0.452-0.11c0.154-0.04,0.293-0.093,0.415-0.159c0.122-0.065,0.216-0.155,0.281-0.268
		c0.065-0.114,0.098-0.269,0.098-0.464c0.195,0.13,0.382,0.167,0.561,0.11c0.179-0.057,0.346-0.147,0.501-0.269
		c0.155-0.122,0.289-0.244,0.403-0.366c0.114-0.122,0.203-0.191,0.268-0.208c0.195-0.049,0.44-0.069,0.733-0.061
		c0.293,0.008,0.582,0.045,0.867,0.11c0.285,0.065,0.533,0.159,0.745,0.281c0.211,0.122,0.333,0.257,0.366,0.403h1.001
		c0.553,0.456,0.977,1.03,1.27,1.721C467.796,165.472,468.031,166.225,468.211,167.039z M461.521,167.039h1.978
		c-0.017-0.163,0.033-0.264,0.146-0.305c0.114-0.04,0.187-0.11,0.22-0.207c0.537-0.016,0.923-0.11,1.16-0.281
		c0.236-0.171,0.362-0.374,0.378-0.61c0.016-0.236-0.061-0.492-0.232-0.769c-0.171-0.277-0.387-0.529-0.647-0.757
		c-0.26-0.228-0.549-0.419-0.867-0.574c-0.317-0.155-0.615-0.224-0.891-0.208c-0.098,0.293-0.256,0.574-0.476,0.843
		c-0.22,0.268-0.427,0.546-0.622,0.83c-0.195,0.285-0.326,0.594-0.391,0.928C461.211,166.261,461.292,166.632,461.521,167.039z"/>
	<path fill="#FFFFFF" d="M474.022,170.774c0.114,0.26,0.249,0.497,0.403,0.708c0.155,0.212,0.322,0.415,0.501,0.611
		c0.178,0.195,0.362,0.383,0.549,0.561c0.187,0.179,0.362,0.375,0.525,0.586c-0.114,0.195-0.249,0.375-0.403,0.537
		c-0.155,0.163-0.305,0.326-0.452,0.488c-0.147,0.163-0.277,0.342-0.391,0.537c-0.114,0.195-0.195,0.423-0.244,0.684
		c-0.277-0.065-0.472-0.057-0.586,0.024c-0.114,0.081-0.252,0.155-0.415,0.22c-0.244-0.082-0.46-0.195-0.647-0.342
		c-0.187-0.147-0.362-0.305-0.525-0.476c-0.163-0.171-0.326-0.338-0.488-0.501c-0.163-0.163-0.35-0.301-0.561-0.415
		c-0.049-0.374-0.009-0.663,0.122-0.867c0.13-0.203,0.28-0.387,0.452-0.55c0.171-0.162,0.329-0.337,0.476-0.525
		c0.147-0.187,0.211-0.452,0.195-0.793c0.13-0.033,0.244-0.081,0.342-0.147c0.098-0.065,0.199-0.13,0.306-0.195
		c0.105-0.065,0.223-0.114,0.354-0.147C473.664,170.742,473.827,170.742,474.022,170.774z"/>
</g>
<path fill="#00AFB5" d="M291.636,103.562c0,2.031,0.014,3.772-0.004,5.512c-0.016,1.563-0.696,2.588-2.389,2.948
	c-1.862,0.396-2.944-0.199-2.975-2.072c-0.058-3.549-0.229-7.114,0.04-10.645c0.329-4.313-0.628-5.433-5.252-5.351
	c-3.466,0.061-6.935,0.08-10.401,0.028c-2.208-0.034-3.465-1.248-3.212-2.895c0.27-1.76,2.412-3.377,4.124-2.804
	c1.204,0.403,2.212,0.314,3.324-0.011c0.339-0.099,0.786-0.248,1.054-0.119c2.561,1.228,5.124-0.444,7.668,0.046
	c1.577,0.304,1.974-0.599,2.094-1.827c0.296-3.048,0.505-6.107,0.917-9.14c0.24-1.77,0.094-3.597,1.284-5.26
	c0.756-1.056,1.561-0.906,2.514-0.968c1.248-0.081,1.005,1.012,1.27,1.587c0.274,0.595,0.186,1.358,0.205,2.049
	c0.104,3.744-0.214,7.495,0.431,11.233c0.297,1.72,1.049,2.703,2.88,2.646c2.631-0.082,5.239,0.28,7.889,0.147
	c2.236-0.112,4.414,0.952,6.734,1.014c0.987,0.026,1.288,3.217,0.389,3.956c-0.635,0.523-1.881,1.126-2.157,1.028
	c-1.838-0.654-3.702-0.036-5.445-0.306c-3.134-0.485-6.154,0.252-9.224,0.191c-0.899-0.018-0.956,0.608-1.161,1.219
	C291.345,98.422,291.725,101.152,291.636,103.562z"/>
</svg>
