<?xml version="1.0" encoding="utf-8"?>
<!-- Generator: Adobe Illustrator 25.2.3, SVG Export Plug-In . SVG Version: 6.00 Build 0)  -->
<svg version="1.1" id="Layer_1" xmlns="http://www.w3.org/2000/svg" xmlns:xlink="http://www.w3.org/1999/xlink" x="0px" y="0px"
	 viewBox="0 0 1200 422.769" enable-background="new 0 0 1200 422.769" xml:space="preserve">
<rect x="0" fill="#A0DBE9" width="1200" height="423"/>
<rect x="0" opacity="0.19" fill="none" width="1200" height="311.538"/>
<g>
	<path fill="#FFFDE9" d="M1149.885,48.071c-6.153,3.457-13.104,3.105-19.802,3.504c-11.977,0.713-23.987,0.376-35.969-0.145
		c-10.101-0.439-20.254,0.802-30.326-1.248c-3.699-0.753-7.687-0.383-11.367,0.828c-3.466,1.14-6.285-1.631-9.669-1.094
		c-10.253,1.626-20.664,0.39-30.984,0.838c-18.876,0.819-37.888,2.317-56.87,0.752c-10.072-0.83-20.21,0.429-30.323-1.283
		c-6.872-1.163-13.909,0.535-21.04,0.034c-13.204-0.927-26.535-0.19-39.797,1.108c-11.777,1.153-23.654,0.746-35.457,0.149
		c-11.265-0.57-22.597,0.917-33.822-1.322c-3.704-0.739-7.682-0.42-11.378,0.752c-3.757,1.192-6.951-1.646-10.661-1.034
		c-10.077,1.661-20.346,0.486-30.475,0.879c-18.736,0.727-37.6,2.359-56.437,0.724c-10.07-0.874-20.249,0.732-30.321-1.325
		c-3.699-0.755-7.716-0.466-11.362,0.816c-3.358,1.181-5.986-1.533-9.172-1.068c-10.435,1.524-20.94,0.064-31.51,0.849
		c-17.714,1.317-35.662,1.981-53.528,0.715c-10.252-0.726-20.519-0.044-30.834-1.126c-8.019-0.841-16.386-0.459-24.515-0.136
		c-9.145,0.363-18.388,0.245-27.493,0.561c-18.901,0.655-37.902,2.269-56.89,0.71c-10.07-0.827-20.222-0.619-30.315-1.028
		c-9.76-0.396-19.694-1.097-29.523-0.276c-7.473,0.624-15.162-2.397-22.439,1.243c-10.755-4.128-21.31,1.491-32.097,0.58
		c-10.925-0.923-21.972-0.775-32.961-0.669c-8.817,0.085-17.643-1.315-26.291-0.983c-10.555,0.405-21.025-0.986-31.555-0.175
		c-6.299,0.485-12.8,0.733-18.946,0.698c-17.819-0.102-35.599,2.299-53.416,0.694c-11.071-0.998-22.255,0.799-33.316-1.403
		c-3.701-0.736-7.724-0.516-11.364,0.786c-3.197,1.144-5.706-1.374-8.655-0.993c-10.621,1.374-21.39-1.97-32.009,1.133
		c-3.726,1.089-7.806-4.045-6.228-7.46c0.666-1.443,1.762-2.987,3.794-2.181c5.901,2.341,11.184-2.461,17.233-1.006
		c5.744,1.381,11.839,1.862,17.847,0.848c0.777-0.131,1.488-0.629,2.229-0.957c7.088-0.652,14.167,0.302,21.261,0.085
		c6.59-0.202,13.189-0.078,19.736-1.008c1.666,0,3.333,0,4.999,0c6.693,1.086,13.437,0.313,20.155,0.463
		c6.424,0.144,12.854,0.03,19.278,0.031c2.376,0.001,4.755-0.001,7.131,0c16.003,0.728,32.01,0.498,48.021,0.002
		c11.857,0.745,23.711,0.639,35.563-0.01c1.287-0.071,2.651,0.345,3.836-0.486c1.666,0,3.333,0,4.999,0
		c6.688,1.086,13.426,0.313,20.138,0.463c6.419,0.144,12.843,0.03,19.262,0.031c2.357,0.001,4.717-0.001,7.073,0
		c17.07,0.876,34.144,0.454,51.223,0.001c11.974,0.783,23.943,0.592,35.912-0.006c1.138-0.057,2.346,0.28,3.374-0.489
		c1.666,0,3.333,0,4.999,0c8.549,1.135,17.141,0.337,25.71,0.431c4.753,0.052,9.559,0.686,14.285-0.431c1.666,0,3.333,0,4.999,0
		c6.326,1.032,12.627,1.74,19.08,0.743c6.581-1.017,13.195,0.333,19.808,0.315c3.644-0.01,7.246-0.122,10.855-0.562
		c13.022,0.983,26.039,0.296,39.057-0.001c2.168,0.001,4.335-0.002,6.503,0c11.275,0,22.549,0.019,33.823-0.023
		c1.62-0.006,3.321,0.436,4.858-0.471c1.667,0,3.333,0,4.999,0c5.499,1.029,10.935,1.566,16.611,0.689
		c6.389-0.987,12.878,0.342,19.337,0.367c3.652,0.014,7.255-0.145,10.87-0.562c13.328,0.912,26.649,0.359,39.972,0
		c2.166,0.001,4.331-0.002,6.497,0c10.613,0,21.226,0.021,31.838-0.023c1.62-0.007,3.321,0.437,4.858-0.471c2,0,3.999,0,5.999,0
		c6.317,1.035,12.61,1.727,19.056,0.749c6.739-1.022,13.509,0.349,20.278,0.319c3.476-0.015,6.905-0.172,10.344-0.573
		c12,0.631,23.995,0.747,35.988-0.01c1.446-0.091,2.971,0.398,4.323-0.485c1.667,0,3.333,0,4.999,0
		c9.045,1.111,18.128,0.298,27.191,0.442c3.591,0.057,7.246,0.598,10.804-0.442c2,0,4,0,5.999,0
		c3.869,0.958,7.729,1.03,11.732,0.614c6.604-0.687,13.223,0.442,19.852,0.453c3.323,0.005,6.596-0.144,9.875-0.568
		c11.896,0.722,23.789,0.648,35.681-0.012c1.292-0.072,2.66,0.344,3.85-0.487c1.667,0,3.333,0,4.999,0
		c6.693,1.086,13.436,0.313,20.153,0.463c6.423,0.144,12.853,0.03,19.276,0.031c2.375,0.001,4.753-0.001,7.127,0
		c16.008,0.695,32.02,0.512,48.037,0.002c12.02,0.781,24.035,0.59,36.05-0.007c1.127-0.056,2.323,0.274,3.34-0.489
		c1.666,0,3.333,0,4.999,0c8.052,1.105,16.148,0.363,24.22,0.433c5.252,0.046,10.547,0.637,15.775-0.433c1.667,0,3.333,0,4.999,0
		c1.843,0.824,3.87,0.675,5.806,0.908C1149.411,41.05,1150.389,42.154,1149.885,48.071z"/>
</g>
<g>
	<path fill="#FFFDE9" d="M45.796,270.221c-2.102-1.589-5.278-2.397-5.406-5.384c-0.119-2.774,1.835-4.394,4.829-3.308
		c1.979,0.718,3.285,0.564,5.074-0.149c4.113-1.639,8.548-1.035,12.865-0.723c6.651,0.479,13.141,1.097,19.931-0.139
		c4.371-0.796,9.311,0.802,13.946,0.594c24.451-1.094,48.926-0.282,73.378-0.853c5.371-0.125,10.567,0.779,15.757,1.684
		c1.024,0.178,1.92,0.449,2.843-0.045c3.473-1.86,7.44-1.87,11.2-1.39c13.622,1.739,27.356,0.661,40.912,0.392
		c23.125-0.459,46.252,0.1,69.36-0.647c2.7-0.087,5.317,0.123,7.973,0.566c5.765,0.962,11.483,1.802,17.363-0.112
		c2.184-0.711,5.013-0.486,7.467-0.212c14.621,1.633,29.342,0.663,43.926,0.398c17.592-0.321,35.179-0.192,52.765-0.387
		c8.005-0.089,15.974-0.157,24.041,0.485c11.865,0.944,23.941,0.35,35.859,0.179c32.248-0.462,64.501-0.536,96.749-0.878
		c6.378-0.068,12.486,1.93,19.287,0.369c4.7-1.079,10.331,0.916,15.429,0.526c14.327-1.096,28.632,0.233,42.975-0.361
		c19.898-0.823,39.871-0.64,59.808-0.493c3.996,0.029,8.31,0.338,12.207,1.682c0.822,0.284,1.556,0.377,2.349-0.014
		c5.156-2.541,10.691-1.505,16.169-1.158c5.809,0.368,11.628,1.374,17.412-0.374c1.164-0.352,2.671-0.17,3.965,0.017
		c5.821,0.843,11.721,1.037,17.547,0.635c22.599-1.56,45.242-0.502,67.85-0.627c8.881-0.049,17.917-0.772,26.883,0.494
		c5.039,0.712,10.174,0.473,15.422-0.416c4.407-0.747,9.309,0.747,13.944,0.541c24.451-1.087,48.926-0.289,73.379-0.849
		c5.538-0.127,10.902,0.707,16.244,1.713c0.826,0.155,1.602,0.443,2.396,0.06c5.508-2.656,11.356-1.48,17.167-1.101
		c5.643,0.368,11.175,0.64,16.94-0.379c4.386-0.775,9.307,0.763,13.941,0.555c24.785-1.114,49.595-0.316,74.386-0.822
		c5.143-0.105,10.456-0.095,14.436,3.374c0.718,4.67,0.135,5.202-5.291,5.756c-2.956,0.302-5.989,0.024-8.875,0.801
		c-0.671,0-1.342,0-2.012,0c-1.006-0.614-2.012-0.614-3.019,0c-1.677,0-3.354,0-5.031,0c-5.367-0.692-10.733-0.692-16.1,0
		c-1.677,0-3.354,0-5.031,0c-1.006-0.614-2.012-0.614-3.019,0c-2.012,0-4.025,0-6.037,0c-2.016-0.891-4.192-0.205-6.277-0.422
		c-2.935,0.204-5.931-0.45-8.816,0.422c-1.006,0-2.012,0-3.019,0c-1.765-0.867-3.703-0.221-5.546-0.423
		c-7.22-0.254-14.457-1.144-21.622,0.423c-0.335,0-0.671,0-1.006,0c-1.334-0.664-2.835-0.818-4.335-0.799
		c-9.689,0.12-19.377-0.285-29.066-0.029c-1.67,0.044-3.34,0.104-4.836,0.829c-0.335,0-0.671,0-1.006,0
		c-5.031-1.699-10.062-0.267-15.094,0c-0.671,0-1.342,0-2.013,0c-0.671-0.515-1.342-0.515-2.012,0c-1.677,0-3.354,0-5.031,0
		c-5.145-0.916-10.357-0.183-15.528-0.422c-2.196,0.199-4.474-0.433-6.609,0.422c-1.677,0-3.354,0-5.031,0
		c-1.006-0.614-2.012-0.614-3.019,0c-2.013,0-4.025,0-6.037,0c-3.69-0.67-7.379-0.67-11.069,0c-0.671,0-1.342,0-2.012,0
		c-1.755-0.866-3.686-0.221-5.52-0.423c-6.893-0.212-13.808-1.186-20.643,0.423c-0.335,0-0.671,0-1.006,0
		c-1.334-0.664-2.835-0.818-4.335-0.799c-9.689,0.12-19.377-0.285-29.066-0.029c-1.67,0.044-3.34,0.104-4.836,0.829
		c-2.348,0-4.696,0-7.044,0c-0.67-0.595-1.561-0.371-2.377-0.423c-1.219,0.148-2.551-0.358-3.66,0.423c-1.677,0-3.354,0-5.031,0
		c-4.522-0.924-9.122-0.184-13.674-0.422c-2.477,0.231-5.036-0.487-7.457,0.422c-2.683,0-5.367,0-8.05,0
		c-2.016-0.891-4.192-0.205-6.277-0.422c-2.935,0.204-5.931-0.45-8.816,0.422c-2.683,0-5.367,0-8.05,0
		c-7.704-1.62-15.483-0.519-23.234-0.424c-12.229-0.542-24.457-0.794-36.683-0.004c-5.534-0.275-11.074-0.655-16.557,0.428
		c-3.69,0-7.379,0-11.069,0c-5.031-0.687-10.062-0.687-15.094,0c-1.677,0-3.354,0-5.031,0c-1.006-0.614-2.012-0.614-3.019,0
		c-2.012,0-4.025,0-6.037,0c-2.016-0.891-4.192-0.205-6.277-0.422c-2.935,0.204-5.931-0.45-8.816,0.422c-2.683,0-5.367,0-8.05,0
		c-7.703-1.51-15.47-0.675-23.222-0.424c-12.175-0.533-24.349-0.796-36.52-0.007c-4.575,0.006-9.187-0.667-13.714,0.432
		c-0.671,0-1.342,0-2.013,0c-1.342-0.654-2.683-0.654-4.025,0c-1.677,0-3.354,0-5.031,0c-5.031-0.687-10.062-0.687-15.094,0
		c-1.677,0-3.354,0-5.031,0c-0.942-0.729-2.116-0.304-3.181-0.422c-0.895,0-1.789,0.001-2.684,0
		c-1.069,0.118-2.245-0.308-3.192,0.422c-2.013,0-4.025,0-6.037,0c-3.019-0.658-6.037-0.658-9.056,0c-2.683,0-5.367,0-8.05,0
		c-7.996-1.623-16.065-0.544-24.109-0.438c-12.432-0.274-24.878-1.373-37.272,0.438c-0.335,0-0.671,0-1.006,0
		c-4.696-1.633-9.392-0.406-14.087,0c-0.671,0-1.342,0-2.012,0c-1.342-0.654-2.683-0.654-4.025,0c-1.342,0-2.683,0-4.025,0
		c-5.367-0.692-10.733-0.692-16.1,0c-1.677,0-3.354,0-5.031,0c-1.006-0.614-2.012-0.614-3.019,0c-2.012,0-4.025,0-6.037,0
		c-2.016-0.891-4.192-0.205-6.277-0.422c-2.935,0.204-5.931-0.45-8.816,0.422c-1.006,0-2.012,0-3.019,0
		c-1.765-0.867-3.703-0.221-5.546-0.423c-7.22-0.254-14.457-1.144-21.622,0.423c-0.335,0-0.671,0-1.006,0
		c-1.334-0.664-2.835-0.818-4.335-0.799c-9.689,0.12-19.377-0.285-29.066-0.029c-1.671,0.044-3.34,0.104-4.836,0.829
		c-0.335,0-0.671,0-1.006,0c-6.037-2.213-12.075-0.183-18.112,0c-0.671,0-1.342,0-2.012,0c-0.671-0.515-1.342-0.515-2.012,0
		c-1.677,0-3.354,0-5.031,0c-5.145-0.916-10.357-0.183-15.528-0.422c-2.196,0.199-4.474-0.432-6.609,0.422c-1.677,0-3.354,0-5.031,0
		c-1.006-0.614-2.012-0.614-3.019,0c-2.012,0-4.025,0-6.037,0c-3.019-0.658-6.037-0.658-9.056,0c-1.006,0-2.012,0-3.019,0
		c-2.062-0.856-4.273-0.22-6.402-0.423c-6.938-0.348-13.887-1.074-20.767,0.423c-0.335,0-0.671,0-1.006,0
		c-1.334-0.664-2.835-0.818-4.335-0.799c-9.689,0.12-19.377-0.285-29.066-0.029c-1.671,0.044-3.34,0.104-4.836,0.829
		c-0.335,0-0.671,0-1.006,0c-5.031-1.699-10.062-0.267-15.094,0c-0.671,0-1.342,0-2.012,0c-0.671-0.515-1.342-0.515-2.012,0
		c-1.677,0-3.354,0-5.031,0c-5.145-0.916-10.357-0.183-15.528-0.422c-2.196,0.199-4.474-0.432-6.609,0.422c-1.677,0-3.354,0-5.031,0
		c-1.006-0.614-2.012-0.614-3.019,0c-2.012,0-4.025,0-6.037,0c-3.69-0.67-7.379-0.67-11.069,0c-0.671,0-1.342,0-2.012,0
		c-1.755-0.866-3.686-0.221-5.52-0.423c-6.893-0.212-13.808-1.186-20.643,0.423c-0.335,0-0.671,0-1.006,0
		c-1.334-0.664-2.835-0.818-4.335-0.799c-9.689,0.12-19.377-0.285-29.066-0.029c-1.671,0.044-3.34,0.104-4.836,0.829
		C46.466,270.221,46.131,270.221,45.796,270.221z"/>
	<path fill="#FFFDE9" d="M1017.825,270.221c3.526-1.875,7.326-2.588,11.508-1.904c6.147,1.005,12.335,0.007,18.498,0.199
		c2.868,0.09,6.007-0.513,8.231,1.705C1043.316,270.221,1030.571,270.221,1017.825,270.221z"/>
	<path fill="#FFFDE9" d="M877.957,270.221c3.509-1.89,7.277-2.588,11.47-1.897c6.14,1.012,12.334,0.02,18.5,0.183
		c2.897,0.077,5.988-0.377,8.266,1.714C903.449,270.221,890.703,270.221,877.957,270.221z"/>
	<path fill="#FFFDE9" d="M46.802,270.221c2.626-2.27,6.782-2.622,9.488-2.163c7.07,1.2,13.998,0.15,20.961,0.431
		c2.749,0.111,5.652-0.215,7.788,1.732C72.293,270.221,59.548,270.221,46.802,270.221z"/>
	<path fill="#FFFDE9" d="M186.669,270.221c3.513-1.891,7.297-2.589,11.483-1.901c6.143,1.01,12.334,0.011,18.497,0.193
		c2.883,0.085,6.007-0.461,8.257,1.708C212.161,270.221,199.415,270.221,186.669,270.221z"/>
	<path fill="#FFFDE9" d="M329.556,270.221c3.528-1.872,7.329-2.587,11.51-1.904c6.147,1.004,12.334,0.007,18.497,0.199
		c2.867,0.09,6.007-0.515,8.23,1.705C355.047,270.221,342.301,270.221,329.556,270.221z"/>
	<path fill="#FFFDE9" d="M469.423,270.221c3.733-1.789,7.618-2.597,12.015-1.838c5.103,0.881,10.295,0.102,15.446,0.16
		c3.283,0.037,6.689-0.594,9.766,0.933c0.332,0.164,0.443,0.329,0.334,0.495c-0.109,0.166-0.218,0.249-0.33,0.249
		C494.244,270.221,481.834,270.221,469.423,270.221z"/>
	<path fill="#FFFDE9" d="M607.291,269.569c4.063-1.137,8.037-1.626,12.502-1.129c5.386,0.6,10.959,0.106,16.451,0.059
		c2.844-0.024,5.677-0.057,8.246,1.171c0.007,0.184,0.013,0.367,0.019,0.551c-12.41,0-24.821,0-37.231,0
		c-0.329-0.149-0.436-0.295-0.324-0.439C607.066,269.64,607.177,269.569,607.291,269.569z"/>
	<path fill="#FFFDE9" d="M747.153,269.614c4.065-1.075,7.985-1.754,12.498-1.198c5.367,0.662,10.958,0.124,16.453,0.083
		c2.841-0.021,5.682-0.092,8.257,1.14c0.334,0.123,0.447,0.25,0.342,0.382c-0.107,0.133-0.214,0.2-0.325,0.2
		c-12.41,0-24.821,0-37.231,0c-0.324-0.137-0.431-0.273-0.322-0.407C746.932,269.681,747.041,269.614,747.153,269.614z"/>
	<path fill="#FFFDE9" d="M506.654,270.221c0-0.248-0.001-0.496-0.004-0.745c7.368-0.653,14.731-1.653,22.123-0.14
		c0.786,0.161,1.666,0.11,2.031,0.884C522.754,270.221,514.704,270.221,506.654,270.221z"/>
	<path fill="#FFFDE9" d="M644.509,270.221c-0.042-0.183-0.049-0.367-0.019-0.551c7.026-1.196,14.067-1.696,21.158-0.348
		c0.789,0.15,1.669,0.104,2.005,0.899C659.938,270.221,652.224,270.221,644.509,270.221z"/>
	<path fill="#FFFDE9" d="M368.799,270.221c7.197-3.027,14.587-1.5,21.95-0.618c0.435,0.058,0.607,0.169,0.519,0.333
		c-0.102,0.19-0.211,0.285-0.332,0.285C383.557,270.221,376.178,270.221,368.799,270.221z"/>
	<path fill="#FFFDE9" d="M784.377,270.221c-0.034-0.193-0.039-0.388-0.016-0.582c7.035-1.081,14.079-1.715,21.174-0.325
		c0.785,0.154,1.674,0.094,1.986,0.907C799.806,270.221,792.091,270.221,784.377,270.221z"/>
	<path fill="#FFFDE9" d="M1057.068,270.221c7.197-3.03,14.588-1.499,21.95-0.618c0.435,0.058,0.607,0.169,0.518,0.333
		c-0.102,0.19-0.211,0.285-0.332,0.285C1071.826,270.221,1064.447,270.221,1057.068,270.221z"/>
	<path fill="#FFFDE9" d="M225.913,270.221c6.873-3.039,13.998-1.46,21.075-0.764c0.362,0.153,0.491,0.317,0.388,0.492
		c-0.107,0.181-0.217,0.272-0.331,0.272C240,270.221,232.956,270.221,225.913,270.221z"/>
	<path fill="#FFFDE9" d="M917.201,270.221c6.871-3.06,13.997-1.442,21.072-0.763c0.364,0.152,0.494,0.315,0.39,0.491
		c-0.107,0.181-0.216,0.272-0.331,0.272C931.288,270.221,924.244,270.221,917.201,270.221z"/>
	<path fill="#FFFDE9" d="M86.045,270.221c5.283-2.705,11.051-1.538,16.683-1.345c1.468,0.05,2.922,0.384,4.382,0.588
		c0.368,0.148,0.5,0.309,0.397,0.484c-0.106,0.182-0.216,0.273-0.331,0.273C100.133,270.221,93.089,270.221,86.045,270.221z"/>
	<path fill="#FFFDE9" d="M1142.599,270.221c2.801-1.538,6.154-1.123,9.231-1.614c3.609-0.577,5.758-1.651,4.935-4.942
		c0.309-0.006,0.618-0.005,0.927,0.003c0,6.554,0,6.554-8.05,6.554C1147.294,270.221,1144.947,270.221,1142.599,270.221z"/>
	<path fill="#FFFDE9" d="M310.437,270.221c6.037-0.373,12.075-4.702,18.112,0C322.512,270.221,316.475,270.221,310.437,270.221z"/>
	<path fill="#FFFDE9" d="M747.153,269.614c0.006,0.202,0.004,0.405-0.007,0.607c-5.367,0-10.733,0-16.1,0
		C736.324,268.42,741.688,268.137,747.153,269.614z"/>
	<path fill="#FFFDE9" d="M1001.725,270.221c5.031-0.704,10.062-3.511,15.094,0C1011.787,270.221,1006.756,270.221,1001.725,270.221z
		"/>
	<path fill="#FFFDE9" d="M170.57,270.221c5.031-0.74,10.062-3.49,15.094,0C180.632,270.221,175.601,270.221,170.57,270.221z"/>
	<path fill="#FFFDE9" d="M454.33,270.221c4.696-0.828,9.392-3.499,14.087,0C463.721,270.221,459.025,270.221,454.33,270.221z"/>
	<path fill="#FFFDE9" d="M428.167,270.221c5.367-1.328,10.733-1.338,16.1,0C438.901,270.221,433.534,270.221,428.167,270.221z"/>
	<path fill="#FFFDE9" d="M976.519,269.495c5.383,0.24,10.865-0.975,16.149,0.726c-5.367,0-10.733,0-16.1,0
		c-0.316-0.148-0.429-0.304-0.338-0.47C976.323,269.58,976.419,269.495,976.519,269.495z"/>
	<path fill="#FFFDE9" d="M285.232,269.493c5.383,0.244,10.865-0.974,16.149,0.728c-5.367,0-10.733,0-16.1,0
		c-0.317-0.148-0.429-0.306-0.338-0.472C285.036,269.578,285.132,269.493,285.232,269.493z"/>
	<path fill="#FFFDE9" d="M1116.436,270.221c5.367-1.328,10.733-1.338,16.1,0C1127.17,270.221,1121.803,270.221,1116.436,270.221z"/>
	<path fill="#FFFDE9" d="M145.364,269.496c5.383,0.238,10.865-0.976,16.15,0.725c-5.367,0-10.733,0-16.1,0
		c-0.316-0.147-0.428-0.304-0.338-0.47C145.168,269.581,145.264,269.496,145.364,269.496z"/>
	<path fill="#FFFDE9" d="M607.291,269.569c0.014,0.217,0.01,0.435-0.012,0.652c-4.36,0-8.721,0-13.081,0
		C598.431,268.271,602.862,268.934,607.291,269.569z"/>
	<path fill="#FFFDE9" d="M704.884,270.221c5.031-1.332,10.062-1.341,15.094,0C714.946,270.221,709.915,270.221,704.884,270.221z"/>
	<path fill="#FFFDE9" d="M568.035,270.221c5.031-1.33,10.062-1.343,15.094,0C578.097,270.221,573.066,270.221,568.035,270.221z"/>
	<path fill="#FFFDE9" d="M845.699,269.506c4.716,0.228,9.542-0.985,14.146,0.715c-4.696,0-9.392,0-14.087,0
		c-0.312-0.143-0.425-0.296-0.338-0.46C845.508,269.591,845.601,269.506,845.699,269.506z"/>
	<path fill="#FFFDE9" d="M945.375,270.221c3.69-1.305,7.379-1.399,11.069,0C952.754,270.221,949.065,270.221,945.375,270.221z"/>
	<path fill="#FFFDE9" d="M114.22,270.221c3.69-1.307,7.379-1.398,11.069,0C121.599,270.221,117.91,270.221,114.22,270.221z"/>
	<path fill="#FFFDE9" d="M1087.255,270.221c2.845-1.661,6.009-0.558,9.03-0.692c0.346,0.145,0.464,0.296,0.357,0.453
		c-0.108,0.159-0.219,0.239-0.331,0.239C1093.293,270.221,1090.274,270.221,1087.255,270.221z"/>
	<path fill="#FFFDE9" d="M538.854,270.221c3.019-1.349,6.037-1.347,9.056,0C544.891,270.221,541.873,270.221,538.854,270.221z"/>
	<path fill="#FFFDE9" d="M815.57,270.221c2.844-1.665,6.012-0.553,9.033-0.698c0.343,0.148,0.461,0.3,0.354,0.458
		c-0.108,0.16-0.218,0.24-0.331,0.24C821.608,270.221,818.589,270.221,815.57,270.221z"/>
	<path fill="#FFFDE9" d="M398.986,270.221c2.845-1.66,6.009-0.558,9.03-0.692c0.345,0.145,0.464,0.296,0.357,0.453
		c-0.108,0.159-0.218,0.239-0.331,0.239C405.024,270.221,402.005,270.221,398.986,270.221z"/>
	<path fill="#FFFDE9" d="M256.1,270.221c3.019-1.354,6.037-1.343,9.056,0C262.137,270.221,259.119,270.221,256.1,270.221z"/>
	<path fill="#FFFDE9" d="M675.703,270.221c2.844-1.663,6.011-0.554,9.032-0.697c0.344,0.147,0.462,0.299,0.355,0.457
		c-0.108,0.16-0.218,0.24-0.331,0.24C681.74,270.221,678.721,270.221,675.703,270.221z"/>
	<path fill="#FFFDE9" d="M845.699,269.506c0.029,0.238,0.049,0.476,0.059,0.715c-2.348,0-4.696,0-7.044,0
		C840.823,268.562,843.368,269.731,845.699,269.506z"/>
	<path fill="#FFFDE9" d="M976.519,269.495c0.028,0.242,0.045,0.484,0.05,0.726c-2.012,0-4.025,0-6.037,0
		C972.28,268.625,974.514,269.686,976.519,269.495z"/>
	<path fill="#FFFDE9" d="M684.759,270.221c0.003-0.232-0.005-0.465-0.024-0.697c2.055,0.034,4.26-0.801,6.062,0.697
		C688.784,270.221,686.771,270.221,684.759,270.221z"/>
	<path fill="#FFFDE9" d="M824.626,270.221c0.004-0.233-0.004-0.466-0.023-0.698c2.054,0.036,4.26-0.798,6.061,0.698
		C828.651,270.221,826.639,270.221,824.626,270.221z"/>
	<path fill="#FFFDE9" d="M408.042,270.221c0-0.231-0.008-0.461-0.026-0.692c2.057,0.023,4.259-0.801,6.063,0.692
		C412.067,270.221,410.055,270.221,408.042,270.221z"/>
	<path fill="#FFFDE9" d="M1096.312,270.221c0-0.231-0.008-0.461-0.026-0.692c2.057,0.023,4.26-0.801,6.063,0.692
		C1100.337,270.221,1098.324,270.221,1096.312,270.221z"/>
	<path fill="#FFFDE9" d="M285.232,269.493c0.028,0.242,0.044,0.485,0.049,0.728c-2.012,0-4.025,0-6.037,0
		C280.992,268.625,283.227,269.688,285.232,269.493z"/>
	<path fill="#FFFDE9" d="M247.044,270.221c0.189-0.265,0.17-0.52-0.057-0.764c2.028,0.274,4.304-0.766,6.094,0.764
		C251.069,270.221,249.056,270.221,247.044,270.221z"/>
	<path fill="#FFFDE9" d="M145.364,269.496c0.028,0.241,0.044,0.483,0.05,0.725c-2.012,0-4.025,0-6.037,0
		C141.125,268.625,143.359,269.686,145.364,269.496z"/>
	<path fill="#FFFDE9" d="M938.332,270.221c0.185-0.265,0.165-0.519-0.059-0.763c1.715,0.174,3.651-0.632,5.09,0.763
		C941.686,270.221,940.009,270.221,938.332,270.221z"/>
	<path fill="#FFFDE9" d="M1079.205,270.221c-0.216-0.175-0.278-0.381-0.187-0.618c1.75,0.147,3.712-0.892,5.218,0.618
		C1082.56,270.221,1080.883,270.221,1079.205,270.221z"/>
	<path fill="#FFFDE9" d="M390.936,270.221c-0.216-0.175-0.278-0.381-0.187-0.618c1.75,0.147,3.712-0.892,5.218,0.618
		C394.291,270.221,392.613,270.221,390.936,270.221z"/>
	<path fill="#FFFDE9" d="M107.176,270.221c0.162-0.263,0.14-0.515-0.066-0.757c1.715,0.181,3.659-0.659,5.097,0.757
		C110.53,270.221,108.853,270.221,107.176,270.221z"/>
	<path fill="#FFFDE9" d="M864.876,270.221c1.079-1.313,2.648-0.727,4.074-0.697c0.291,0.169,0.381,0.328,0.27,0.479
		c-0.107,0.145-0.213,0.218-0.319,0.218C867.559,270.221,866.218,270.221,864.876,270.221z"/>
	<path fill="#FFFDE9" d="M588.16,270.221c1.342-1.145,2.683-1.382,4.025,0C590.843,270.221,589.501,270.221,588.16,270.221z"/>
	<path fill="#FFFDE9" d="M448.292,270.221c1.342-1.142,2.683-1.387,4.025,0C450.975,270.221,449.634,270.221,448.292,270.221z"/>
	<path fill="#FFFDE9" d="M1137.568,270.221c1.006-1.095,2.012-1.253,3.019,0C1139.58,270.221,1138.574,270.221,1137.568,270.221z"/>
	<path fill="#FFFDE9" d="M962.482,270.221c1.006-1.174,2.012-1.14,3.019,0C964.494,270.221,963.488,270.221,962.482,270.221z"/>
	<path fill="#FFFDE9" d="M1108.386,270.221c1.006-1.167,2.012-1.119,3.019,0C1110.399,270.221,1109.393,270.221,1108.386,270.221z"
		/>
	<path fill="#FFFDE9" d="M696.834,270.221c1.006-1.146,2.013-1.143,3.019,0C698.846,270.221,697.84,270.221,696.834,270.221z"/>
	<path fill="#FFFDE9" d="M559.957,269.531c1.119-0.073,2.336-0.432,3.047,0.69c-1.006,0-2.013,0-3.019,0
		c-0.319-0.145-0.429-0.295-0.332-0.452C559.752,269.611,559.853,269.531,559.957,269.531z"/>
	<path fill="#FFFDE9" d="M559.957,269.531c0.016,0.23,0.025,0.46,0.028,0.69c-1.006,0-2.012,0-3.019,0
		c-0.32-0.146-0.43-0.297-0.331-0.453c0.1-0.158,0.202-0.237,0.307-0.237C557.947,269.531,558.952,269.531,559.957,269.531z"/>
	<path fill="#FFFDE9" d="M556.942,269.531c0.015,0.23,0.023,0.46,0.024,0.69c-1.006,0-2.012,0-3.019,0
		C554.598,268.992,555.849,269.49,556.942,269.531z"/>
	<path fill="#FFFDE9" d="M420.117,270.221c1.006-1.167,2.013-1.119,3.019,0C422.13,270.221,421.124,270.221,420.117,270.221z"/>
	<path fill="#FFFDE9" d="M271.194,270.221c1.006-1.172,2.012-1.145,3.019,0C273.206,270.221,272.2,270.221,271.194,270.221z"/>
	<path fill="#FFFDE9" d="M131.326,270.221c1.006-1.179,2.012-1.135,3.019,0C133.339,270.221,132.332,270.221,131.326,270.221z"/>
	<path fill="#FFFDE9" d="M868.901,270.221c-0.007-0.234,0.01-0.466,0.049-0.697c0.828-0.091,1.739-0.338,1.964,0.697
		C870.243,270.221,869.572,270.221,868.901,270.221z"/>
	<path fill="#FFFDE9" d="M997.7,270.221c0.671-1.013,1.342-1.071,2.012,0C999.042,270.221,998.371,270.221,997.7,270.221z"/>
	<path fill="#FFFDE9" d="M306.412,270.221c0.671-1.013,1.342-1.071,2.012,0C307.754,270.221,307.083,270.221,306.412,270.221z"/>
	<path fill="#FFFDE9" d="M166.545,270.221c0.671-1.018,1.342-1.068,2.012,0C167.886,270.221,167.215,270.221,166.545,270.221z"/>
</g>
<path fill="#00AFB5" d="M706.254,186.664c0,4.655,0.031,8.643-0.009,12.631c-0.037,3.582-1.596,5.931-5.475,6.756
	c-4.266,0.906-6.747-0.455-6.816-4.748c-0.132-8.132-0.525-16.302,0.092-24.392c0.754-9.882-1.438-12.45-12.035-12.262
	c-7.943,0.14-15.892,0.184-23.835,0.063c-5.06-0.077-7.94-2.86-7.361-6.635c0.618-4.033,5.526-7.737,9.45-6.424
	c2.759,0.923,5.07,0.72,7.617-0.025c0.777-0.227,1.802-0.567,2.415-0.273c5.869,2.813,11.741-1.018,17.571,0.106
	c3.613,0.697,4.524-1.372,4.797-4.187c0.678-6.984,1.157-13.994,2.101-20.945c0.551-4.056,0.216-8.243,2.943-12.053
	c1.732-2.419,3.577-2.077,5.762-2.219c2.859-0.186,2.302,2.319,2.909,3.637c0.628,1.363,0.425,3.112,0.469,4.696
	c0.237,8.58-0.49,17.174,0.987,25.74c0.68,3.942,2.404,6.194,6.6,6.064c6.028-0.187,12.005,0.642,18.077,0.337
	c5.123-0.257,10.115,2.182,15.43,2.324c2.262,0.061,2.951,7.371,0.892,9.065c-1.456,1.197-4.311,2.581-4.943,2.356
	c-4.212-1.499-8.483-0.083-12.477-0.701c-7.183-1.112-14.102,0.577-21.138,0.438c-2.061-0.041-2.192,1.394-2.659,2.794
	C705.588,174.885,706.458,181.141,706.254,186.664z"/>
<path d="M182.686,121.466c2.431-0.361,3.413-2.219,2.947-5.573c-0.656,0-1.123,0.136-1.404,0.407
	c-0.281,0.271-0.54,0.592-0.772,0.951c-0.234,0.363-0.491,0.68-0.772,0.953c-0.281,0.269-0.75,0.406-1.403,0.406
	c-1.217-0.995-2.269-2.149-3.157-3.466c-0.891-1.312-1.802-2.603-2.737-3.873c-0.935-1.266-1.942-2.468-3.016-3.6
	c-1.076-1.132-2.364-2.061-3.858-2.787c0.467-0.995,0.958-1.924,1.473-2.787c0.514-0.859,0.958-1.788,1.333-2.785
	c1.965,0.182,4.115,0.227,6.454,0.136c2.337-0.09,4.652-0.181,6.945-0.271c2.291-0.09,4.442-0.046,6.454,0.135
	c2.011,0.182,3.719,0.68,5.121,1.495c0-0.632,0.281-1.019,0.842-1.154c0.561-0.136,1.145-0.205,1.754-0.205
	c0.608,0,1.168-0.068,1.684-0.205c0.513-0.136,0.723-0.564,0.631-1.29c1.496,0.999,3.32,1.383,5.472,1.154
	c2.15-0.225,4.231-0.428,6.244-0.612c2.011-0.179,3.788,0,5.331,0.546c1.543,0.542,2.502,2.039,2.876,4.483
	c-1.217,1.543-2.62,2.879-4.21,4.011c-1.591,1.134-3.205,2.266-4.84,3.397c-1.638,1.134-3.157,2.358-4.56,3.67
	c-1.404,1.312-2.574,2.876-3.508,4.688c1.029,3.534,1.706,7.703,2.035,12.504c0.326,4.804,0.491,9.74,0.491,14.813
	c0,5.077-0.119,10.057-0.351,14.95c-0.235,4.892-0.445,9.198-0.632,12.911c0.373,2.175,0.818,4.282,1.333,6.321
	c0.513,2.039,1.263,3.873,2.246,5.504c0.982,1.631,2.315,2.946,3.998,3.941c1.684,0.997,3.88,1.451,6.595,1.359
	c0.186,0.817,0.421,1.655,0.701,2.514c0.281,0.863,0.491,1.7,0.631,2.514c0.141,0.815,0.116,1.631-0.069,2.448
	c-0.189,0.815-0.61,1.537-1.263,2.173c-7.11-0.995-13.986-1.381-20.626-1.156c-6.643,0.225-12.581,0.612-17.818,1.156
	c0.28-0.636,0.28-1.019,0-1.156c-0.281-0.136-0.632-0.203-1.052-0.203c-0.422,0-0.82,0-1.193,0c-0.375,0-0.561-0.225-0.561-0.68
	c0.281-1.266,0.702-2.378,1.264-3.329c0.56-0.953,0.607-2.38,0.14-4.282c2.056-0.181,3.74-0.632,5.051-1.359
	c1.309-0.724,2.947-1.176,4.911-1.359c-0.281-1.902-0.281-3.602,0-5.097s0.514-2.9,0.702-4.212c0.186-1.312,0.186-2.492,0-3.536
	c-0.188-1.04-0.891-2.059-2.105-3.056c1.495-2.536,2.337-5.278,2.525-8.223c0.186-2.944,0.21-5.956,0.07-9.038
	c-0.141-3.078-0.188-6.205-0.141-9.377c0.047-3.171,0.632-6.205,1.755-9.106c-1.031-1.176-1.684-2.332-1.965-3.466
	c-0.281-1.132-0.375-2.31-0.281-3.534c0.092-1.224,0.257-2.559,0.491-4.009c0.233-1.447,0.351-3.034,0.351-4.756
	c-2.994,2.358-5.286,5.392-6.875,9.104c-1.592,3.716-2.621,8.019-3.087,12.911c-1.873,0.999-3.322,2.334-4.35,4.011
	c-1.03,1.677-1.451,4.007-1.263,6.997c-0.56-0.271-0.935-0.291-1.122-0.066c-0.188,0.227-0.305,0.476-0.351,0.748
	c-0.049,0.271-0.14,0.498-0.281,0.678c-0.14,0.182-0.491,0.182-1.052,0c0,1.995-0.35,3.624-1.052,4.892
	c-0.701,1.27-1.427,2.514-2.174,3.738c-0.75,1.222-1.404,2.536-1.965,3.941c-0.56,1.405-0.75,3.193-0.56,5.368
	c-0.561,0.544-1.193,1.29-1.895,2.242s-1.263,1.972-1.684,3.06c-0.421,1.088-0.631,2.197-0.631,3.329
	c0,1.134,0.467,2.153,1.403,3.056c-0.75,2.63-1.567,5.165-2.455,7.613c-0.891,2.444-1.989,4.712-3.297,6.795h-8.559
	c-1.031-6.885-2.574-13.272-4.63-19.164c-2.059-5.888-4.304-11.621-6.735-17.191c-2.433-5.574-4.911-11.123-7.436-16.649
	c-2.525-5.526-4.771-11.281-6.735-17.261h-3.508c-1.03,2.901-1.613,5.98-1.754,9.243c-0.14,3.263-0.14,6.524,0,9.785
	c0.141,3.263,0.257,6.435,0.351,9.516c0.092,3.08-0.141,5.98-0.701,8.697c0.281,1.541,1.214,2.446,2.806,2.717
	c-0.188,1.088-0.235,2.267-0.141,3.536c0.092,1.268,0.163,2.536,0.211,3.805c0.046,1.268-0.025,2.4-0.211,3.397
	c-0.188,0.997-0.609,1.768-1.263,2.31c0.467,2.087,1.496,3.58,3.087,4.487c1.59,0.907,3.203,1.788,4.84,2.649
	c1.636,0.863,2.993,2.018,4.07,3.466c1.074,1.451,1.333,3.67,0.772,6.66c-1.592-0.361-2.715-0.293-3.367,0.203
	c-0.656,0.498-1.451,0.885-2.385,1.156c-0.375-0.544-1.263-0.971-2.666-1.292c-1.403-0.315-2.876-0.476-4.42-0.476
	c-1.543,0-3.016,0.16-4.419,0.476c-1.404,0.321-2.293,0.748-2.666,1.292c-1.123-0.817-2.433-1.2-3.929-1.156
	c-1.497,0.048-3.065,0.184-4.701,0.409c-1.638,0.225-3.297,0.361-4.98,0.407c-1.684,0.044-3.322-0.297-4.911-1.019
	c-0.375-2.99,0.069-5.187,1.333-6.592c1.263-1.405,2.758-2.583,4.489-3.534c1.73-0.951,3.438-1.948,5.121-2.99
	c1.684-1.042,2.806-2.649,3.367-4.824c-1.031-2.083-1.732-4.417-2.105-7.001c-0.375-2.581-0.515-5.208-0.421-7.882
	c0.092-2.669,0.373-5.32,0.842-7.949c0.467-2.629,1.028-5.119,1.683-7.477c-0.469-1.449-0.866-3.329-1.192-5.641
	c-0.329-2.308-0.516-4.688-0.561-7.134c-0.049-2.446,0.046-4.8,0.281-7.068c0.232-2.264,0.723-4.122,1.473-5.573
	c-0.561-0.271-0.982-0.861-1.263-1.766s-0.421-1.904-0.421-2.99c0-1.088,0.14-2.107,0.421-3.058s0.701-1.563,1.263-1.836
	c-2.433-2.083-4.748-4.325-6.945-6.726c-2.199-2.398-4.654-4.507-7.366-6.321c0.467-0.995,0.958-1.923,1.473-2.785
	c0.513-0.861,1.004-1.786,1.473-2.785c7.016,1.088,13.937,1.746,20.766,1.971c6.826,0.227,13.61-0.43,20.345-1.971
	c0.842,1.995,2.291,3.397,4.349,4.214c-1.123,3.624-3.507,5.89-7.156,6.795c-0.281,2.446-0.304,4.619-0.07,6.522
	c0.232,1.904,0.632,3.65,1.192,5.235c0.561,1.585,1.264,3.034,2.105,4.347c0.842,1.316,1.684,2.607,2.526,3.875
	c-0.561,3.263-0.492,5.844,0.21,7.746c0.701,1.902,1.589,3.65,2.665,5.233c1.074,1.587,2.081,3.261,3.017,5.029
	c0.933,1.766,1.308,4.055,1.122,6.863c0.934,0.726,1.659,1.585,2.175,2.583c0.513,0.997,1.004,2.063,1.473,3.195
	c0.467,1.132,0.958,2.219,1.473,3.261c0.514,1.042,1.193,1.926,2.035,2.649c2.245-1.447,3.95-3.373,5.121-5.775
	c1.168-2.398,2.221-4.937,3.156-7.611c0.934-2.671,1.916-5.276,2.947-7.814c1.029-2.535,2.478-4.666,4.349-6.387
	c-0.188-1.449-0.165-2.695,0.07-3.738c0.232-1.04,0.561-1.991,0.982-2.854c0.421-0.859,0.818-1.744,1.192-2.651
	c0.373-0.903,0.608-1.947,0.702-3.126c0.933,0.184,1.614,0.16,2.034-0.066c0.421-0.225,0.794-0.544,1.123-0.951
	c0.326-0.409,0.653-0.793,0.982-1.156c0.326-0.361,0.817-0.544,1.473-0.544c0-0.544-0.118-0.929-0.351-1.154
	c-0.234-0.227-0.469-0.453-0.701-0.682c-0.234-0.225-0.421-0.496-0.561-0.815c-0.14-0.317-0.069-0.837,0.21-1.563
	c0.654,0,1.123,0.16,1.404,0.476c0.281,0.321,0.537,0.636,0.772,0.951c0.232,0.321,0.491,0.636,0.772,0.951
	C181.704,121.309,182.125,121.466,182.686,121.466z M115.899,150.278v-4.076h-4.21C111.409,149.192,112.812,150.549,115.899,150.278
	z M123.054,113.176c-0.094-0.361-0.094-0.817,0-1.36c0.092-0.544,0.141-1.04,0.141-1.495c0-0.452-0.094-0.817-0.281-1.088
	c-0.188-0.271-0.61-0.359-1.263-0.271c0.092,0.363,0.092,0.815,0,1.359c-0.094,0.544-0.141,1.067-0.141,1.563
	c0,0.5,0.092,0.883,0.281,1.156C121.978,113.311,122.399,113.357,123.054,113.176z"/>
<path d="M276.688,133.831c0.654,0.636,1.239,0.999,1.754,1.088c0.513,0.092,1.029,0.07,1.543-0.066
	c0.513-0.136,1.074-0.339,1.684-0.612c0.607-0.273,1.332-0.409,2.174-0.409c4.677,0.999,8.559,2.699,11.646,5.099
	c3.087,2.4,4.862,6.183,5.331,11.348c-0.75,1.449-1.216,3.193-1.403,5.232c-0.188,2.039-0.235,4.17-0.141,6.389
	c0.092,2.219,0.186,4.483,0.281,6.795c0.092,2.312,0.047,4.465-0.14,6.455c-0.75,0.726-1.217,1.746-1.404,3.058
	c-0.188,1.314-0.188,2.785,0,4.417c0.748,1.178,1.614,2.243,2.596,3.195c0.982,0.951,1.895,1.969,2.737,3.056
	c0.841,1.088,1.589,2.267,2.245,3.536c0.653,1.268,0.982,2.854,0.982,4.756c-1.311,0.634-3.016,1.246-5.121,1.836
	c-2.105,0.59-4.257,0.905-6.454,0.951c-2.199,0.044-4.21-0.225-6.034-0.817c-1.824-0.588-3.065-1.698-3.718-3.331
	c-3.556,0.546-6.945,1.18-10.173,1.904c-3.227,0.726-6.011,1.902-8.348,3.534c-2.621-0.088-4.795-0.634-6.525-1.631
	c-1.732-0.995-3.206-2.219-4.42-3.67c-1.217-1.447-2.293-3.034-3.227-4.756c-0.936-1.72-1.918-3.399-2.947-5.029
	c0.467-1.176,0.748-2.286,0.842-3.329c0.091-1.042,0.116-2.061,0.069-3.058c-0.048-0.997-0.164-2.085-0.35-3.261
	c-0.188-1.178-0.375-2.584-0.561-4.214c0.933-0.453,1.916-1.176,2.947-2.175c1.028-0.995,2.104-1.924,3.227-2.787
	c1.123-0.859,2.291-1.427,3.507-1.698c1.215-0.271,2.526,0.136,3.929,1.222c1.776-0.903,4.045-1.379,6.805-1.427
	c2.758-0.044,5.424-0.181,7.998-0.406c2.571-0.227,4.84-0.748,6.804-1.563c1.965-0.817,3.039-2.448,3.228-4.894
	c-0.281-1.447-0.632-2.874-1.052-4.28c-0.421-1.403-0.96-2.671-1.614-3.807c-0.656-1.132-1.497-2.083-2.525-2.854
	c-1.03-0.769-2.385-1.244-4.069-1.427c-2.525,1.63-5.24,3.104-8.138,4.417c-2.9,1.314-5.38,3.058-7.436,5.231
	c-1.964-0.088-3.626-0.45-4.98-1.086c-1.358-0.632-2.785-1.222-4.28-1.768c2.337-4.529,5.543-8.266,9.611-11.211
	C267.638,138.84,272.009,136.191,276.688,133.831z M268.129,186.157c0.281,0.453,0.864,0.863,1.754,1.224
	c0.888,0.361,1.916,0.678,3.087,0.951c1.168,0.271,2.407,0.453,3.719,0.542c1.308,0.092,2.477,0.092,3.507,0
	c2.712-0.995,4.583-2.761,5.613-5.3c1.028-2.535,1.308-5.843,0.841-9.921c-2.339-0.817-4.77-1.244-7.295-1.292
	c-2.526-0.044-4.771,0.409-6.735,1.36c-1.965,0.951-3.416,2.426-4.349,4.417C267.334,180.133,267.287,182.806,268.129,186.157z"/>
<path d="M400.173,190.637c0.842,0.544,1.706,1.042,2.596,1.495c0.888,0.453,1.683,0.999,2.385,1.63
	c0.701,0.636,1.263,1.406,1.683,2.312c0.422,0.907,0.583,2.085,0.491,3.534c-0.936,0.271-2.105,0.658-3.507,1.156
	c-1.404,0.496-2.831,0.927-4.28,1.29c-1.451,0.361-2.876,0.498-4.279,0.407c-1.404-0.09-2.574-0.59-3.507-1.495
	c-0.936,0.815-1.918,1.268-2.947,1.36c-1.031,0.088-2.105,0.044-3.227-0.136c-1.123-0.184-2.246-0.431-3.367-0.748
	c-1.123-0.317-2.246-0.476-3.367-0.476v-6.795c0.933-0.181,1.705-0.498,2.315-0.951c0.607-0.453,1.192-0.905,1.754-1.36
	c0.561-0.452,1.192-0.883,1.895-1.29c0.701-0.407,1.565-0.612,2.596-0.612c0.372-2.898-0.095-5.209-1.404-6.931
	c0.842-1.176,1.333-2.695,1.473-4.553c0.141-1.854,0.187-3.827,0.141-5.912c-0.049-2.083-0.141-4.19-0.281-6.321
	c-0.141-2.127-0.119-4.096,0.07-5.91c-0.936-2.175-2.199-4.055-3.789-5.641c-1.592-1.585-3.181-3.148-4.77-4.69h-7.016
	c-1.031,0.544-2.153,0.999-3.367,1.36c-1.217,0.361-2.456,0.726-3.719,1.088c-1.263,0.361-2.455,0.771-3.578,1.222
	c-1.122,0.455-2.105,1.086-2.946,1.902c-0.75,1.27-1.427,2.649-2.034,4.146c-0.61,1.493-1.568,2.651-2.876,3.466
	c0.091,1.541,0.256,3.172,0.491,4.892c0.232,1.722,0.397,3.513,0.491,5.368c0.092,1.858,0.092,3.738,0,5.641
	c-0.094,1.902-0.421,3.716-0.982,5.436c0.372,1.724,1.098,3.106,2.174,4.146c1.074,1.043,2.175,2.039,3.297,2.99
	c1.123,0.951,2.151,2.017,3.088,3.193c0.933,1.18,1.403,2.765,1.403,4.758c-2.339,1.176-4.538,1.902-6.594,2.173
	c-2.059,0.273-4.139,0.341-6.244,0.205c-2.105-0.135-4.304-0.363-6.595-0.68c-2.293-0.317-4.84-0.431-7.647-0.339
	c-0.094-1.359,0.046-2.536,0.421-3.532c0.373-0.997,0.842-1.88,1.404-2.651c0.561-0.771,1.192-1.473,1.895-2.107
	c0.701-0.632,1.379-1.312,2.034-2.039c-0.375-1.904-0.422-4.122-0.141-6.66c0.281-2.536,0.583-5.231,0.913-8.085
	c0.326-2.855,0.607-5.821,0.842-8.904c0.232-3.078,0.162-6.205-0.211-9.377c-1.497-1.268-2.83-2.605-3.998-4.009
	c-1.171-1.405-2.69-2.603-4.56-3.602c0.372-0.815,0.794-1.539,1.263-2.175c0.466-0.632,0.513-1.718,0.14-3.261
	c2.15-0.09,3.929-0.566,5.331-1.427c1.404-0.861,2.758-1.744,4.07-2.651c1.308-0.905,2.758-1.676,4.349-2.31
	c1.589-0.634,3.648-0.815,6.174-0.544c-0.281,1.088-0.21,1.812,0.21,2.173c0.421,0.365,0.817,0.772,1.192,1.224
	c0.281,0.726,0.303,1.224,0.07,1.495c-0.234,0.271-0.491,0.5-0.772,0.68c-0.281,0.182-0.515,0.407-0.701,0.678
	c-0.188,0.273-0.188,0.726,0,1.36c0.187,0.453,0.583,0.658,1.192,0.612c0.607-0.044,1.193-0.022,1.754,0.066
	c1.871-1.176,3.695-2.378,5.472-3.602c1.776-1.222,3.694-2.33,5.753-3.329c2.056-0.995,4.349-1.766,6.875-2.31
	c2.525-0.544,5.472-0.68,8.84-0.407c1.589,0.453,2.947,1.11,4.069,1.969c1.123,0.863,2.127,1.814,3.016,2.855
	c0.889,1.042,1.777,2.129,2.666,3.261c0.888,1.136,1.895,2.109,3.016,2.924c0.934,3.532,1.333,7.114,1.193,10.736
	c-0.141,3.624-0.351,7.27-0.632,10.94c-0.281,3.67-0.469,7.318-0.561,10.94C398.675,183.525,399.142,187.103,400.173,190.637z"/>
<path d="M498.538,101.863c0.092,0.634,0.092,1.336,0,2.105c-0.094,0.771,0.373,0.975,1.404,0.612
	c-1.123,2.356-1.895,5.051-2.315,8.085c-0.421,3.038-0.75,6.186-0.982,9.447c-0.235,3.261-0.491,6.479-0.772,9.65
	c-0.281,3.171-0.842,6.07-1.684,8.697c1.029,2.629,1.496,5.211,1.404,7.746c-0.094,2.538-0.259,4.962-0.491,7.272
	c-0.235,2.31-0.304,4.533-0.21,6.66c0.091,2.129,0.841,4.055,2.245,5.775c-0.469,1.451-0.75,2.9-0.842,4.349
	c-0.094,1.451-0.14,2.924-0.14,4.417c0,1.497,0,3.06,0,4.69c0,1.631-0.141,3.353-0.422,5.165c1.123,1.541,2.782,2.56,4.981,3.056
	c2.197,0.501,4.793,0.612,7.787,0.341c1.495,2.809,1.73,4.984,0.701,6.524c-1.031,1.541-2.736,2.673-5.121,3.397
	c-2.385,0.726-5.121,1.132-8.208,1.222c-3.087,0.09-5.987,0.046-8.699-0.135c0-0.632-0.211-1.108-0.632-1.427
	c-0.421-0.317-0.842-0.612-1.263-0.883c-0.422-0.273-0.75-0.634-0.982-1.088c-0.235-0.453-0.259-1.132-0.07-2.039
	c-3.742,0.182-7.016,0.793-9.822,1.834c-2.806,1.043-5.426,2.243-7.858,3.602c-1.497,0.271-2.806,0.361-3.928,0.271
	c-1.123-0.09-2.199-0.251-3.228-0.476c-1.03-0.225-2.058-0.452-3.087-0.678c-1.031-0.225-2.105-0.383-3.227-0.476
	c-1.404-1.631-3.017-3.058-4.841-4.28c-1.823-1.224-3.531-2.56-5.121-4.011c-0.561-1.991-1.216-3.873-1.964-5.641
	c-0.75-1.766-2.013-3.101-3.788-4.007c-0.189-1.449-0.211-3.012-0.07-4.69c0.14-1.676,0.21-3.329,0.21-4.961
	c0-1.631-0.094-3.171-0.281-4.621c-0.188-1.449-0.609-2.627-1.263-3.532c0.281-1.541,1.214-2.448,2.806-2.721
	c0.373-4.527,1.659-8.468,3.858-11.823c2.197-3.351,5.052-6,8.559-7.949c3.507-1.948,7.529-3.126,12.066-3.536
	c4.536-0.407,9.423-0.02,14.662,1.156c0.934-0.544,1.684-1.292,2.246-2.243c0.561-0.951,1.449-1.563,2.665-1.834
	c0.092-1.993,0.092-4.076,0-6.251c-0.094-2.175,0.373-3.76,1.404-4.758c-0.469-1.447-1.311-2.49-2.525-3.125
	c-1.217-0.634-2.525-1.176-3.929-1.633c-1.404-0.45-2.714-1.018-3.929-1.698c-1.217-0.68-2.012-1.742-2.385-3.195
	c1.029-1.718,2.337-3.101,3.929-4.144c1.59-1.04,3.835-1.471,6.735-1.29c0.934-0.907,1.94-1.812,3.016-2.719
	c1.074-0.905,2.246-1.698,3.508-2.38c1.263-0.678,2.687-1.198,4.279-1.563C494.516,101.772,496.386,101.682,498.538,101.863z
	 M457.288,149.973c-0.75,1.088-1.591,2.129-2.525,3.125c-0.936,0.999-1.824,2.039-2.665,3.126c-0.842,1.088-1.568,2.243-2.175,3.466
	c-0.61,1.224-1.007,2.607-1.192,4.148c-0.095,1.086-0.049,2.378,0.14,3.871c0.186,1.497,0.421,2.99,0.701,4.487
	c0.281,1.493,0.608,2.854,0.982,4.078c0.373,1.222,0.702,2.105,0.983,2.649c0.841,1.359,1.915,2.514,3.227,3.466
	c1.309,0.951,2.712,1.79,4.21,2.514c1.495,0.726,3.038,1.383,4.63,1.971c1.589,0.59,3.038,1.156,4.349,1.7
	c4.582-0.724,8.138-2.4,10.664-5.029c2.525-2.627,4.395-5.98,5.612-10.057c-0.469-0.361-0.772-0.837-0.913-1.427
	c-0.14-0.59-0.258-1.2-0.35-1.836c-0.094-0.632-0.235-1.222-0.422-1.766c-0.188-0.544-0.56-0.951-1.122-1.224
	c0.747-0.723,1.239-1.718,1.473-2.99c0.232-1.268,0.281-2.625,0.141-4.078c-0.141-1.447-0.375-2.83-0.702-4.144
	c-0.328-1.312-0.631-2.378-0.912-3.193c-1.778,0.09-3.016-0.341-3.719-1.292c-0.701-0.951-1.333-1.924-1.894-2.922
	c-1.965-0.453-3.742-0.748-5.332-0.885c-1.591-0.135-3.087-0.135-4.489,0c-1.404,0.136-2.806,0.409-4.21,0.817
	C460.374,148.953,458.878,149.429,457.288,149.973z"/>
<path d="M562.939,133.615c0.747,0.815,1.192,1.971,1.332,3.466c0.141,1.495,0.163,3.104,0.07,4.826c-0.842,0-1.567,0.09-2.174,0.271
	c-0.61,0.182-1.171,0.43-1.684,0.747c-0.515,0.319-1.031,0.636-1.543,0.951c-0.515,0.321-1.1,0.568-1.754,0.748
	c0.281,3.716,0.842,7.16,1.683,10.33c0.842,3.171,1.871,6.138,3.087,8.9c1.215,2.765,2.572,5.394,4.07,7.882
	c1.495,2.494,3.038,4.918,4.63,7.272c0.747-0.544,1.379-1.244,1.894-2.107c0.514-0.859,1.029-1.698,1.543-2.514
	c0.514-0.815,1.099-1.563,1.755-2.242c0.653-0.678,1.543-1.11,2.665-1.29c0.281-2.629,1.074-5.278,2.385-7.952
	c1.308-2.671,2.385-5.231,3.227-7.678c0.842-2.446,0.983-4.71,0.422-6.797c-0.561-2.083-2.574-3.805-6.034-5.165
	c0.281-1.086,0.303-1.923,0.07-2.514c-0.235-0.586-0.491-1.132-0.772-1.63s-0.539-1.04-0.772-1.63
	c-0.235-0.59-0.21-1.429,0.07-2.514c3.273-0.273,6.174-0.477,8.699-0.612c2.525-0.136,5.003-0.251,7.436-0.341
	c2.431-0.088,4.933-0.157,7.507-0.205c2.572-0.044,5.588-0.111,9.05-0.203c0.748,1.902,1.123,3.488,1.123,4.756
	c0,1.272-0.375,2.901-1.123,4.892c-3.556,0.273-6.384,1.202-8.489,2.787c-2.105,1.585-3.858,3.558-5.262,5.914
	c-1.403,2.356-2.549,4.938-3.437,7.746c-0.891,2.809-1.802,5.571-2.737,8.29c-1.872,1.27-3.227,3.058-4.069,5.37
	c-0.842,2.31-1.614,4.667-2.315,7.068s-1.592,4.642-2.666,6.726c-1.076,2.085-2.784,3.534-5.121,4.349
	c0.187,2.629,0,4.94-0.561,6.931c-0.561,1.993-1.777,3.351-3.648,4.078c-1.777,6.433-4.233,12.118-7.366,17.057
	c-3.135,4.937-6.853,9.309-11.155,13.116h-5.752c-0.75,0.181-1.147,0.02-1.193-0.476c-0.049-0.5-0.35-0.794-0.912-0.885
	c-2.621,1.36-6.174,1.812-10.664,1.36c-1.123-2.266-1.473-4.238-1.052-5.912c0.422-1.679,1.379-3.058,2.876-4.146
	c1.495-1.088,3.389-1.834,5.683-2.243c2.291-0.407,4.793-0.431,7.507-0.068c1.87-0.815,3.413-1.993,4.63-3.532
	c1.214-1.543,2.337-3.15,3.367-4.826c1.028-1.677,2.056-3.353,3.087-5.029c1.028-1.677,2.291-3.148,3.788-4.417
	c-0.094-1.541-0.281-2.922-0.561-4.144c-0.281-1.224-0.631-2.424-1.052-3.602c-0.421-1.176-0.866-2.4-1.332-3.67
	c-0.469-1.268-0.891-2.763-1.263-4.485c-0.281-1.176-0.961-2.242-2.035-3.193c-1.076-0.953-1.848-1.972-2.315-3.06
	c-0.281-0.723-0.305-1.515-0.069-2.378c0.232-0.859,0.256-1.652,0.069-2.378c-0.281-1.088-0.935-2.127-1.964-3.126
	c-1.031-0.995-1.778-2.039-2.245-3.126c-0.188-0.452-0.188-1.154,0-2.105c0.187-0.951,0.187-1.836,0-2.651
	c-0.188-0.724-0.68-1.36-1.474-1.902c-0.795-0.544-1.286-1.04-1.473-1.495c-0.281-0.997-0.445-1.993-0.491-2.99
	c-0.049-0.997-0.118-2.015-0.21-3.058c-0.094-1.04-0.281-2.039-0.561-2.99c-0.281-0.951-0.795-1.88-1.543-2.787
	c-0.094-0.452-0.445-0.656-1.052-0.612c-0.609,0.048-1.192,0.026-1.754-0.066c-0.281-1.36-0.936-2.422-1.965-3.195
	c-1.03-0.769-2.104-1.471-3.227-2.107c-1.123-0.632-2.153-1.359-3.087-2.173c-0.936-0.817-1.498-1.993-1.683-3.534
	c0.28-1.268,1.051-2.083,2.315-2.448c1.263-0.359,2.687-0.52,4.279-0.476c1.589,0.048,3.273,0.16,5.051,0.341
	c1.777,0.182,3.367,0.135,4.771-0.135c0.281-0.907,0.958-1.36,2.034-1.36c1.074,0,1.8,0.453,2.175,1.36
	c0.28-0.634,0.747-1.042,1.403-1.224c0.654-0.181,1.449-0.273,2.385-0.273c0.933,0,1.87,0.048,2.806,0.136
	C561.206,133.707,562.096,133.707,562.939,133.615z"/>
<path d="M851.449,102.121c1.966,3.262,3.671,6.773,5.121,10.532c1.45,3.761,2.853,7.59,4.21,11.485
	c1.355,3.896,2.737,7.747,4.139,11.552c1.403,3.805,3.087,7.338,5.053,10.599c-0.472,0.817-0.891,1.655-1.264,2.514
	c-0.377,0.863-0.422,2.063-0.141,3.602c0.561,0.273,0.932,0.704,1.123,1.29c0.186,0.592,0.746,0.841,1.682,0.748
	c-0.093,1.541,0.046,2.833,0.422,3.875c0.373,1.042,0.771,2.083,1.191,3.125c0.422,1.042,0.795,2.153,1.123,3.331
	s0.35,2.581,0.07,4.212c0.561,0.271,0.982,0.726,1.262,1.359c0.282,0.634,0.539,1.27,0.773,1.902
	c0.232,0.636,0.514,1.224,0.841,1.768c0.327,0.544,0.818,0.907,1.473,1.088c0,3.353,0.563,6.138,1.686,8.358
	c1.121,2.221,2.523,4.192,4.21,5.912c1.682,1.722,3.412,3.377,5.19,4.962c1.776,1.585,3.273,3.466,4.489,5.639
	c-1.03-0.361-1.496-0.157-1.403,0.612c0.093,0.771,0.093,1.473,0,2.107c-3.557-0.273-6.944-0.317-10.172-0.136
	c-3.228,0.182-6.337,0.387-9.331,0.612c-2.994,0.225-5.941,0.361-8.84,0.407c-2.9,0.044-5.801-0.251-8.699-0.883
	c-0.188-1.088-0.166-1.993,0.07-2.719c0.232-0.724,0.514-1.381,0.841-1.971c0.327-0.588,0.702-1.156,1.123-1.7
	c0.422-0.542,0.723-1.176,0.914-1.902h3.505c1.684-1.449,2.668-3.283,2.948-5.504c0.28-2.219,0.116-4.529-0.493-6.931
	c-0.609-2.4-1.496-4.71-2.664-6.931c-1.172-2.219-2.268-4.009-3.296-5.368c-1.123,0.09-2.316,0.09-3.58,0
	c-1.262-0.088-2.48-0.136-3.648-0.136c-1.17,0-2.246,0.114-3.228,0.339c-0.982,0.229-1.753,0.612-2.314,1.156
	c0-0.905-0.305-1.447-0.912-1.631c-0.611-0.181-1.052-0.542-1.334-1.088c-1.03,0.184-2.082,0.476-3.155,0.885
	c-1.077,0.407-2.153,0.747-3.228,1.018c-1.077,0.273-2.105,0.431-3.087,0.476c-0.983,0.048-1.849-0.291-2.596-1.018
	c-1.123,0.271-1.989,0.815-2.596,1.63c-0.61,0.815-1.171,1.655-1.684,2.514c-0.515,0.863-1.076,1.7-1.683,2.514
	c-0.61,0.815-1.474,1.36-2.596,1.631c-0.656,1.631-0.891,3.241-0.702,4.824c0.187,1.587,0.351,3.126,0.492,4.621
	c0.14,1.495,0.091,2.878-0.141,4.146c-0.234,1.268-1.052,2.446-2.455,3.534c1.122,0.271,2.104,0.363,2.946,0.271
	c0.842-0.088,1.659-0.157,2.456-0.203c0.794-0.044,1.659-0.044,2.596,0c0.933,0.046,2.056,0.251,3.367,0.612
	c-0.75,0.815-1.193,1.969-1.333,3.466c-0.141,1.493-0.165,3.104-0.07,4.824c-2.433-0.817-5.099-1.292-7.998-1.429
	c-2.9-0.135-5.847-0.111-8.84,0.07c-2.994,0.181-5.963,0.428-8.909,0.747c-2.947,0.315-5.731,0.522-8.349,0.612v-11.009
	c2.246-0.181,4.326-0.566,6.244-1.156c1.916-0.588,3.507-1.449,4.771-2.581c1.263-1.132,2.196-2.629,2.806-4.487
	c0.607-1.854,0.723-4.144,0.35-6.863c2.898-2.807,5.027-6.273,6.385-10.397c1.354-4.122,2.547-8.494,3.578-13.116
	c2.337-2.356,4.045-5.302,5.121-8.833c1.074-3.534,1.754-7.477,2.034-11.824c1.495-1.631,2.688-3.578,3.578-5.844
	c0.888-2.264,1.706-4.552,2.456-6.863c0.747-2.311,1.613-4.553,2.595-6.727c0.983-2.175,2.362-3.942,4.139-5.301v-4.078
	C842.329,102.528,846.118,101.577,851.449,102.121z M818.757,193.043c-0.188-0.544-0.165-0.905,0.07-1.088
	c0.232-0.181,0.491-0.341,0.772-0.476s0.513-0.315,0.701-0.544c0.186-0.225,0.141-0.656-0.14-1.29
	c-0.469-0.273-0.866-0.634-1.193-1.088c-0.328-0.453-0.679-0.885-1.052-1.29c-0.375-0.409-0.819-0.726-1.332-0.951
	c-0.516-0.227-1.193-0.295-2.035-0.206c-0.375,2.175-0.094,3.716,0.842,4.623C816.324,191.641,817.446,192.411,818.757,193.043z
	 M832.928,161.376c1.87-0.903,3.764-1.379,5.683-1.427c1.916-0.044,3.835,0.048,5.753,0.273c1.916,0.227,3.835,0.385,5.753,0.476
	c1.916,0.09,3.762-0.136,5.542-0.68c-0.188-2.719-0.118-5.185,0.211-7.407c0.327-2.219,1.237-3.873,2.737-4.961
	c-2.436-0.181-4.328-0.885-5.683-2.107c-1.359-1.222-2.386-2.739-3.087-4.553c-0.704-1.812-1.218-3.827-1.545-6.048
	c-0.327-2.219-0.679-4.417-1.05-6.591h-4.35c-0.655,2.901-1.498,5.618-2.527,8.154s-2.057,5.097-3.086,7.68
	c-1.031,2.581-1.964,5.255-2.806,8.019C833.63,154.969,833.115,158.025,832.928,161.376z M856.502,142.078
	c0.28-0.09,0.491-0.43,0.63-1.019c0.141-0.588,0.187-1.176,0.141-1.766c-0.048-0.59-0.259-1.042-0.632-1.36
	c-0.375-0.317-0.936-0.293-1.684,0.068c-0.28,0.09-0.514,0.431-0.7,1.019c-0.19,0.59-0.236,1.18-0.141,1.766
	c0.091,0.59,0.327,1.043,0.7,1.36C855.188,142.463,855.752,142.441,856.502,142.078z M861.411,149.009h1.403v-2.719h-1.403V149.009z
	 M861.411,158.659c1.589-0.273,2.525-1.176,2.805-2.719C862.626,156.211,861.693,157.118,861.411,158.659z M861.411,169.668
	c2.337-0.361,3.273-2.219,2.805-5.573c-0.56,0.271-0.912,0.295-1.051,0.068c-0.141-0.225-0.259-0.476-0.352-0.748
	c-0.093-0.273-0.211-0.498-0.35-0.678c-0.141-0.181-0.491-0.181-1.052,0V169.668z"/>
<path d="M939.517,176.034c-0.936,0.907-1.452,2.039-1.543,3.399c-0.095,1.359,0.046,2.741,0.421,4.144
	c0.373,1.406,0.818,2.787,1.334,4.146c0.512,1.359,0.912,2.494,1.191,3.397c6.36-0.632,9.213,2.131,8.56,8.292
	c-1.591,0.271-2.527,1.178-2.807,2.717c-1.871,0-3.882-0.159-6.033-0.476c-2.152-0.317-4.28-0.588-6.385-0.815
	c-2.105-0.225-4.164-0.293-6.174-0.205c-2.013,0.09-3.859,0.592-5.542,1.495c-0.655-0.092-1.241-0.295-1.755-0.612
	c-0.514-0.315-1.03-0.632-1.543-0.951c-0.516-0.317-1.075-0.588-1.684-0.815c-0.609-0.225-1.332-0.339-2.173-0.339v-6.931
	c3.74-0.907,6.29-2.673,7.646-5.302c1.355-2.627,2.08-5.571,2.173-8.833c0.093-3.263-0.118-6.614-0.63-10.057
	c-0.516-3.443-0.725-6.389-0.632-8.833c0.934-0.453,1.425-1.381,1.475-2.787c0.046-1.405,0-2.876-0.141-4.417
	c-0.141-1.539-0.19-3.012-0.141-4.417c0.046-1.405,0.582-2.332,1.614-2.787c-0.561-2.444-0.868-5.185-0.913-8.221
	c-0.048-3.034-0.305-5.934-0.771-8.698c-0.47-2.763-1.382-5.209-2.735-7.339c-1.359-2.128-3.673-3.466-6.946-4.009v-5.436
	c3.928-2.355,8.067-4.506,12.416-6.455c4.35-1.948,8.724-3.963,13.12-6.048c0.561-0.181,0.934-0.181,1.123,0
	c0.187,0.182,0.303,0.407,0.35,0.679c0.046,0.272,0.141,0.523,0.282,0.747c0.141,0.228,0.491,0.204,1.052-0.068
	c0,3.806-0.47,7.475-1.403,11.009c-0.936,3.534-1.825,7.046-2.668,10.533c-0.841,3.49-1.401,7.046-1.682,10.669
	c-0.282,3.625,0.232,7.385,1.543,11.281c-0.561,1.995-0.982,4.419-1.262,7.272c-0.282,2.854-0.422,5.799-0.422,8.833
	c0,3.038,0.141,6.002,0.422,8.902C938.535,171.595,938.956,174.043,939.517,176.034z"/>
<path d="M999.135,174.111c-0.936,0.907-1.45,2.039-1.543,3.399c-0.093,1.359,0.046,2.741,0.421,4.144
	c0.373,1.407,0.818,2.787,1.332,4.146c0.514,1.359,0.913,2.494,1.193,3.397c6.36-0.632,9.213,2.131,8.558,8.292
	c-1.591,0.271-2.523,1.178-2.805,2.717c-1.873,0-3.882-0.159-6.033-0.476c-2.154-0.317-4.28-0.588-6.385-0.815
	c-2.105-0.225-4.162-0.293-6.174-0.205c-2.012,0.09-3.858,0.592-5.542,1.495c-0.657-0.092-1.241-0.295-1.755-0.612
	c-0.516-0.315-1.03-0.632-1.543-0.951c-0.514-0.317-1.077-0.588-1.682-0.815c-0.611-0.225-1.334-0.339-2.177-0.339v-6.931
	c3.741-0.907,6.292-2.673,7.648-5.302c1.355-2.627,2.08-5.571,2.175-8.833c0.091-3.263-0.118-6.614-0.632-10.057
	c-0.516-3.443-0.727-6.389-0.632-8.833c0.934-0.453,1.425-1.381,1.473-2.787c0.046-1.405,0-2.876-0.141-4.417
	c-0.139-1.539-0.187-3.012-0.139-4.417c0.046-1.405,0.582-2.332,1.612-2.787c-0.56-2.444-0.864-5.185-0.91-8.221
	c-0.049-3.034-0.305-5.934-0.773-8.698c-0.468-2.763-1.382-5.209-2.737-7.339c-1.357-2.128-3.673-3.466-6.946-4.009v-5.436
	c3.93-2.355,8.069-4.506,12.419-6.456c4.349-1.948,8.72-3.963,13.118-6.048c0.561-0.181,0.934-0.181,1.123,0
	c0.187,0.182,0.303,0.407,0.352,0.679c0.046,0.272,0.139,0.523,0.28,0.747c0.139,0.228,0.491,0.204,1.052-0.068
	c0,3.806-0.47,7.475-1.404,11.009c-0.936,3.534-1.823,7.046-2.664,10.533c-0.841,3.49-1.404,7.046-1.684,10.669
	c-0.28,3.625,0.232,7.385,1.543,11.281c-0.561,1.995-0.982,4.419-1.264,7.272c-0.28,2.854-0.421,5.799-0.421,8.833
	c0,3.038,0.141,6.002,0.421,8.902C998.153,169.672,998.573,172.12,999.135,174.111z"/>
<path d="M1058.31,133.614c0.746,0.815,1.191,1.971,1.332,3.466c0.141,1.495,0.162,3.104,0.068,4.826
	c-0.841,0-1.566,0.09-2.173,0.271c-0.609,0.182-1.172,0.43-1.684,0.747c-0.516,0.319-1.03,0.636-1.543,0.951
	c-0.514,0.321-1.1,0.568-1.755,0.748c0.282,3.716,0.843,7.16,1.684,10.33c0.843,3.171,1.871,6.138,3.087,8.9
	c1.216,2.765,2.571,5.394,4.071,7.882c1.494,2.494,3.037,4.918,4.628,7.272c0.748-0.544,1.38-1.244,1.896-2.107
	c0.514-0.859,1.028-1.698,1.542-2.514c0.514-0.815,1.1-1.563,1.755-2.242c0.655-0.678,1.545-1.11,2.666-1.29
	c0.28-2.629,1.075-5.278,2.385-7.952c1.309-2.671,2.386-5.231,3.228-7.678c0.841-2.446,0.982-4.71,0.422-6.797
	c-0.563-2.083-2.575-3.805-6.035-5.165c0.28-1.086,0.303-1.923,0.07-2.514c-0.236-0.586-0.491-1.132-0.773-1.63
	c-0.28-0.498-0.539-1.04-0.771-1.63c-0.234-0.59-0.211-1.429,0.07-2.514c3.273-0.273,6.174-0.477,8.699-0.612
	c2.525-0.136,5.003-0.251,7.435-0.341c2.432-0.088,4.933-0.157,7.508-0.205c2.571-0.044,5.589-0.111,9.049-0.203
	c0.75,1.902,1.123,3.488,1.123,4.756c0,1.272-0.373,2.901-1.123,4.892c-3.555,0.273-6.383,1.202-8.488,2.787
	c-2.105,1.585-3.859,3.558-5.262,5.914c-1.403,2.356-2.548,4.938-3.437,7.746c-0.891,2.809-1.802,5.571-2.737,8.29
	c-1.871,1.27-3.226,3.058-4.069,5.37c-0.843,2.31-1.614,4.667-2.316,7.068c-0.7,2.4-1.591,4.642-2.664,6.726
	c-1.077,2.085-2.786,3.534-5.123,4.349c0.187,2.629,0,4.94-0.56,6.931c-0.563,1.993-1.777,3.351-3.65,4.078
	c-1.777,6.433-4.232,12.118-7.365,17.057c-3.136,4.937-6.853,9.309-11.156,13.116h-5.751c-0.75,0.181-1.146,0.02-1.193-0.476
	c-0.047-0.5-0.35-0.794-0.911-0.885c-2.62,1.36-6.174,1.812-10.665,1.36c-1.123-2.266-1.473-4.238-1.051-5.912
	c0.421-1.679,1.378-3.058,2.876-4.146c1.494-1.088,3.389-1.834,5.682-2.243c2.291-0.407,4.794-0.431,7.508-0.068
	c1.869-0.815,3.412-1.993,4.628-3.532c1.214-1.543,2.337-3.15,3.368-4.826c1.028-1.677,2.055-3.353,3.087-5.029
	c1.028-1.677,2.291-3.148,3.787-4.417c-0.093-1.541-0.28-2.922-0.559-4.144c-0.282-1.224-0.632-2.424-1.054-3.602
	c-0.419-1.176-0.864-2.4-1.332-3.67c-0.468-1.268-0.891-2.763-1.262-4.485c-0.28-1.176-0.961-2.242-2.034-3.193
	c-1.077-0.953-1.85-1.972-2.316-3.06c-0.28-0.723-0.304-1.515-0.07-2.378c0.232-0.859,0.257-1.652,0.07-2.378
	c-0.28-1.088-0.934-2.127-1.964-3.126c-1.03-0.995-1.779-2.039-2.244-3.126c-0.19-0.452-0.19-1.154,0-2.105
	c0.187-0.951,0.187-1.836,0-2.651c-0.19-0.724-0.681-1.36-1.475-1.902c-0.796-0.544-1.286-1.04-1.473-1.495
	c-0.28-0.997-0.445-1.993-0.491-2.99c-0.048-0.997-0.118-2.015-0.211-3.058c-0.093-1.04-0.28-2.039-0.559-2.99
	c-0.282-0.951-0.796-1.88-1.545-2.787c-0.093-0.452-0.445-0.656-1.051-0.612c-0.609,0.048-1.193,0.026-1.755-0.066
	c-0.282-1.36-0.936-2.422-1.964-3.195c-1.031-0.769-2.105-1.471-3.228-2.107c-1.123-0.632-2.154-1.359-3.087-2.173
	c-0.936-0.817-1.498-1.993-1.682-3.534c0.278-1.268,1.051-2.083,2.314-2.448c1.264-0.359,2.687-0.52,4.278-0.476
	c1.591,0.048,3.273,0.16,5.051,0.341c1.777,0.182,3.368,0.135,4.773-0.135c0.28-0.907,0.957-1.36,2.032-1.36
	c1.075,0,1.8,0.453,2.177,1.36c0.278-0.634,0.746-1.042,1.401-1.224c0.655-0.181,1.45-0.273,2.386-0.273
	c0.932,0,1.869,0.048,2.805,0.136C1056.576,133.706,1057.467,133.706,1058.31,133.614z"/>
<g>
	<path d="M819.415,319.817c0.043,0.748,0.043,1.562,0,2.441c-0.044,0.881-0.066,1.749-0.066,2.607s0.033,1.661,0.099,2.409
		c0.066,0.748,0.275,1.386,0.627,1.914c-0.221,0.44-0.352,0.968-0.396,1.584s-0.144,1.188-0.297,1.716
		c-0.155,0.528-0.429,0.936-0.825,1.221c-0.396,0.287-1.013,0.342-1.848,0.165c-0.221-0.439-0.419-0.912-0.594-1.419
		c-0.177-0.505-0.375-0.979-0.594-1.419c-0.221-0.439-0.496-0.825-0.826-1.155s-0.758-0.561-1.287-0.692
		c-0.131-1.231-0.659-2.09-1.584-2.574c-0.924-0.483-2.012-0.748-3.267-0.792c-1.254-0.043-2.563,0.033-3.927,0.23
		c-1.364,0.198-2.574,0.342-3.63,0.43c-0.353,0.527-0.683,1.089-0.99,1.683s-0.627,1.166-0.957,1.716
		c-0.33,0.551-0.683,1.079-1.056,1.584c-0.375,0.507-0.825,0.957-1.354,1.354c0.703,0.44,1.231,1.056,1.584,1.848
		c0.352,0.792,0.736,1.551,1.155,2.277c0.417,0.726,0.968,1.331,1.649,1.814c0.682,0.485,1.684,0.639,3.004,0.462
		c2.244,2.157,5.367,3.477,9.371,3.96c0.044,0.354,0.166,0.628,0.363,0.825c0.198,0.198,0.406,0.386,0.627,0.562
		s0.43,0.362,0.627,0.561c0.198,0.198,0.318,0.452,0.363,0.759c0.924-0.132,1.605-0.021,2.046,0.33
		c0.439,0.353,0.803,0.771,1.089,1.254c0.286,0.485,0.572,0.969,0.858,1.452c0.286,0.485,0.736,0.815,1.353,0.99
		c-0.044,0.749,0.011,1.386,0.166,1.914c0.152,0.528,0.352,1.023,0.594,1.485c0.241,0.462,0.483,0.924,0.726,1.386
		c0.241,0.462,0.429,0.979,0.562,1.551c0.043,0.484,0.01,0.858-0.1,1.122c-0.11,0.264-0.209,0.484-0.297,0.66
		c-0.089,0.176-0.121,0.353-0.1,0.528c0.022,0.176,0.188,0.418,0.496,0.726c-0.354,0-0.572,0.122-0.66,0.363
		c-0.089,0.242-0.122,0.539-0.1,0.891c0.021,0.353,0.055,0.716,0.1,1.089c0.043,0.375,0.043,0.693,0,0.957
		c-1.014,0.792-1.859,1.739-2.541,2.838c-0.684,1.101-1.397,2.156-2.146,3.168c-1.013,0.132-1.97,0.297-2.87,0.495
		c-0.902,0.198-1.508,0.716-1.815,1.551c-0.177-0.176-0.474-0.275-0.892-0.297c-0.418-0.022-0.857,0-1.32,0.066
		c-0.461,0.065-0.924,0.175-1.385,0.33c-0.463,0.153-0.826,0.34-1.09,0.561c-1.188-0.132-2.563-0.242-4.125-0.33
		c-1.562-0.088-3.201-0.143-4.916-0.165c-1.717-0.022-3.466,0-5.248,0.066c-1.781,0.066-3.487,0.208-5.115,0.429
		c-0.221-1.145-0.33-2.331-0.33-3.563c0-1.231,0.022-2.485,0.066-3.763c0.043-1.275,0.055-2.584,0.033-3.927
		c-0.022-1.342-0.165-2.716-0.429-4.125c0.396-0.396,0.956-0.615,1.683-0.66c0.727-0.043,1.507-0.043,2.344,0
		c-0.09,0.837,0.099,1.419,0.561,1.749s0.934,0.627,1.419,0.892c0.175,1.805,0.747,3.233,1.716,4.29
		c0.967,1.056,2.178,1.814,3.63,2.276s3.079,0.683,4.884,0.66c1.805-0.021,3.631-0.187,5.479-0.495
		c1.012-0.879,1.99-1.759,2.938-2.64c0.945-0.88,1.639-2.023,2.078-3.432c0.088-0.265,0.088-0.43,0-0.495
		c-0.088-0.066-0.197-0.109-0.33-0.132c-0.132-0.022-0.242-0.077-0.33-0.165s-0.088-0.265,0-0.528c-0.088-0.264-0.088-0.429,0-0.495
		s0.198-0.121,0.33-0.165c0.133-0.043,0.242-0.099,0.33-0.165s0.088-0.23,0-0.495c-0.572-2.023-1.617-3.541-3.135-4.554
		c-1.518-1.012-3.377-1.716-5.577-2.112c0-0.307-0.065-0.527-0.198-0.66c-0.131-0.132-0.286-0.252-0.461-0.362
		c-0.177-0.109-0.33-0.231-0.463-0.363c-0.132-0.132-0.197-0.352-0.197-0.66c-2.729-0.483-5.237-1.198-7.524-2.145
		c-2.288-0.946-4.247-2.233-5.874-3.861c0.176-0.483,0.187-0.935,0.033-1.354c-0.154-0.417-0.363-0.813-0.627-1.188
		c-0.264-0.373-0.539-0.759-0.825-1.155c-0.286-0.396-0.474-0.835-0.562-1.319c-0.176-0.836-0.23-1.705-0.164-2.607
		c0.065-0.901,0.219-1.76,0.461-2.574c0.242-0.813,0.572-1.551,0.99-2.211s0.891-1.21,1.42-1.649
		c-0.133-0.616-0.166-1.066-0.1-1.354c0.066-0.285,0.198-0.517,0.396-0.693c0.197-0.175,0.472-0.34,0.824-0.494
		c0.352-0.154,0.748-0.406,1.188-0.76c0.438-0.352,0.88-0.736,1.319-1.154s0.924-0.803,1.453-1.155
		c0.527-0.352,1.132-0.627,1.814-0.825c0.682-0.198,1.484-0.274,2.408-0.23c1.496-0.265,2.948-0.43,4.357-0.495
		c1.406-0.066,2.838-0.076,4.289-0.033c1.452,0.044,2.947,0.065,4.488,0.065C816.004,320.015,817.654,319.949,819.415,319.817z"/>
	<path d="M840.204,321.995c-0.485,2.772-0.902,5.588-1.254,8.448c-0.353,2.86-0.837,5.609-1.452,8.25
		c0.132,0.176,0.274,0.407,0.43,0.692c0.152,0.287,0.24,0.584,0.264,0.892c0.021,0.309-0.012,0.594-0.1,0.857
		c-0.088,0.265-0.287,0.462-0.594,0.595l0.99,0.989c0.66-0.396,1.386-0.857,2.178-1.386s1.627-1.012,2.508-1.452
		c0.88-0.439,1.771-0.736,2.674-0.891c0.9-0.153,1.791-0.033,2.672,0.363c0.133-0.22,0.33-0.374,0.595-0.462
		c0.264-0.088,0.55-0.165,0.858-0.231c0.307-0.066,0.604-0.132,0.891-0.198c0.285-0.065,0.517-0.208,0.693-0.429
		c0.791,0.396,1.693,0.881,2.705,1.452c1.012,0.572,1.914,1.232,2.707,1.979c0.791,0.749,1.341,1.617,1.649,2.607
		c0.308,0.99,0.175,2.102-0.396,3.333c-0.09,0.264-0.09,0.429,0,0.495c0.087,0.065,0.197,0.121,0.33,0.165
		c0.131,0.044,0.252,0.099,0.362,0.165c0.109,0.065,0.099,0.23-0.032,0.495c-0.354,1.54-0.605,3.289-0.76,5.246
		c-0.154,1.959-0.11,3.84,0.132,5.644c0.241,1.805,0.715,3.377,1.419,4.719c0.703,1.343,1.782,2.168,3.234,2.476v2.64
		c-0.354-0.132-0.605-0.165-0.76-0.099c-0.154,0.065-0.286,0.154-0.396,0.264c-0.11,0.11-0.221,0.221-0.33,0.33
		c-0.11,0.109-0.274,0.165-0.495,0.165c-0.968-0.265-1.947-0.385-2.937-0.363c-0.99,0.022-2.013,0.066-3.069,0.132
		c-1.056,0.066-2.135,0.1-3.234,0.1s-2.266-0.176-3.498-0.528c0.176-0.396,0.374-0.759,0.595-1.089
		c0.22-0.33,0.241-0.847,0.065-1.551c1.188-0.308,2.047-1.122,2.574-2.442c0.528-1.32,0.847-2.815,0.957-4.488
		c0.109-1.672,0.066-3.376-0.132-5.115c-0.198-1.737-0.429-3.2-0.692-4.389c-0.133-0.308-0.155-0.517-0.066-0.627
		c0.088-0.109,0.197-0.198,0.33-0.264c0.132-0.066,0.241-0.143,0.33-0.231c0.088-0.088,0.109-0.264,0.066-0.527
		c-0.221-0.836-0.693-1.552-1.42-2.146c-0.726-0.594-1.573-1.056-2.541-1.386c-0.969-0.33-2.002-0.506-3.102-0.528
		c-1.101-0.021-2.135,0.11-3.102,0.396c-0.969,0.286-1.805,0.737-2.509,1.353c-0.704,0.617-1.166,1.386-1.386,2.311
		c-0.045,1.451-0.188,3.124-0.43,5.016c-0.242,1.893-0.352,3.707-0.33,5.445c0.022,1.738,0.319,3.256,0.892,4.554
		c0.571,1.298,1.649,2.079,3.233,2.343c0.044,0.309,0.044,0.66,0,1.056c-0.043,0.396,0.176,0.507,0.66,0.33
		c-0.176,0.485-0.396,0.925-0.66,1.32c-0.264,0.396-0.484,0.836-0.659,1.32c-1.805-0.045-3.245-0.077-4.323-0.1
		s-2.046-0.044-2.904-0.065c-0.857-0.022-1.738-0.076-2.64-0.165c-0.902-0.088-2.079-0.198-3.53-0.33
		c0-0.703,0.164-1.33,0.494-1.881c0.33-0.55,0.715-1.066,1.155-1.551c0.438-0.484,0.901-0.946,1.386-1.387
		c0.484-0.439,0.869-0.901,1.155-1.386c0.286-0.483,0.438-1.033,0.462-1.65c0.021-0.615-0.188-1.341-0.627-2.178
		c0.307-1.584,0.527-3.354,0.66-5.312c0.132-1.958,0.176-3.96,0.132-6.007c-0.044-2.046-0.144-4.059-0.297-6.038
		c-0.155-1.98-0.319-3.763-0.495-5.347c0.483-0.835,0.703-1.683,0.66-2.541c-0.045-0.857-0.264-1.639-0.66-2.343
		c-0.396-0.703-0.957-1.287-1.684-1.749c-0.726-0.462-1.508-0.715-2.342-0.759c-0.09-0.528-0.078-0.968,0.032-1.32
		c0.109-0.352,0.241-0.67,0.396-0.957c0.154-0.285,0.319-0.561,0.496-0.825c0.175-0.264,0.307-0.571,0.396-0.924
		c1.188-0.043,2.178-0.274,2.97-0.692s1.584-0.847,2.377-1.287c0.791-0.439,1.649-0.813,2.573-1.122
		C837.63,321.886,838.795,321.819,840.204,321.995z"/>
	<path d="M884.357,370.901c-0.309-0.353-0.737-0.572-1.287-0.66c-0.551-0.089-1.122-0.154-1.716-0.198
		c-0.595-0.044-1.146-0.132-1.649-0.264c-0.507-0.132-0.849-0.439-1.023-0.924c-0.354-0.088-0.639-0.109-0.858-0.066
		c-0.221,0.044-0.407,0.11-0.562,0.198c-0.154,0.089-0.297,0.188-0.428,0.297c-0.133,0.11-0.309,0.188-0.529,0.23
		c-1.54-0.835-2.959-1.936-4.256-3.3c-1.299-1.363-2.377-2.926-3.234-4.686s-1.419-3.706-1.684-5.841
		c-0.264-2.134-0.109-4.433,0.463-6.897c0.264,0.132,0.439,0.144,0.527,0.033c0.088-0.109,0.143-0.231,0.165-0.363
		s0.077-0.241,0.165-0.33c0.088-0.087,0.264-0.087,0.528,0c0.659-5.719,4.224-8.623,10.692-8.712c0.131-0.439,0.33-0.67,0.594-0.692
		s0.538,0.032,0.824,0.165c0.286,0.132,0.595,0.274,0.924,0.429c0.33,0.154,0.649,0.188,0.957,0.099
		c2.288-0.439,4.324-0.33,6.105,0.33c1.782,0.66,3.311,1.684,4.588,3.069c1.275,1.386,2.309,3.036,3.102,4.95
		c0.791,1.914,1.32,3.927,1.584,6.039c-0.354,4.84-1.673,8.701-3.961,11.582C892.102,368.272,888.757,370.109,884.357,370.901z
		 M876.965,344.765c-0.221,0.396-0.418,0.815-0.594,1.255c-0.176,0.44-0.385,0.848-0.627,1.221c-0.242,0.374-0.518,0.704-0.824,0.99
		c-0.309,0.286-0.727,0.473-1.254,0.561c0.043,1.364,0.098,2.729,0.164,4.092c0.066,1.364,0.22,2.63,0.463,3.795
		c0.24,1.167,0.615,2.211,1.121,3.136c0.506,0.924,1.243,1.606,2.211,2.046c0.396,0.704,1,1.287,1.815,1.749
		c0.813,0.462,1.704,0.803,2.673,1.022c0.967,0.221,1.947,0.297,2.938,0.231c0.99-0.066,1.857-0.297,2.606-0.693
		c0.528-0.264,0.935-0.604,1.222-1.022c0.285-0.418,0.561-0.847,0.824-1.287c0.264-0.439,0.539-0.813,0.825-1.122
		c0.286-0.308,0.671-0.506,1.155-0.594c0.132-0.968,0.164-1.849,0.099-2.641s-0.165-1.562-0.297-2.31s-0.254-1.495-0.362-2.244
		c-0.111-0.748-0.145-1.562-0.1-2.442c-0.309-0.924-0.737-1.704-1.287-2.343c-0.551-0.638-1.166-1.221-1.848-1.749
		c-0.684-0.528-1.387-1.022-2.112-1.485c-0.726-0.462-1.419-0.957-2.079-1.484c-0.748-0.044-1.354,0.033-1.814,0.23
		c-0.463,0.198-0.924,0.407-1.387,0.627c-0.462,0.221-0.957,0.396-1.484,0.528C878.483,344.963,877.801,344.941,876.965,344.765z"/>
	<path d="M913.001,338.693c0.22,0.748,0.406,1.562,0.562,2.441c0.153,0.881,0.406,1.629,0.758,2.244
		c1.584-0.615,3.07-1.309,4.455-2.079c1.387-0.769,2.915-1.419,4.588-1.946c3.343,0.44,5.928,1.628,7.755,3.563
		c1.825,1.937,3.135,4.422,3.927,7.458v9.042c-0.396,0.704-0.737,1.485-1.023,2.343c-0.286,0.858-0.594,1.673-0.924,2.442
		c-0.33,0.771-0.748,1.463-1.254,2.079s-1.221,1.013-2.145,1.188c0,0.221-0.057,0.386-0.165,0.495c-0.11,0.11-0.221,0.221-0.33,0.33
		c-0.11,0.11-0.198,0.254-0.265,0.429c-0.065,0.177-0.033,0.419,0.1,0.727c-1.188,0.66-2.453,1.045-3.795,1.155
		c-1.343,0.109-2.695,0.076-4.059-0.1c-1.365-0.176-2.718-0.44-4.06-0.792c-1.343-0.352-2.606-0.66-3.795-0.924
		c-0.396,0.221-0.692,0.683-0.892,1.386c-0.197,0.704-0.297,1.474-0.297,2.311c0,0.835,0.076,1.627,0.231,2.376
		c0.153,0.747,0.362,1.275,0.627,1.584c0.044,0.352,0.011,0.594-0.099,0.726c-0.111,0.132-0.231,0.265-0.363,0.396
		c-0.133,0.132-0.242,0.274-0.33,0.429c-0.089,0.153-0.066,0.429,0.066,0.825c1.099,1.275,2.199,2.519,3.299,3.729
		s2.465,2.188,4.093,2.938v2.046c-1.937-0.177-3.74-0.177-5.412,0c-1.673,0.175-3.257,0.297-4.752,0.363
		c-1.496,0.065-2.894-0.023-4.19-0.265c-1.299-0.242-2.541-0.848-3.729-1.814c0.616-0.749,1.265-1.64,1.946-2.673
		c0.682-1.035,1.255-2.157,1.717-3.366c0.462-1.211,0.759-2.465,0.891-3.762c0.133-1.299-0.044-2.586-0.527-3.861
		c0.307-2.112,0.604-4.455,0.891-7.029c0.285-2.574,0.406-5.092,0.363-7.557c-0.045-2.464-0.354-4.763-0.924-6.897
		c-0.572-2.134-1.562-3.795-2.971-4.982v-1.65c0.967-0.308,1.782-0.77,2.442-1.386c0.659-0.616,1.319-1.243,1.979-1.881
		s1.408-1.166,2.244-1.584S911.592,338.605,913.001,338.693z M912.275,349.385c0.043,2.816,0.021,5.16-0.066,7.029
		c-0.089,1.871-0.287,3.312-0.594,4.323c0.615,0.527,1.077,1.188,1.386,1.979c0.308,0.792,0.747,1.475,1.319,2.046
		c1.057,0.265,2.014,0.408,2.871,0.43c0.858,0.022,1.693,0.011,2.508-0.033c0.814-0.043,1.65-0.055,2.509-0.033
		c0.858,0.022,1.792,0.122,2.806,0.297c1.099-0.66,1.979-1.528,2.639-2.606c0.66-1.078,1.133-2.299,1.42-3.663
		c0.285-1.363,0.418-2.815,0.396-4.356c-0.022-1.539-0.165-3.123-0.429-4.752c-0.484-0.307-0.957-0.615-1.419-0.924
		c-0.462-0.308-0.671-0.88-0.627-1.716c-1.232-0.571-2.541-0.935-3.927-1.089c-1.387-0.154-2.751-0.132-4.092,0.065
		c-1.344,0.198-2.598,0.551-3.763,1.057C914.045,347.944,913.066,348.593,912.275,349.385z"/>
	<path d="M950.555,361.793c0.308,0.704,0.67,1.343,1.09,1.914c0.417,0.572,0.867,1.122,1.353,1.65
		c0.483,0.527,0.979,1.034,1.485,1.518c0.505,0.484,0.979,1.013,1.418,1.584c-0.308,0.528-0.671,1.013-1.088,1.452
		c-0.42,0.439-0.826,0.88-1.222,1.32c-0.396,0.439-0.749,0.924-1.056,1.452c-0.309,0.527-0.528,1.144-0.66,1.848
		c-0.748-0.177-1.277-0.155-1.584,0.065c-0.309,0.22-0.683,0.418-1.122,0.595c-0.66-0.221-1.243-0.528-1.749-0.924
		c-0.506-0.396-0.979-0.825-1.419-1.287c-0.44-0.462-0.881-0.914-1.319-1.354c-0.441-0.44-0.947-0.814-1.519-1.122
		c-0.132-1.012-0.022-1.792,0.33-2.343c0.352-0.55,0.759-1.045,1.221-1.485c0.462-0.438,0.892-0.912,1.287-1.419
		c0.396-0.505,0.571-1.221,0.528-2.145c0.352-0.088,0.66-0.22,0.924-0.396c0.264-0.175,0.538-0.352,0.824-0.527
		s0.605-0.308,0.957-0.396C949.586,361.705,950.027,361.705,950.555,361.793z"/>
	<path d="M993.387,320.873c0.265,0.396,0.693,0.617,1.287,0.66c0.594,0.044,1.221,0.056,1.881,0.033
		c0.66-0.021,1.287-0.011,1.881,0.033c0.595,0.044,1.023,0.264,1.287,0.659c0.748-0.439,1.617-0.682,2.607-0.726
		c0.99-0.043,1.99,0,3.003,0.132c1.012,0.132,1.99,0.33,2.937,0.594c0.946,0.265,1.771,0.485,2.476,0.66
		c0.396-0.175,0.747-0.396,1.056-0.66c0.308-0.264,0.627-0.505,0.957-0.726c0.33-0.22,0.703-0.396,1.123-0.528
		c0.417-0.132,0.934-0.175,1.551-0.132c0.264,0.264,0.439,0.594,0.527,0.99c0.088,0.396,0.143,0.836,0.165,1.32s0.022,0.989,0,1.518
		s-0.011,1.034,0.033,1.518h-6.401c-0.969,1.013-1.662,2.189-2.08,3.531c-0.418,1.343-0.671,2.805-0.759,4.389
		c-0.089,1.584-0.077,3.246,0.033,4.983c0.109,1.738,0.22,3.465,0.33,5.181c0.109,1.717,0.142,3.411,0.099,5.082
		c-0.044,1.673-0.242,3.213-0.594,4.62c0.22,0.44,0.396,1.046,0.527,1.815c0.133,0.771,0.209,1.562,0.231,2.376
		c0.022,0.814-0.032,1.606-0.165,2.376c-0.132,0.771-0.33,1.376-0.594,1.814c0,0.309,0.088,0.54,0.264,0.693
		c0.176,0.154,0.363,0.297,0.562,0.429c0.198,0.133,0.352,0.309,0.462,0.528c0.109,0.221,0.121,0.551,0.033,0.99
		c0.748-0.088,1.484-0.055,2.211,0.099c0.726,0.155,1.419,0.297,2.078,0.429c0.66,0.133,1.298,0.198,1.914,0.198
		s1.232-0.241,1.849-0.726c0.439,0.132,0.792,0.341,1.056,0.627s0.352,0.759,0.264,1.419h2.311c0.352-0.043,0.473-0.318,0.363-0.825
		c-0.11-0.505-0.122-0.912-0.033-1.221c2.859-0.088,5.016-0.836,6.468-2.244s2.419-3.321,2.904-5.742
		c0.703-0.043,1.155-0.33,1.353-0.857c0.198-0.528,0.385-1.066,0.562-1.617c0.175-0.55,0.438-1.012,0.792-1.387
		c0.352-0.373,1.012-0.429,1.98-0.165c0.352,1.101,0.57,2.333,0.659,3.696c0.088,1.364,0.121,2.783,0.099,4.257
		c-0.021,1.475-0.065,2.96-0.131,4.455c-0.066,1.497-0.057,2.927,0.032,4.29c-0.836,0.439-1.892,0.682-3.168,0.727
		c-1.276,0.043-2.563,0.021-3.86-0.066c-1.299-0.089-2.52-0.165-3.664-0.23c-1.145-0.066-2.023,0.01-2.64,0.23
		c-0.88-0.264-1.793-0.407-2.739-0.429c-0.946-0.022-2.057-0.1-3.332-0.231c-0.354-0.043-0.584,0.066-0.693,0.33
		c-0.11,0.265-0.32,0.373-0.627,0.33c-0.836-0.089-1.684-0.122-2.541-0.099c-0.858,0.021-1.738,0.033-2.641,0.033
		s-1.814-0.033-2.738-0.1c-0.924-0.065-1.848-0.23-2.772-0.495c-0.616,0.396-1.397,0.616-2.343,0.66
		c-0.947,0.043-1.937,0.055-2.971,0.033c-1.033-0.022-2.035-0.012-3.002,0.033c-0.969,0.043-1.761,0.241-2.377,0.594
		c-0.396-0.396-0.616-0.957-0.659-1.683c-0.044-0.727-0.044-1.485,0-2.277c0.747-0.483,1.54-0.88,2.376-1.188
		c0.835-0.307,1.936-0.373,3.3-0.197c0.968-0.66,1.628-1.771,1.979-3.333s0.539-3.268,0.562-5.115
		c0.021-1.848-0.077-3.706-0.297-5.577c-0.221-1.87-0.419-3.421-0.595-4.653c0.176-0.175,0.341-0.517,0.496-1.022
		c0.153-0.506,0.24-1.023,0.264-1.551c0.021-0.528-0.023-1.023-0.133-1.485s-0.318-0.78-0.627-0.957
		c0.396-1.012,0.583-1.969,0.562-2.871c-0.022-0.901-0.089-1.771-0.198-2.607c-0.109-0.835-0.188-1.649-0.23-2.441
		c-0.045-0.792,0.132-1.605,0.527-2.442c-0.221-1.099-0.594-2.067-1.121-2.903c-0.528-0.836-1.145-1.562-1.849-2.179
		c-0.704-0.615-1.485-1.165-2.343-1.649s-1.749-0.924-2.673-1.32c0.175-0.483,0.396-0.935,0.659-1.353
		C992.991,321.809,993.211,321.357,993.387,320.873z M1030.148,363.707v-1.32h-1.319
		C1028.961,363.136,1029.4,363.575,1030.148,363.707z"/>
	<path d="M1056.746,370.901c-0.309-0.353-0.736-0.572-1.287-0.66c-0.551-0.089-1.121-0.154-1.715-0.198
		c-0.595-0.044-1.146-0.132-1.65-0.264c-0.506-0.132-0.848-0.439-1.023-0.924c-0.353-0.088-0.639-0.109-0.857-0.066
		c-0.221,0.044-0.408,0.11-0.562,0.198c-0.154,0.089-0.297,0.188-0.429,0.297c-0.133,0.11-0.309,0.188-0.528,0.23
		c-1.54-0.835-2.96-1.936-4.257-3.3c-1.299-1.363-2.376-2.926-3.234-4.686c-0.857-1.76-1.418-3.706-1.683-5.841
		c-0.265-2.134-0.11-4.433,0.462-6.897c0.264,0.132,0.439,0.144,0.528,0.033c0.087-0.109,0.142-0.231,0.165-0.363
		c0.021-0.132,0.076-0.241,0.164-0.33c0.088-0.087,0.265-0.087,0.529,0c0.659-5.719,4.223-8.623,10.691-8.712
		c0.132-0.439,0.33-0.67,0.594-0.692s0.539,0.032,0.825,0.165c0.286,0.132,0.595,0.274,0.924,0.429
		c0.33,0.154,0.649,0.188,0.957,0.099c2.288-0.439,4.323-0.33,6.104,0.33c1.783,0.66,3.311,1.684,4.588,3.069
		c1.275,1.386,2.31,3.036,3.102,4.95s1.32,3.927,1.584,6.039c-0.353,4.84-1.672,8.701-3.96,11.582
		C1064.49,368.272,1061.146,370.109,1056.746,370.901z M1049.354,344.765c-0.221,0.396-0.419,0.815-0.594,1.255
		c-0.177,0.44-0.386,0.848-0.628,1.221c-0.242,0.374-0.518,0.704-0.824,0.99c-0.309,0.286-0.727,0.473-1.254,0.561
		c0.043,1.364,0.099,2.729,0.165,4.092c0.065,1.364,0.22,2.63,0.462,3.795c0.241,1.167,0.615,2.211,1.122,3.136
		c0.505,0.924,1.243,1.606,2.211,2.046c0.396,0.704,1,1.287,1.815,1.749c0.812,0.462,1.704,0.803,2.672,1.022
		c0.968,0.221,1.947,0.297,2.938,0.231c0.99-0.066,1.858-0.297,2.607-0.693c0.527-0.264,0.934-0.604,1.221-1.022
		c0.285-0.418,0.561-0.847,0.824-1.287c0.265-0.439,0.539-0.813,0.826-1.122c0.285-0.308,0.67-0.506,1.154-0.594
		c0.133-0.968,0.165-1.849,0.1-2.641c-0.066-0.792-0.166-1.562-0.297-2.31c-0.133-0.748-0.254-1.495-0.363-2.244
		c-0.11-0.748-0.144-1.562-0.1-2.442c-0.309-0.924-0.736-1.704-1.287-2.343c-0.551-0.638-1.166-1.221-1.848-1.749
		c-0.683-0.528-1.386-1.022-2.111-1.485c-0.727-0.462-1.42-0.957-2.08-1.484c-0.748-0.044-1.353,0.033-1.814,0.23
		c-0.462,0.198-0.924,0.407-1.386,0.627c-0.462,0.221-0.957,0.396-1.485,0.528C1050.873,344.963,1050.189,344.941,1049.354,344.765z
		"/>
	<path d="M1084.334,338.297c0.924,0.396,1.584,1.057,1.98,1.98c-1.408,1.101-2.971,2.003-4.686,2.706
		c0.615,3.432,1.584,6.534,2.903,9.306c1.32,2.772,2.706,5.456,4.158,8.052c1.012-0.703,1.825-1.639,2.442-2.805
		c0.615-1.165,1.165-2.376,1.649-3.63c0.483-1.254,0.979-2.497,1.485-3.729c0.505-1.23,1.198-2.287,2.078-3.168
		c0.176-1.144,0.055-1.979-0.362-2.508c-0.419-0.528-0.913-0.979-1.485-1.353s-1.1-0.792-1.584-1.254s-0.683-1.222-0.594-2.277
		c0.396-0.22,0.813-0.406,1.254-0.562c0.439-0.153,0.814-0.406,1.122-0.759c0.66,0.309,1.429,0.507,2.31,0.595
		c0.88,0.088,1.815,0.132,2.806,0.132c0.989,0,1.99-0.021,3.003-0.066c1.012-0.043,1.98-0.043,2.904,0
		c0.131,0.44,0.318,0.814,0.561,1.122c0.241,0.309,0.274,0.836,0.1,1.584c-1.409,0.484-2.553,1.244-3.433,2.277
		c-0.881,1.034-1.628,2.178-2.244,3.432s-1.199,2.553-1.749,3.895c-0.551,1.342-1.199,2.585-1.947,3.729
		c0.133,1.101,0.044,1.97-0.264,2.607c-0.309,0.638-0.66,1.232-1.056,1.781c-0.396,0.551-0.749,1.134-1.056,1.749
		c-0.309,0.617-0.396,1.475-0.265,2.574c-0.528,0.484-0.902,1.111-1.122,1.881c-0.221,0.771-0.473,1.519-0.759,2.244
		c-0.286,0.727-0.671,1.354-1.155,1.881c-0.484,0.528-1.254,0.748-2.31,0.66c-0.396-0.264-0.87-0.462-1.419-0.594
		c-0.551-0.132-1.199-0.154-1.947-0.066c-0.132-0.747-0.572-1.188-1.32-1.319c0.088-1.188-0.033-2.179-0.363-2.971
		s-0.891-1.363-1.683-1.716c-0.396-1.936-0.902-3.762-1.518-5.478c-0.616-1.717-1.287-3.377-2.013-4.983
		c-0.727-1.605-1.485-3.189-2.277-4.752c-0.792-1.562-1.518-3.179-2.178-4.851c-0.309-0.044-0.66-0.044-1.057,0
		s-0.506-0.176-0.33-0.66c-0.264-0.088-0.429-0.088-0.494,0c-0.066,0.089-0.111,0.197-0.133,0.33
		c-0.022,0.132-0.077,0.242-0.164,0.33c-0.09,0.088-0.265,0.088-0.529,0c0.176-0.484,0.077-0.704-0.297-0.66s-0.715,0.044-1.022,0
		c-0.132-0.571-0.165-1.045-0.099-1.419c0.065-0.374,0.175-0.704,0.33-0.99c0.153-0.286,0.34-0.55,0.561-0.792
		c0.22-0.241,0.396-0.517,0.527-0.825c0.881,0.089,1.838,0.11,2.871,0.066s2.057-0.088,3.069-0.132
		c1.012-0.044,1.958-0.022,2.839,0.065c0.879,0.089,1.627,0.309,2.243,0.66c0-0.22,0.099-0.363,0.298-0.429
		c0.197-0.066,0.406-0.109,0.627-0.133c0.219-0.021,0.417-0.076,0.594-0.164C1084.312,338.804,1084.377,338.605,1084.334,338.297z"
		/>
	<path d="M1135.021,351.695c-0.396,0.221-0.814,0.407-1.254,0.561c-0.439,0.155-0.814,0.407-1.122,0.759
		c-1.145-0.132-2.233-0.099-3.267,0.1c-1.035,0.198-2.09,0.419-3.168,0.66c-1.079,0.242-2.234,0.44-3.465,0.594
		c-1.232,0.154-2.619,0.144-4.158-0.033c-0.309,0.132-0.528,0.33-0.66,0.594c-0.132,0.265-0.254,0.551-0.363,0.858
		c-0.109,0.309-0.254,0.584-0.429,0.825c-0.177,0.242-0.462,0.386-0.858,0.429c0.265,1.716,0.825,3.146,1.684,4.29
		c0.857,1.145,1.857,2.156,3.003,3.036c1.319,0.044,2.628,0.077,3.927,0.099c1.297,0.023,2.475-0.076,3.531-0.297
		c1.056-0.22,1.936-0.615,2.64-1.188c0.704-0.571,1.122-1.452,1.255-2.641c0.352,0.132,0.604,0.165,0.758,0.1
		c0.154-0.066,0.286-0.154,0.396-0.265c0.109-0.109,0.22-0.22,0.33-0.33c0.109-0.108,0.297-0.165,0.561-0.165
		c0.616,1.013,0.869,1.904,0.76,2.674c-0.111,0.77-0.375,1.496-0.793,2.178c-0.418,0.683-0.902,1.331-1.451,1.947
		c-0.551,0.616-0.957,1.254-1.221,1.914c-0.528,0.264-1.155,0.572-1.881,0.924c-0.727,0.353-1.497,0.648-2.311,0.891
		c-0.814,0.241-1.64,0.352-2.475,0.33c-0.837-0.022-1.629-0.297-2.377-0.825c-0.352-0.088-0.594-0.076-0.726,0.033
		c-0.132,0.11-0.253,0.231-0.362,0.363c-0.111,0.132-0.243,0.241-0.396,0.33c-0.154,0.087-0.43,0.065-0.825-0.066
		c-0.66-0.309-1.319-0.583-1.979-0.825c-0.66-0.241-1.287-0.505-1.881-0.792c-0.595-0.285-1.134-0.615-1.617-0.989
		c-0.485-0.374-0.881-0.847-1.188-1.42c-0.132-0.219-0.144-0.494-0.032-0.824c0.108-0.33,0.12-0.604,0.032-0.825
		c-0.221-0.308-0.462-0.583-0.726-0.825c-0.264-0.241-0.528-0.505-0.793-0.792c-0.264-0.285-0.506-0.615-0.726-0.99
		c-0.221-0.373-0.374-0.847-0.462-1.419c-0.132-0.703-0.165-1.452-0.1-2.244c0.066-0.792,0.121-1.594,0.166-2.408
		c0.043-0.814,0.033-1.65-0.033-2.509c-0.066-0.857-0.297-1.704-0.693-2.541c0.088-0.571,0.242-1.221,0.463-1.946
		c0.219-0.727,0.428-1.43,0.627-2.112c0.197-0.682,0.33-1.309,0.396-1.881c0.065-0.571,0.011-1.033-0.165-1.386
		c0.396-0.088,0.803-0.188,1.221-0.298c0.418-0.108,0.793-0.252,1.122-0.429c0.33-0.175,0.583-0.418,0.759-0.726
		s0.264-0.727,0.264-1.254c0.529,0.353,1.034,0.451,1.519,0.297c0.483-0.154,0.935-0.396,1.353-0.727s0.781-0.66,1.09-0.989
		c0.307-0.33,0.549-0.517,0.726-0.562c0.528-0.132,1.188-0.187,1.979-0.165c0.793,0.022,1.573,0.122,2.344,0.297
		c0.77,0.177,1.44,0.43,2.014,0.759c0.57,0.33,0.9,0.693,0.989,1.09h2.706c1.495,1.232,2.641,2.783,3.432,4.652
		C1133.9,347.461,1134.537,349.495,1135.021,351.695z M1116.938,351.695h5.346c-0.044-0.439,0.088-0.715,0.396-0.825
		c0.308-0.109,0.506-0.297,0.594-0.561c1.452-0.044,2.497-0.298,3.135-0.76s0.979-1.012,1.023-1.649
		c0.043-0.638-0.165-1.331-0.627-2.079s-1.045-1.43-1.749-2.046s-1.485-1.133-2.343-1.551s-1.662-0.604-2.409-0.562
		c-0.265,0.792-0.692,1.551-1.287,2.277c-0.594,0.726-1.155,1.475-1.683,2.244c-0.528,0.77-0.881,1.606-1.057,2.508
		C1116.102,349.595,1116.321,350.596,1116.938,351.695z"/>
	<path d="M1150.729,361.793c0.309,0.704,0.672,1.343,1.09,1.914c0.418,0.572,0.869,1.122,1.354,1.65
		c0.482,0.527,0.979,1.034,1.484,1.518c0.506,0.484,0.979,1.013,1.42,1.584c-0.309,0.528-0.672,1.013-1.09,1.452
		s-0.824,0.88-1.221,1.32c-0.396,0.439-0.748,0.924-1.057,1.452c-0.309,0.527-0.527,1.144-0.66,1.848
		c-0.748-0.177-1.275-0.155-1.584,0.065c-0.309,0.22-0.682,0.418-1.121,0.595c-0.66-0.221-1.244-0.528-1.75-0.924
		c-0.506-0.396-0.979-0.825-1.418-1.287c-0.441-0.462-0.881-0.914-1.32-1.354c-0.441-0.44-0.947-0.814-1.518-1.122
		c-0.133-1.012-0.023-1.792,0.33-2.343c0.352-0.55,0.758-1.045,1.221-1.485c0.461-0.438,0.891-0.912,1.287-1.419
		c0.396-0.505,0.57-1.221,0.527-2.145c0.352-0.088,0.66-0.22,0.924-0.396c0.264-0.175,0.539-0.352,0.826-0.527
		c0.285-0.176,0.604-0.308,0.957-0.396C1149.762,361.705,1150.201,361.705,1150.729,361.793z"/>
</g>
</svg>
